<?xml version="1.0" standalone="no"?>
<!DOCTYPE svg PUBLIC "-//W3C//DTD SVG 20010904//EN"
 "http://www.w3.org/TR/2001/REC-SVG-20010904/DTD/svg10.dtd">
<svg version="1.0" xmlns="http://www.w3.org/2000/svg"
 width="1500.000000pt" height="1380.000000pt" viewBox="0 0 1500.000000 1380.000000"
 preserveAspectRatio="xMidYMid meet">
<metadata>
Created by potrace 1.10, written by Peter Selinger 2001-2011
</metadata>
<g transform="translate(0.000000,1380.000000) scale(0.100000,-0.100000)"
fill="#000000" stroke="none">
<path d="M6745 13419 c-1584 -3 -3055 -9 -3270 -14 -436 -8 -456 -11 -622 -83
-159 -69 -252 -132 -386 -261 -90 -86 -140 -152 -218 -286 -65 -111 -83 -151
-100 -217 -5 -20 -18 -61 -28 -90 -26 -69 -41 -280 -41 -557 0 -168 -3 -212
-14 -224 -12 -11 -77 -15 -338 -20 -242 -4 -339 -10 -388 -21 -36 -9 -85 -21
-110 -27 -72 -16 -217 -87 -324 -157 -112 -73 -275 -229 -347 -332 -86 -123
-156 -277 -194 -427 -26 -106 -39 -1036 -39 -2893 0 -1869 13 -2798 40 -2910
36 -147 110 -312 187 -418 204 -281 443 -446 742 -512 78 -18 298 -29 562 -31
185 0 245 -4 260 -14 17 -13 18 -55 14 -1124 -3 -936 -1 -1111 11 -1111 12 0
312 298 1790 1780 211 212 406 404 431 428 l48 43 2307 -7 c2293 -7 3644 3
3800 27 358 55 773 394 905 739 42 110 56 153 67 205 20 91 40 368 40 566 0
138 3 198 12 207 9 9 84 12 275 12 343 0 487 20 688 97 121 46 260 138 373
247 62 59 191 217 220 267 10 19 33 59 50 89 61 108 93 229 108 410 41 487 44
4616 3 5410 -11 222 -13 240 -45 338 -63 195 -184 383 -341 532 -90 85 -218
178 -293 212 -257 117 -173 108 -1075 119 -1152 14 -1601 15 -4760 8z m5348
-807 c110 -13 183 -47 252 -116 74 -75 115 -166 126 -279 26 -268 17 -5255
-10 -5377 -10 -48 -23 -83 -43 -115 -7 -11 -26 -42 -42 -69 -34 -56 -106 -107
-194 -137 -50 -18 -93 -21 -342 -26 -237 -5 -287 -4 -296 8 -8 10 -13 520 -18
1834 -7 1876 -14 2292 -39 2380 -46 163 -142 351 -238 468 -76 93 -204 213
-286 269 -128 86 -287 156 -428 188 -71 17 -2049 28 -5119 29 -2304 1 -2501 3
-2518 18 -16 15 -18 36 -18 237 0 309 16 402 88 513 40 62 145 137 225 160 40
11 146 17 457 22 637 12 8338 6 8443 -7z m-2413 -1742 c648 -13 731 -19 807
-56 73 -35 139 -101 181 -181 27 -51 35 -80 45 -175 17 -160 17 -5128 0 -5300
-10 -96 -17 -127 -43 -178 -66 -130 -175 -212 -308 -230 -133 -19 -1446 -29
-3914 -29 l-2376 -1 -550 -551 c-394 -394 -556 -550 -569 -547 -17 3 -18 29
-21 549 -2 427 -5 549 -15 557 -9 8 -171 8 -532 2 -570 -9 -870 -1 -950 24
-136 44 -254 180 -285 331 -25 116 -32 966 -26 3060 6 2330 7 2360 60 2478 36
79 102 147 181 186 83 41 180 50 673 60 551 12 7055 12 7642 1z"/>
<path d="M5905 10445 c-19 -30 -35 -57 -35 -60 0 -3 -20 -38 -44 -78 -24 -39
-57 -97 -74 -127 -33 -61 -177 -309 -255 -440 -27 -47 -66 -115 -86 -152 -43
-79 -67 -121 -221 -383 -64 -110 -145 -249 -180 -310 -35 -60 -75 -130 -90
-155 -15 -25 -89 -155 -165 -290 -76 -135 -173 -305 -216 -378 -44 -72 -79
-134 -79 -137 0 -3 -26 -49 -59 -103 -32 -53 -71 -119 -86 -147 -15 -27 -64
-113 -110 -190 -45 -77 -120 -207 -167 -290 -71 -123 -221 -384 -258 -445 -5
-8 -35 -60 -66 -115 -31 -55 -65 -112 -75 -126 -10 -15 -38 -62 -62 -105 -24
-44 -78 -139 -120 -212 -43 -73 -77 -134 -77 -136 0 -2 -55 -96 -123 -210
-170 -287 -277 -474 -277 -485 0 -5 10 -11 23 -14 48 -10 5902 -8 5917 2 13 9
13 14 -1 38 -9 16 -54 91 -99 168 -119 201 -220 376 -220 382 0 2 -13 23 -29
46 -15 23 -43 69 -61 102 -18 33 -38 67 -45 75 -6 8 -40 67 -75 130 -35 63
-103 182 -152 263 -48 81 -88 150 -88 153 0 2 -12 23 -27 47 -15 23 -32 51
-38 62 -15 26 -146 254 -279 483 -58 101 -106 186 -106 189 0 2 -13 24 -30 48
-16 24 -30 46 -30 48 0 3 -20 40 -45 81 -25 42 -45 79 -45 81 0 3 -40 73 -90
156 -49 82 -90 153 -90 156 0 3 -22 42 -48 87 -150 250 -255 431 -294 506 -24
47 -76 137 -114 200 -39 63 -92 153 -119 200 -80 142 -85 150 -168 290 -90
152 -108 183 -148 258 -16 29 -40 69 -53 90 -13 20 -54 91 -91 157 -37 66 -78
136 -90 155 -19 30 -96 165 -129 225 -6 11 -16 27 -23 35 -7 9 -27 45 -46 81
-47 90 -86 149 -97 149 -6 0 -26 -25 -45 -55z m61 -1013 c7 -4 29 -38 49 -77
21 -38 59 -106 85 -150 240 -408 303 -517 371 -641 15 -29 46 -81 68 -115 80
-128 93 -150 130 -216 115 -206 214 -378 259 -451 29 -46 52 -85 52 -87 0 -3
32 -59 145 -255 43 -74 87 -151 98 -170 10 -19 38 -66 61 -103 45 -76 56 -94
143 -247 33 -58 84 -145 113 -195 30 -49 67 -115 84 -145 16 -30 40 -68 52
-85 12 -16 34 -55 49 -85 15 -30 83 -150 151 -266 120 -205 141 -255 109 -267
-8 -4 -925 -6 -2039 -6 -1811 0 -2027 1 -2041 15 -8 8 -15 18 -15 22 0 4 20
41 44 82 24 41 90 156 146 255 57 99 113 196 126 215 28 43 164 281 164 286 0
3 17 33 38 67 42 68 137 229 172 292 52 93 159 279 234 407 45 75 97 165 116
199 19 35 51 90 71 123 20 34 80 138 134 231 94 162 141 242 212 358 18 29 39
66 47 84 8 18 75 135 149 260 74 125 162 278 197 338 201 353 197 347 226 327z"/>
<path d="M5702 8328 c-19 -19 -17 -1031 2 -1047 9 -8 86 -11 257 -9 l244 3 3
519 c1 375 -1 523 -9 532 -16 19 -479 20 -497 2z"/>
<path d="M5702 6688 c-9 -9 -12 -79 -12 -253 0 -174 3 -244 12 -253 17 -17
479 -17 496 0 17 17 17 489 0 506 -9 9 -78 12 -248 12 -170 0 -239 -3 -248
-12z"/>
</g>
</svg>
