<?xml version="1.0" encoding="UTF-8" standalone="no"?>
<!DOCTYPE svg PUBLIC "-//W3C//DTD SVG 1.1//EN" "http://www.w3.org/Graphics/SVG/1.1/DTD/svg11.dtd">
<svg xmlns="http://www.w3.org/2000/svg" version="1.1" viewBox="0.00 0.00 500.00 500.00">
<path fill="#58ba47" d="
  M 238.65 0.00
  L 261.50 0.00
  Q 266.62 0.47 271.74 0.90
  Q 321.46 5.17 365.60 28.23
  Q 406.24 49.45 435.58 82.17
  Q 494.90 148.31 500.00 238.62
  L 500.00 261.50
  Q 499.49 268.17 498.90 274.85
  Q 498.28 281.89 497.20 288.56
  Q 483.94 370.43 424.70 429.09
  Q 418.10 435.62 410.12 442.22
  Q 345.97 495.21 261.39 500.00
  L 238.52 500.00
  Q 166.11 496.17 107.98 456.02
  C 66.56 427.41 33.64 385.99 15.68 337.84
  Q 3.79 305.94 0.89 271.49
  Q 0.46 266.42 0.00 261.37
  L 0.00 238.53
  Q 3.49 171.55 38.68 116.00
  Q 65.50 73.66 107.54 44.29
  Q 165.48 3.83 238.65 0.00
  Z
  M 469.88 250.00
  A 219.88 219.88 0.0 0 0 250.00 30.12
  A 219.88 219.88 0.0 0 0 30.12 250.00
  A 219.88 219.88 0.0 0 0 250.00 469.88
  A 219.88 219.88 0.0 0 0 469.88 250.00
  Z"
/>
<path fill="#58ba47" d="
  M 440.17 250.00
  A 190.17 190.17 0.0 0 1 250.00 440.17
  A 190.17 190.17 0.0 0 1 59.83 250.00
  A 190.17 190.17 0.0 0 1 250.00 59.83
  A 190.17 190.17 0.0 0 1 440.17 250.00
  Z
  M 234.87 265.25
  A 0.34 0.34 0.0 0 1 234.39 265.25
  L 179.62 210.48
  A 0.34 0.34 0.0 0 0 179.14 210.48
  L 140.52 249.10
  A 0.34 0.34 0.0 0 0 140.52 249.58
  L 229.05 339.52
  A 0.34 0.34 0.0 0 0 229.53 339.52
  L 371.53 198.87
  A 0.34 0.34 0.0 0 0 371.53 198.39
  L 336.87 163.73
  A 0.34 0.34 0.0 0 0 336.39 163.73
  L 234.87 265.25
  Z"
/>
</svg>
