<?xml version="1.0" encoding="UTF-8" standalone="no"?>
<!DOCTYPE svg PUBLIC "-//W3C//DTD SVG 1.1//EN" "http://www.w3.org/Graphics/SVG/1.1/DTD/svg11.dtd">
<svg xmlns="http://www.w3.org/2000/svg" version="1.1" viewBox="0.00 0.00 500.00 500.00">
<path fill="#ee2b2e" d="
  M 238.63 0.00
  L 261.50 0.00
  Q 266.62 0.47 271.74 0.91
  Q 327.12 5.70 375.09 33.47
  Q 420.32 59.66 450.69 100.57
  Q 495.89 161.48 500.00 238.65
  L 500.00 261.47
  Q 496.78 323.83 466.40 375.64
  Q 442.60 416.24 407.18 444.68
  Q 343.89 495.50 261.36 500.00
  L 238.53 500.00
  Q 181.83 497.10 133.83 471.65
  Q 88.02 447.36 56.33 408.43
  Q 4.56 344.83 0.00 261.37
  L 0.00 238.50
  Q 5.15 148.35 64.30 82.30
  Q 93.28 49.93 133.43 28.74
  Q 177.97 5.23 228.27 0.90
  Q 233.44 0.46 238.63 0.00
  Z
  M 469.89 250.00
  A 219.89 219.89 0.0 0 0 250.00 30.11
  A 219.89 219.89 0.0 0 0 30.11 250.00
  A 219.89 219.89 0.0 0 0 250.00 469.89
  A 219.89 219.89 0.0 0 0 469.89 250.00
  Z"
/>
<path fill="#ee2b2e" d="
  M 440.16 250.00
  A 190.16 190.16 0.0 0 1 250.00 440.16
  A 190.16 190.16 0.0 0 1 59.84 250.00
  A 190.16 190.16 0.0 0 1 250.00 59.84
  A 190.16 190.16 0.0 0 1 440.16 250.00
  Z
  M 214.60 249.74
  A 0.37 0.37 0.0 0 1 214.60 250.26
  L 162.11 302.74
  A 0.37 0.37 0.0 0 0 162.11 303.26
  L 196.74 337.89
  A 0.37 0.37 0.0 0 0 197.26 337.89
  L 249.74 285.40
  A 0.37 0.37 0.0 0 1 250.26 285.40
  L 302.74 337.88
  A 0.37 0.37 0.0 0 0 303.26 337.88
  L 337.89 303.26
  A 0.37 0.37 0.0 0 0 337.89 302.74
  L 285.40 250.26
  A 0.37 0.37 0.0 0 1 285.40 249.74
  L 337.88 197.26
  A 0.37 0.37 0.0 0 0 337.88 196.74
  L 303.26 162.11
  A 0.37 0.37 0.0 0 0 302.74 162.11
  L 250.26 214.59
  A 0.37 0.37 0.0 0 1 249.74 214.59
  L 197.26 162.11
  A 0.37 0.37 0.0 0 0 196.74 162.11
  L 162.11 196.74
  A 0.37 0.37 0.0 0 0 162.11 197.26
  L 214.60 249.74
  Z"
/>
</svg>
