<?xml version="1.0" encoding="UTF-8" standalone="no"?>
<!DOCTYPE svg PUBLIC "-//W3C//DTD SVG 1.1//EN" "http://www.w3.org/Graphics/SVG/1.1/DTD/svg11.dtd">
<svg xmlns="http://www.w3.org/2000/svg" version="1.1" viewBox="0.00 0.00 1448.00 1448.00">
<g stroke-width="2.00" fill="none" stroke-linecap="butt">
<path stroke="#7e412f" vector-effect="non-scaling-stroke" d="
  M 753.23 284.67
  C 740.74 292.65 737.67 305.49 742.25 319.31
  C 747.15 334.10 761.05 344.95 774.50 351.53
  C 803.77 365.84 836.88 373.48 868.29 382.98
  C 969.40 413.54 1036.82 502.88 1048.04 606.62
  Q 1048.09 607.10 1048.49 607.39
  C 1065.45 619.77 1079.02 635.51 1091.16 652.54"
/>
<path stroke="#916147" vector-effect="non-scaling-stroke" d="
  M 1091.16 652.54
  L 1109.62 682.03"
/>
<path stroke="#a37352" vector-effect="non-scaling-stroke" d="
  M 1109.62 682.03
  Q 1113.83 689.91 1118.22 698.47
  C 1121.22 704.31 1113.55 707.11 1111.52 703.47
  Q 1102.44 687.23 1091.05 670.83"
/>
<path stroke="#8c4b34" vector-effect="non-scaling-stroke" d="
  M 1091.05 670.83
  Q 1077.17 650.09 1058.94 632.56
  Q 1050.40 624.35 1040.12 618.11"
/>
<path stroke="#9a7269" vector-effect="non-scaling-stroke" d="
  M 1040.12 618.11
  Q 1012.50 600.35 980.74 597.24
  C 899.18 589.24 834.20 644.06 806.82 717.20
  C 797.45 742.20 790.24 773.75 763.92 786.39
  C 761.30 787.65 758.02 788.16 755.77 786.47
  C 738.05 773.13 734.15 739.04 732.48 718.75
  C 730.11 689.90 729.61 660.85 728.40 631.93
  C 727.04 599.31 722.96 568.98 713.35 537.93
  C 692.76 471.43 645.90 416.13 575.17 402.15
  C 499.76 387.25 423.50 419.80 375.54 478.05
  C 352.13 506.47 332.03 540.65 319.97 575.98
  Q 299.49 635.96 296.34 699.50"
/>
<path stroke="#8c4b34" vector-effect="non-scaling-stroke" d="
  M 296.34 699.50
  L 296.31 706.25"
/>
<path stroke="#7e412f" vector-effect="non-scaling-stroke" d="
  M 296.31 706.25
  Q 294.93 737.00 298.38 768.58
  C 312.32 895.96 378.79 1008.56 482.30 1083.80
  Q 484.41 1085.34 486.97 1085.93
  C 511.43 1091.67 538.02 1098.99 562.41 1087.18
  A 0.48 0.47 -30.0 0 0 562.60 1086.48
  Q 555.37 1076.04 546.00 1069.65"
/>
<path stroke="#8c4b34" vector-effect="non-scaling-stroke" d="
  M 546.00 1069.65
  Q 544.50 1067.42 542.77 1066.61
  A 0.29 0.29 0.0 0 1 542.97 1066.06
  Q 558.70 1070.44 572.15 1079.72
  A 0.78 0.78 0.0 0 0 573.18 1079.60
  L 578.57 1073.50
  Q 578.95 1073.08 578.79 1072.54
  Q 573.89 1055.95 562.90 1042.62
  A 0.27 0.27 0.0 0 1 563.26 1042.23
  L 580.06 1054.11"
/>
<path stroke="#9a7269" vector-effect="non-scaling-stroke" d="
  M 580.06 1054.11
  L 584.26 1058.66
  A 0.29 0.29 0.0 0 0 584.76 1058.48
  C 587.18 1029.45 549.75 1009.78 527.61 1000.32
  C 491.74 984.99 458.16 975.87 426.03 957.90"
/>
<path stroke="#8c4b34" vector-effect="non-scaling-stroke" d="
  M 426.03 957.90
  Q 406.90 946.19 393.56 931.94
  Q 392.37 930.66 393.28 928.58"
/>
<path stroke="#a37352" vector-effect="non-scaling-stroke" d="
  M 393.28 928.58
  C 394.90 926.40 396.91 926.48 398.86 928.31
  C 432.76 959.94 481.49 971.43 519.24 984.76
  Q 541.97 992.79 562.66 1005.09
  C 592.33 1022.72 613.26 1055.15 585.74 1086.62"
/>
<path stroke="#916147" vector-effect="non-scaling-stroke" d="
  M 585.74 1086.62
  Q 575.61 1097.74 559.81 1103.92"
/>
<path stroke="#7e412f" vector-effect="non-scaling-stroke" d="
  M 559.81 1103.92
  Q 540.36 1109.89 518.69 1106.71
  A 0.29 0.29 0.0 0 0 518.50 1107.24
  Q 622.58 1167.14 743.26 1167.48
  A 0.24 0.24 0.0 0 0 743.34 1167.01
  Q 730.97 1162.84 720.83 1154.85"
/>
<path stroke="#916147" vector-effect="non-scaling-stroke" d="
  M 720.83 1154.85
  Q 703.50 1139.31 703.87 1116.09"
/>
<path stroke="#a37352" vector-effect="non-scaling-stroke" d="
  M 703.87 1116.09
  Q 705.39 1092.08 722.90 1079.10
  C 748.86 1059.86 784.17 1067.12 812.97 1071.40
  C 824.54 1073.12 838.17 1073.73 849.67 1071.53
  Q 852.66 1070.96 853.04 1073.57"
/>
<path stroke="#8c4b34" vector-effect="non-scaling-stroke" d="
  M 853.04 1073.57
  Q 853.20 1075.33 852.19 1075.69
  Q 847.30 1077.40 839.26 1078.94"
/>
<path stroke="#9a7269" vector-effect="non-scaling-stroke" d="
  M 839.26 1078.94
  Q 826.31 1079.81 817.81 1079.42
  C 789.01 1078.09 757.29 1070.04 731.82 1087.05
  Q 723.59 1092.55 719.50 1102.60"
/>
<path stroke="#8c4b34" vector-effect="non-scaling-stroke" d="
  M 719.50 1102.60
  Q 718.39 1102.13 719.48 1103.94
  C 724.04 1111.50 737.00 1114.41 744.65 1113.18
  Q 747.92 1112.65 744.99 1114.19
  Q 735.55 1119.15 724.44 1118.57"
/>
<path stroke="#7e412f" vector-effect="non-scaling-stroke" d="
  M 724.44 1118.57
  L 717.19 1117.01
  A 0.51 0.51 0.0 0 0 716.57 1117.53
  Q 716.85 1123.73 718.81 1129.61
  Q 718.97 1130.11 719.44 1130.36
  Q 734.31 1138.27 751.29 1133.98"
/>
<path stroke="#8c4b34" vector-effect="non-scaling-stroke" d="
  M 751.29 1133.98
  L 753.22 1133.36
  Q 754.23 1133.04 753.41 1133.71
  L 752.31 1134.61"
/>
<path stroke="#7e412f" vector-effect="non-scaling-stroke" d="
  M 752.31 1134.61
  Q 742.28 1141.85 729.36 1143.69
  A 0.42 0.42 0.0 0 0 729.16 1144.44
  C 752.82 1162.50 794.30 1163.63 822.30 1159.04"
/>
<path stroke="#916147" vector-effect="non-scaling-stroke" d="
  M 822.30 1159.04
  Q 842.80 1156.18 861.93 1149.20"
/>
<path stroke="#7e412f" vector-effect="non-scaling-stroke" d="
  M 861.93 1149.20
  Q 880.16 1143.18 897.03 1134.55
  C 913.05 1126.35 938.33 1113.88 933.43 1091.35"
/>
<path stroke="#8c4b34" vector-effect="non-scaling-stroke" d="
  M 933.43 1091.35
  Q 928.73 1076.21 913.69 1072.06
  Q 911.96 1071.58 911.71 1069.28"
/>
<path stroke="#a37352" vector-effect="non-scaling-stroke" d="
  M 911.71 1069.28
  Q 911.82 1065.46 915.50 1066.00
  Q 928.01 1067.84 936.17 1078.58"
/>
<path stroke="#916147" vector-effect="non-scaling-stroke" d="
  M 936.17 1078.58
  C 947.67 1094.11 944.09 1112.67 930.53 1125.36
  A 0.21 0.21 0.0 0 0 930.76 1125.71
  C 1110.90 1041.47 1212.92 850.26 1183.41 653.49"
/>
<path stroke="#a37352" vector-effect="non-scaling-stroke" d="
  M 1183.41 653.49
  Q 1180.00 630.86 1174.30 608.73"
/>
<path stroke="#a38375" vector-effect="non-scaling-stroke" d="
  M 1174.30 608.73
  C 1127.59 430.04 977.59 299.17 793.95 277.77
  C 781.15 276.28 764.84 278.53 753.23 284.67"
/>
<path stroke="#ffdcad" vector-effect="non-scaling-stroke" d="
  M 1174.30 608.73
  Q 1173.31 608.69 1173.26 608.16
  C 1173.03 606.07 1171.72 603.35 1171.04 601.32
  Q 1127.67 470.70 1018.96 386.81
  C 958.37 340.04 886.36 307.43 811.84 290.60
  Q 781.78 283.81 753.59 286.76"
/>
<path stroke="#daaa8a" vector-effect="non-scaling-stroke" d="
  M 753.59 286.76
  L 753.23 284.67"
/>
<path stroke="#da9a67" vector-effect="non-scaling-stroke" d="
  M 753.59 286.76
  Q 753.38 287.57 754.08 289.34"
/>
<path stroke="#c8885c" vector-effect="non-scaling-stroke" d="
  M 754.08 289.34
  Q 757.05 302.49 766.25 312.04
  C 791.79 338.60 828.72 337.21 861.81 344.76
  C 959.28 367.01 1038.21 443.14 1071.04 536.61
  Q 1090.71 592.64 1091.16 652.54"
/>
<path stroke="#edba7f" vector-effect="non-scaling-stroke" d="
  M 1183.41 653.49
  Q 1183.32 654.57 1182.48 654.77
  Q 1182.28 654.81 1182.27 655.02
  Q 1182.26 655.17 1182.29 655.30
  A 1.02 0.01 80.7 0 1 1182.43 656.23
  C 1179.05 725.79 1169.88 797.90 1144.56 863.28
  Q 1120.24 926.10 1073.80 974.80
  C 1034.19 1016.32 985.64 1049.83 936.17 1078.58"
/>
<path stroke="#e8a46c" vector-effect="non-scaling-stroke" d="
  M 911.71 1069.28
  L 853.04 1073.57"
/>
<path stroke="#edba7f" vector-effect="non-scaling-stroke" d="
  M 703.87 1116.09
  Q 643.24 1108.25 585.74 1086.62"
/>
<path stroke="#e8a46c" vector-effect="non-scaling-stroke" d="
  M 393.28 928.58
  C 351.54 835.32 350.24 724.54 400.67 634.37
  C 411.37 615.22 424.70 598.20 440.84 583.12
  Q 470.15 555.71 509.10 547.55"
/>
<path stroke="#a37352" vector-effect="non-scaling-stroke" d="
  M 509.10 547.55
  C 503.33 552.62 502.00 557.54 504.55 565.06
  Q 510.28 582.01 525.58 592.00
  Q 526.01 592.27 525.66 592.65
  Q 516.38 602.86 503.03 606.54
  C 483.56 611.93 466.48 604.19 455.85 587.57
  C 452.70 582.64 447.21 586.32 449.26 591.93
  Q 456.12 610.69 474.56 619.04
  Q 475.01 619.25 475.24 619.70
  C 496.00 662.07 549.76 669.59 582.04 635.75
  Q 582.38 635.39 582.87 635.32
  Q 608.29 631.47 624.84 612.18
  C 626.80 609.90 628.12 606.79 624.56 605.20
  A 3.56 3.54 -50.0 0 0 621.14 605.51
  C 599.29 620.33 570.38 629.43 548.46 608.79
  Q 542.26 602.95 539.63 594.02
  Q 539.49 593.56 539.95 593.42
  Q 558.75 587.93 570.29 572.07
  C 577.26 562.51 573.87 556.03 564.77 550.27"
/>
<path stroke="#e8a46c" vector-effect="non-scaling-stroke" d="
  M 564.77 550.27
  C 632.50 570.35 643.43 641.07 633.27 700.81
  Q 628.34 729.79 622.36 758.57
  C 616.33 787.57 612.47 818.53 618.32 847.69"
/>
<path stroke="#a37352" vector-effect="non-scaling-stroke" d="
  M 618.32 847.69
  C 609.90 874.75 604.88 900.80 605.58 929.20"
/>
<path stroke="#edba7f" vector-effect="non-scaling-stroke" d="
  M 605.58 929.20
  C 598.84 970.97 607.43 1012.48 635.48 1044.78
  C 666.25 1080.22 720.09 1067.74 735.76 1025.34
  C 741.44 1010.00 741.34 989.22 740.10 972.69"
/>
<path stroke="#a37352" vector-effect="non-scaling-stroke" d="
  M 740.10 972.69
  Q 741.57 960.45 740.62 948.02"
/>
<path stroke="#da9a67" vector-effect="non-scaling-stroke" d="
  M 740.62 948.02
  L 741.06 941.83"
/>
<path stroke="#edba7f" vector-effect="non-scaling-stroke" d="
  M 741.06 941.83
  Q 742.04 930.33 745.69 918.87"
/>
<path stroke="#e8a46c" vector-effect="non-scaling-stroke" d="
  M 745.69 918.87
  C 793.78 894.80 814.71 845.73 836.22 800.12"
/>
<path stroke="#edba7f" vector-effect="non-scaling-stroke" d="
  M 836.22 800.12
  Q 847.84 846.93 888.99 868.86"
/>
<path stroke="#a37352" vector-effect="non-scaling-stroke" d="
  M 888.99 868.86
  C 884.40 887.57 884.22 904.75 892.78 921.99"
/>
<path stroke="#edba7f" vector-effect="non-scaling-stroke" d="
  M 892.78 921.99
  C 887.13 954.18 905.04 992.38 943.79 984.48
  C 961.63 980.84 975.34 968.50 987.47 955.56
  Q 993.33 949.31 999.63 939.71
  C 1023.45 903.45 1040.38 858.52 1040.31 814.49"
/>
<path stroke="#e8a46c" vector-effect="non-scaling-stroke" d="
  M 1040.31 814.49
  C 1064.10 800.22 1074.03 772.95 1080.19 747.24
  Q 1089.23 709.43 1091.05 670.83"
/>
<path stroke="#edba7f" vector-effect="non-scaling-stroke" d="
  M 1109.62 682.03
  C 1110.70 613.20 1098.16 538.30 1063.73 477.72
  C 1015.73 393.27 936.20 349.49 845.07 325.16
  Q 816.28 317.48 802.43 313.59
  C 788.58 309.70 773.15 303.49 761.38 294.79
  Q 757.82 292.17 754.08 289.34"
/>
<path stroke="#c8885c" vector-effect="non-scaling-stroke" d="
  M 741.06 941.83
  L 740.34 936.97"
/>
<path stroke="#c37248" vector-effect="non-scaling-stroke" d="
  M 933.43 1091.35
  Q 925.96 1099.02 917.94 1103.94
  Q 899.08 1115.49 876.61 1124.62"
/>
<path stroke="#d69261" vector-effect="non-scaling-stroke" d="
  M 876.61 1124.62
  Q 875.80 1125.02 876.47 1124.61"
/>
<path stroke="#e8a46c" vector-effect="non-scaling-stroke" d="
  M 876.47 1124.61
  C 871.84 1116.59 862.29 1111.97 852.99 1110.00
  C 829.79 1105.09 790.94 1107.63 774.46 1127.92
  Q 770.88 1132.32 771.59 1138.38"
/>
<path stroke="#d69261" vector-effect="non-scaling-stroke" d="
  M 771.59 1138.38
  Q 771.45 1139.84 771.26 1138.92"
/>
<path stroke="#c37248" vector-effect="non-scaling-stroke" d="
  M 771.26 1138.92
  L 752.31 1134.61"
/>
<path stroke="#c37248" vector-effect="non-scaling-stroke" d="
  M 751.29 1133.98
  Q 735.51 1129.71 724.44 1118.57"
/>
<path stroke="#dfa383" vector-effect="non-scaling-stroke" d="
  M 719.50 1102.60
  C 743.81 1079.64 780.47 1080.76 811.25 1083.28
  Q 825.93 1084.47 839.26 1078.94"
/>
<path stroke="#7e412f" vector-effect="non-scaling-stroke" d="
  M 853.69 677.25
  C 819.17 734.23 845.21 804.12 908.10 824.62
  Q 908.63 824.79 908.93 824.32
  Q 919.98 806.84 934.97 793.04
  C 937.65 790.57 940.75 789.18 942.89 793.18"
/>
<path stroke="#7e412f" vector-effect="non-scaling-stroke" d="
  M 928.49 818.32
  C 912.73 841.99 896.37 872.96 900.84 902.15
  A 0.94 0.93 85.4 0 0 901.77 902.95
  Q 916.76 902.77 929.58 895.07
  A 0.18 0.18 0.0 0 1 929.82 895.34
  Q 920.07 907.92 905.27 913.90
  Q 904.77 914.10 905.02 914.57
  Q 908.95 922.22 915.45 927.84
  Q 915.83 928.17 916.34 928.15
  Q 930.03 927.58 942.28 921.50
  Q 943.20 921.05 942.56 921.85
  C 938.93 926.42 934.51 930.54 929.80 933.91
  A 0.31 0.30 29.0 0 0 929.96 934.46
  C 956.48 936.40 977.89 915.25 991.67 895.43
  C 1009.92 869.17 1022.62 836.51 1029.90 806.12"
/>
<path stroke="#9a7269" vector-effect="non-scaling-stroke" d="
  M 1034.71 761.08
  C 1033.84 748.32 1030.01 736.06 1019.48 728.26
  C 1012.16 722.83 1001.62 724.02 994.09 728.31"
/>
<path stroke="#916147" vector-effect="non-scaling-stroke" d="
  M 1039.89 814.21
  C 1031.66 847.63 1017.44 882.89 996.75 910.97
  C 972.63 943.67 919.75 970.86 892.78 921.99"
/>
<path stroke="#916147" vector-effect="non-scaling-stroke" d="
  M 888.99 868.86
  Q 893.41 853.18 901.52 837.10
  Q 901.76 836.63 901.26 836.44
  Q 863.66 821.95 842.82 786.96"
/>
<path stroke="#d69261" vector-effect="non-scaling-stroke" d="
  M 1040.31 814.49
  Q 1040.89 814.26 1039.89 814.21"
/>
<path stroke="#8c4b34" vector-effect="non-scaling-stroke" d="
  M 1039.89 814.21
  C 1046.60 786.25 1053.70 737.22 1022.68 719.41
  C 1007.64 710.77 988.72 718.38 978.82 731.04
  C 976.08 734.53 977.88 739.10 982.70 737.70
  A 1.68 1.60 -76.0 0 0 983.47 737.21
  Q 988.29 731.84 994.09 728.31"
/>
<path stroke="#dfa383" vector-effect="non-scaling-stroke" d="
  M 994.09 728.31
  C 1014.31 728.96 1027.58 742.54 1034.71 761.08"
/>
<path stroke="#8c4b34" vector-effect="non-scaling-stroke" d="
  M 1034.71 761.08
  Q 1035.86 783.23 1029.90 806.12"
/>
<path stroke="#c37248" vector-effect="non-scaling-stroke" d="
  M 1029.90 806.12
  L 1019.11 819.24"
/>
<path stroke="#e8a46c" vector-effect="non-scaling-stroke" d="
  M 1019.11 819.24
  C 1018.74 784.28 989.91 808.29 980.60 819.61
  Q 966.52 836.74 958.36 857.72"
/>
<path stroke="#c37248" vector-effect="non-scaling-stroke" d="
  M 958.36 857.72
  Q 941.02 857.11 932.08 843.86
  Q 925.43 834.03 928.49 818.32"
/>
<path stroke="#8c4b34" vector-effect="non-scaling-stroke" d="
  M 928.49 818.32
  Q 934.96 807.76 942.69 796.44
  Q 943.37 795.44 942.89 793.18"
/>
<path stroke="#c37248" vector-effect="non-scaling-stroke" d="
  M 942.89 793.18
  C 945.86 790.62 948.27 785.26 941.70 785.53
  C 906.11 786.95 870.47 758.02 860.28 724.98
  Q 853.51 703.04 853.69 677.25"
/>
<path stroke="#8c4b34" vector-effect="non-scaling-stroke" d="
  M 853.69 677.25
  Q 856.39 672.59 862.68 664.93
  C 865.86 661.06 860.92 656.67 857.88 659.89
  C 825.26 694.43 820.54 746.13 842.82 786.96"
/>
<path stroke="#d69261" vector-effect="non-scaling-stroke" d="
  M 842.82 786.96
  Q 842.29 786.89 842.06 787.31
  Q 838.79 793.40 836.22 800.12"
/>
<path stroke="#d69261" vector-effect="non-scaling-stroke" d="
  M 745.69 918.87
  L 740.72 921.09
  Q 740.28 921.29 740.25 921.77
  L 740.15 923.77"
/>
<path stroke="#8c4b34" vector-effect="non-scaling-stroke" d="
  M 740.15 923.77
  C 739.48 901.95 741.66 880.50 755.03 862.44
  C 757.20 859.50 755.95 854.74 751.75 855.87
  C 748.97 856.62 746.29 860.84 744.57 863.08"
/>
<path stroke="#c37248" vector-effect="non-scaling-stroke" d="
  M 744.57 863.08
  C 732.28 857.12 727.99 875.10 727.03 883.01
  C 723.50 912.18 720.82 941.39 713.78 970.00
  Q 712.01 977.21 708.03 986.72"
/>
<path stroke="#8c4b34" vector-effect="non-scaling-stroke" d="
  M 708.03 986.72
  L 703.95 982.50
  Q 702.66 981.17 703.15 982.95
  Q 704.23 986.85 705.88 990.81"
/>
<path stroke="#c37248" vector-effect="non-scaling-stroke" d="
  M 705.88 990.81
  Q 699.05 1005.09 684.43 1006.03"
/>
<path stroke="#8c4b34" vector-effect="non-scaling-stroke" d="
  M 684.43 1006.03
  L 678.68 998.73
  A 0.30 0.30 0.0 0 0 678.16 998.99
  L 680.32 1006.62"
/>
<path stroke="#c37248" vector-effect="non-scaling-stroke" d="
  M 680.32 1006.62
  Q 657.06 1007.22 637.16 993.25"
/>
<path stroke="#8c4b34" vector-effect="non-scaling-stroke" d="
  M 637.16 993.25
  Q 632.55 986.49 629.29 978.15"
/>
<path stroke="#dfa383" vector-effect="non-scaling-stroke" d="
  M 629.29 978.15
  C 623.44 949.61 622.75 920.30 626.57 891.56
  Q 632.78 844.91 649.94 799.17"
/>
<path stroke="#8c4b34" vector-effect="non-scaling-stroke" d="
  M 649.94 799.17
  Q 656.96 785.71 665.68 772.85
  C 668.72 768.36 663.18 765.08 660.76 768.28
  Q 633.40 804.44 618.32 847.69"
/>
<path stroke="#8c4b34" vector-effect="non-scaling-stroke" d="
  M 564.77 550.27
  Q 543.67 540.25 520.50 543.75
  Q 515.91 544.44 509.10 547.55"
/>
<path stroke="#dfa383" vector-effect="non-scaling-stroke" d="
  M 426.03 957.90
  Q 447.70 975.75 471.50 985.00
  C 510.15 1000.00 558.14 1015.65 580.06 1054.11"
/>
<path stroke="#c37248" vector-effect="non-scaling-stroke" d="
  M 546.00 1069.65
  Q 503.03 1049.60 465.15 1022.12
  C 421.36 990.34 385.44 952.45 359.34 906.42
  Q 343.90 879.19 334.26 854.70
  Q 306.67 784.60 296.31 706.25"
/>
<path stroke="#c8885c" vector-effect="non-scaling-stroke" d="
  M 720.83 1154.85
  Q 635.37 1145.15 559.81 1103.92"
/>
<path stroke="#9a7269" vector-effect="non-scaling-stroke" d="
  M 649.94 799.17
  C 622.12 850.28 604.27 922.48 629.29 978.15"
/>
<path stroke="#7e412f" vector-effect="non-scaling-stroke" d="
  M 637.16 993.25
  C 648.51 1013.19 666.24 1028.13 690.73 1021.83
  A 0.39 0.38 58.3 0 0 690.88 1021.17
  Q 683.86 1015.04 680.32 1006.62"
/>
<path stroke="#7e412f" vector-effect="non-scaling-stroke" d="
  M 684.43 1006.03
  Q 692.76 1014.11 704.48 1014.96
  Q 705.06 1015.01 705.48 1014.60
  L 714.36 1006.09
  Q 714.78 1005.68 714.43 1005.22
  Q 709.60 998.94 705.88 990.81"
/>
<path stroke="#7e412f" vector-effect="non-scaling-stroke" d="
  M 708.03 986.72
  Q 713.10 991.94 720.27 995.66
  Q 720.75 995.91 720.98 995.42
  C 726.68 983.63 728.44 969.87 728.49 957.25
  C 728.62 923.44 726.11 889.82 744.57 863.08"
/>
<path stroke="#916147" vector-effect="non-scaling-stroke" d="
  M 740.15 923.77
  L 740.34 936.97"
/>
<path stroke="#7e412f" vector-effect="non-scaling-stroke" d="
  M 740.34 936.97
  L 740.62 948.02"
/>
<path stroke="#916147" vector-effect="non-scaling-stroke" d="
  M 740.10 972.69
  C 738.54 997.75 724.74 1022.15 701.67 1032.17
  C 679.80 1041.67 654.61 1036.12 638.56 1017.94
  C 617.51 994.10 606.72 961.73 605.58 929.20"
/>
<path stroke="#c8885c" vector-effect="non-scaling-stroke" d="
  M 861.93 1149.20
  C 870.87 1143.85 880.33 1135.98 876.61 1124.62"
/>
<path stroke="#c8885c" vector-effect="non-scaling-stroke" d="
  M 822.30 1159.04
  C 805.65 1158.78 778.79 1157.59 771.26 1138.92"
/>
<path stroke="#edba7f" vector-effect="non-scaling-stroke" d="
  M 876.47 1124.61
  C 843.61 1137.71 808.37 1143.76 773.19 1139.11
  C 772.64 1139.04 772.11 1138.66 771.59 1138.38"
/>
<path stroke="#dfa383" vector-effect="non-scaling-stroke" d="
  M 1040.12 618.11
  Q 1007.12 605.72 976.75 604.22
  C 907.58 600.80 848.94 642.52 819.32 703.68
  C 814.58 713.48 810.25 725.79 805.91 736.92
  C 797.65 758.09 784.49 781.73 764.92 794.36
  Q 764.48 794.65 764.73 795.10
  Q 771.69 807.71 783.72 815.60
  Q 784.03 815.80 783.66 815.81
  C 741.18 816.72 727.74 780.79 722.26 746.24
  Q 719.13 726.52 718.07 695.75
  C 716.68 655.36 716.07 614.67 710.26 574.64
  C 695.66 474.12 611.15 388.44 503.28 412.45
  C 458.47 422.43 414.85 447.61 385.64 483.39
  Q 368.44 504.47 355.31 528.32
  C 326.24 581.11 307.61 641.02 297.19 698.85
  Q 297.11 699.29 296.67 699.41
  L 296.34 699.50"
/>
<path stroke="#da9a67" vector-effect="non-scaling-stroke" d="
  M 1019.11 819.24
  Q 1018.29 827.36 1017.42 830.84
  Q 1009.35 862.66 987.68 886.82
  C 978.58 896.96 953.96 915.10 952.41 887.14
  C 951.88 877.58 954.83 866.88 958.36 857.72"
/>
<path stroke="#8c4b34" vector-effect="non-scaling-stroke" d="
  M 316.69 455.94
  C 333.59 434.84 363.07 430.17 385.22 446.77
  A 0.54 0.53 43.1 0 0 385.90 446.75
  L 399.14 435.08
  Q 399.47 434.78 399.13 434.50
  C 370.54 410.71 330.58 422.14 316.32 455.73
  A 0.22 0.21 -14.9 0 0 316.69 455.94"
/>
<path stroke="#a35858" vector-effect="non-scaling-stroke" d="
  M 333.09 513.46
  Q 333.89 514.19 334.43 513.25
  Q 352.02 482.98 375.75 457.25
  Q 376.09 456.88 375.67 456.60
  C 351.88 440.93 320.37 457.02 320.25 485.89
  Q 320.18 501.61 333.09 513.46"
/>
<path stroke="#8c4b34" vector-effect="non-scaling-stroke" d="
  M 704.29 481.48
  C 725.88 471.72 749.75 477.86 764.26 496.29
  A 0.19 0.19 0.0 0 0 764.59 496.10
  C 752.81 467.89 724.45 455.32 695.13 466.06
  A 0.78 0.77 -26.2 0 0 694.74 467.20
  L 703.63 481.29
  A 0.53 0.52 -28.2 0 0 704.29 481.48"
/>
<path stroke="#a35858" vector-effect="non-scaling-stroke" d="
  M 749.06 499.94
  Q 732.49 484.85 710.74 493.55
  Q 710.28 493.73 710.50 494.18
  Q 725.79 525.68 733.26 559.91
  A 0.62 0.62 0.0 0 0 734.05 560.37
  C 760.86 552.34 770.36 519.33 749.06 499.94"
/>
<path stroke="#8c4b34" vector-effect="non-scaling-stroke" d="
  M 444.9990 564.6548
  A 32.30 21.66 102.9 0 0 473.3233 538.0056
  A 32.30 21.66 102.9 0 0 459.4210 501.6852
  A 32.30 21.66 102.9 0 0 431.0967 528.3344
  A 32.30 21.66 102.9 0 0 444.9990 564.6548"
/>
<path stroke="#8c4b34" vector-effect="non-scaling-stroke" d="
  M 629.1000 587.7900
  A 32.30 21.65 90.0 0 0 650.7500 555.4900
  A 32.30 21.65 90.0 0 0 629.1000 523.1900
  A 32.30 21.65 90.0 0 0 607.4500 555.4900
  A 32.30 21.65 90.0 0 0 629.1000 587.7900"
/>
<path stroke="#a38375" vector-effect="non-scaling-stroke" d="
  M 458.7162 536.4665
  A 8.33 5.58 103.0 0 0 466.0270 529.6052
  A 8.33 5.58 103.0 0 0 462.4638 520.2335
  A 8.33 5.58 103.0 0 0 455.1530 527.0948
  A 8.33 5.58 103.0 0 0 458.7162 536.4665"
/>
<path stroke="#a38375" vector-effect="non-scaling-stroke" d="
  M 622.9253 556.0800
  A 8.43 5.65 90.1 0 0 628.5900 547.6599
  A 8.43 5.65 90.1 0 0 622.9547 539.2200
  A 8.43 5.65 90.1 0 0 617.2900 547.6401
  A 8.43 5.65 90.1 0 0 622.9253 556.0800"
/>
<path stroke="#a35858" vector-effect="non-scaling-stroke" d="
  M 497.73 628.40
  C 505.06 634.98 511.05 639.12 520.06 641.50
  Q 538.35 646.33 555.37 638.51
  A 0.28 0.28 0.0 0 0 555.42 638.03
  Q 529.39 619.14 497.90 627.69
  Q 497.15 627.89 497.73 628.40"
/>
</g>
<path fill="#471a1a" d="
  M 484.93 1102.57
  C 312.84 986.59 239.79 769.00 306.66 572.22
  Q 314.51 549.12 326.25 527.92
  A 0.71 0.71 0.0 0 0 326.06 527.02
  C 306.14 511.68 296.10 487.95 300.32 463.14
  C 309.22 410.78 371.33 391.19 410.31 426.06
  Q 410.71 426.41 411.14 426.11
  C 497.35 365.88 616.43 368.57 685.55 454.96
  Q 685.89 455.38 686.37 455.15
  Q 700.79 448.26 716.28 448.42
  C 763.06 448.89 794.80 497.35 775.86 540.39
  Q 764.61 565.94 737.30 576.48
  Q 736.81 576.66 736.89 577.18
  Q 740.16 598.43 741.32 619.81
  Q 743.55 661.14 744.16 685.31
  Q 744.97 717.72 748.73 739.50
  C 750.87 751.84 753.63 762.57 760.13 771.82
  A 1.17 1.17 0.0 0 0 761.75 772.12
  Q 771.71 765.32 777.33 754.53
  C 787.01 735.94 791.83 715.21 800.54 696.14
  C 817.98 657.93 846.33 625.17 883.12 604.43
  C 928.62 578.78 985.08 575.07 1032.55 597.97
  A 0.42 0.42 0.0 0 0 1033.15 597.53
  C 1021.02 512.84 964.95 434.55 883.94 402.81
  C 848.26 388.83 808.88 382.72 774.83 366.92
  C 751.13 355.91 727.33 338.13 726.67 309.19
  C 725.80 270.56 767.24 260.50 798.13 264.43
  C 1026.00 293.39 1199.06 483.79 1202.19 715.00
  C 1204.85 911.03 1083.52 1085.86 899.69 1153.43
  C 762.33 1203.91 606.49 1184.49 484.93 1102.57
  Z
  M 753.23 284.67
  C 740.74 292.65 737.67 305.49 742.25 319.31
  C 747.15 334.10 761.05 344.95 774.50 351.53
  C 803.77 365.84 836.88 373.48 868.29 382.98
  C 969.40 413.54 1036.82 502.88 1048.04 606.62
  Q 1048.09 607.10 1048.49 607.39
  C 1065.45 619.77 1079.02 635.51 1091.16 652.54
  L 1109.62 682.03
  Q 1113.83 689.91 1118.22 698.47
  C 1121.22 704.31 1113.55 707.11 1111.52 703.47
  Q 1102.44 687.23 1091.05 670.83
  Q 1077.17 650.09 1058.94 632.56
  Q 1050.40 624.35 1040.12 618.11
  Q 1012.50 600.35 980.74 597.24
  C 899.18 589.24 834.20 644.06 806.82 717.20
  C 797.45 742.20 790.24 773.75 763.92 786.39
  C 761.30 787.65 758.02 788.16 755.77 786.47
  C 738.05 773.13 734.15 739.04 732.48 718.75
  C 730.11 689.90 729.61 660.85 728.40 631.93
  C 727.04 599.31 722.96 568.98 713.35 537.93
  C 692.76 471.43 645.90 416.13 575.17 402.15
  C 499.76 387.25 423.50 419.80 375.54 478.05
  C 352.13 506.47 332.03 540.65 319.97 575.98
  Q 299.49 635.96 296.34 699.50
  L 296.31 706.25
  Q 294.93 737.00 298.38 768.58
  C 312.32 895.96 378.79 1008.56 482.30 1083.80
  Q 484.41 1085.34 486.97 1085.93
  C 511.43 1091.67 538.02 1098.99 562.41 1087.18
  A 0.48 0.47 -30.0 0 0 562.60 1086.48
  Q 555.37 1076.04 546.00 1069.65
  Q 544.50 1067.42 542.77 1066.61
  A 0.29 0.29 0.0 0 1 542.97 1066.06
  Q 558.70 1070.44 572.15 1079.72
  A 0.78 0.78 0.0 0 0 573.18 1079.60
  L 578.57 1073.50
  Q 578.95 1073.08 578.79 1072.54
  Q 573.89 1055.95 562.90 1042.62
  A 0.27 0.27 0.0 0 1 563.26 1042.23
  L 580.06 1054.11
  L 584.26 1058.66
  A 0.29 0.29 0.0 0 0 584.76 1058.48
  C 587.18 1029.45 549.75 1009.78 527.61 1000.32
  C 491.74 984.99 458.16 975.87 426.03 957.90
  Q 406.90 946.19 393.56 931.94
  Q 392.37 930.66 393.28 928.58
  C 394.90 926.40 396.91 926.48 398.86 928.31
  C 432.76 959.94 481.49 971.43 519.24 984.76
  Q 541.97 992.79 562.66 1005.09
  C 592.33 1022.72 613.26 1055.15 585.74 1086.62
  Q 575.61 1097.74 559.81 1103.92
  Q 540.36 1109.89 518.69 1106.71
  A 0.29 0.29 0.0 0 0 518.50 1107.24
  Q 622.58 1167.14 743.26 1167.48
  A 0.24 0.24 0.0 0 0 743.34 1167.01
  Q 730.97 1162.84 720.83 1154.85
  Q 703.50 1139.31 703.87 1116.09
  Q 705.39 1092.08 722.90 1079.10
  C 748.86 1059.86 784.17 1067.12 812.97 1071.40
  C 824.54 1073.12 838.17 1073.73 849.67 1071.53
  Q 852.66 1070.96 853.04 1073.57
  Q 853.20 1075.33 852.19 1075.69
  Q 847.30 1077.40 839.26 1078.94
  Q 826.31 1079.81 817.81 1079.42
  C 789.01 1078.09 757.29 1070.04 731.82 1087.05
  Q 723.59 1092.55 719.50 1102.60
  Q 718.39 1102.13 719.48 1103.94
  C 724.04 1111.50 737.00 1114.41 744.65 1113.18
  Q 747.92 1112.65 744.99 1114.19
  Q 735.55 1119.15 724.44 1118.57
  L 717.19 1117.01
  A 0.51 0.51 0.0 0 0 716.57 1117.53
  Q 716.85 1123.73 718.81 1129.61
  Q 718.97 1130.11 719.44 1130.36
  Q 734.31 1138.27 751.29 1133.98
  L 753.22 1133.36
  Q 754.23 1133.04 753.41 1133.71
  L 752.31 1134.61
  Q 742.28 1141.85 729.36 1143.69
  A 0.42 0.42 0.0 0 0 729.16 1144.44
  C 752.82 1162.50 794.30 1163.63 822.30 1159.04
  Q 842.80 1156.18 861.93 1149.20
  Q 880.16 1143.18 897.03 1134.55
  C 913.05 1126.35 938.33 1113.88 933.43 1091.35
  Q 928.73 1076.21 913.69 1072.06
  Q 911.96 1071.58 911.71 1069.28
  Q 911.82 1065.46 915.50 1066.00
  Q 928.01 1067.84 936.17 1078.58
  C 947.67 1094.11 944.09 1112.67 930.53 1125.36
  A 0.21 0.21 0.0 0 0 930.76 1125.71
  C 1110.90 1041.47 1212.92 850.26 1183.41 653.49
  Q 1180.00 630.86 1174.30 608.73
  C 1127.59 430.04 977.59 299.17 793.95 277.77
  C 781.15 276.28 764.84 278.53 753.23 284.67
  Z
  M 316.69 455.94
  C 333.59 434.84 363.07 430.17 385.22 446.77
  A 0.54 0.53 43.1 0 0 385.90 446.75
  L 399.14 435.08
  Q 399.47 434.78 399.13 434.50
  C 370.54 410.71 330.58 422.14 316.32 455.73
  A 0.22 0.21 -14.9 0 0 316.69 455.94
  Z
  M 333.09 513.46
  Q 333.89 514.19 334.43 513.25
  Q 352.02 482.98 375.75 457.25
  Q 376.09 456.88 375.67 456.60
  C 351.88 440.93 320.37 457.02 320.25 485.89
  Q 320.18 501.61 333.09 513.46
  Z
  M 704.29 481.48
  C 725.88 471.72 749.75 477.86 764.26 496.29
  A 0.19 0.19 0.0 0 0 764.59 496.10
  C 752.81 467.89 724.45 455.32 695.13 466.06
  A 0.78 0.77 -26.2 0 0 694.74 467.20
  L 703.63 481.29
  A 0.53 0.52 -28.2 0 0 704.29 481.48
  Z
  M 749.06 499.94
  Q 732.49 484.85 710.74 493.55
  Q 710.28 493.73 710.50 494.18
  Q 725.79 525.68 733.26 559.91
  A 0.62 0.62 0.0 0 0 734.05 560.37
  C 760.86 552.34 770.36 519.33 749.06 499.94
  Z"
/>
<path fill="#ffebd0" d="
  M 1174.30 608.73
  Q 1173.31 608.69 1173.26 608.16
  C 1173.03 606.07 1171.72 603.35 1171.04 601.32
  Q 1127.67 470.70 1018.96 386.81
  C 958.37 340.04 886.36 307.43 811.84 290.60
  Q 781.78 283.81 753.59 286.76
  L 753.23 284.67
  C 764.84 278.53 781.15 276.28 793.95 277.77
  C 977.59 299.17 1127.59 430.04 1174.30 608.73
  Z"
/>
<path fill="#b56843" d="
  M 753.23 284.67
  L 753.59 286.76
  Q 753.38 287.57 754.08 289.34
  Q 757.05 302.49 766.25 312.04
  C 791.79 338.60 828.72 337.21 861.81 344.76
  C 959.28 367.01 1038.21 443.14 1071.04 536.61
  Q 1090.71 592.64 1091.16 652.54
  C 1079.02 635.51 1065.45 619.77 1048.49 607.39
  Q 1048.09 607.10 1048.04 606.62
  C 1036.82 502.88 969.40 413.54 868.29 382.98
  C 836.88 373.48 803.77 365.84 774.50 351.53
  C 761.05 344.95 747.15 334.10 742.25 319.31
  C 737.67 305.49 740.74 292.65 753.23 284.67
  Z"
/>
<path fill="#ffcc8a" d="
  M 1174.30 608.73
  Q 1180.00 630.86 1183.41 653.49
  Q 1183.32 654.57 1182.48 654.77
  Q 1182.28 654.81 1182.27 655.02
  Q 1182.26 655.17 1182.29 655.30
  A 1.02 0.01 80.7 0 1 1182.43 656.23
  C 1179.05 725.79 1169.88 797.90 1144.56 863.28
  Q 1120.24 926.10 1073.80 974.80
  C 1034.19 1016.32 985.64 1049.83 936.17 1078.58
  Q 928.01 1067.84 915.50 1066.00
  Q 911.82 1065.46 911.71 1069.28
  L 853.04 1073.57
  Q 852.66 1070.96 849.67 1071.53
  C 838.17 1073.73 824.54 1073.12 812.97 1071.40
  C 784.17 1067.12 748.86 1059.86 722.90 1079.10
  Q 705.39 1092.08 703.87 1116.09
  Q 643.24 1108.25 585.74 1086.62
  C 613.26 1055.15 592.33 1022.72 562.66 1005.09
  Q 541.97 992.79 519.24 984.76
  C 481.49 971.43 432.76 959.94 398.86 928.31
  C 396.91 926.48 394.90 926.40 393.28 928.58
  C 351.54 835.32 350.24 724.54 400.67 634.37
  C 411.37 615.22 424.70 598.20 440.84 583.12
  Q 470.15 555.71 509.10 547.55
  C 503.33 552.62 502.00 557.54 504.55 565.06
  Q 510.28 582.01 525.58 592.00
  Q 526.01 592.27 525.66 592.65
  Q 516.38 602.86 503.03 606.54
  C 483.56 611.93 466.48 604.19 455.85 587.57
  C 452.70 582.64 447.21 586.32 449.26 591.93
  Q 456.12 610.69 474.56 619.04
  Q 475.01 619.25 475.24 619.70
  C 496.00 662.07 549.76 669.59 582.04 635.75
  Q 582.38 635.39 582.87 635.32
  Q 608.29 631.47 624.84 612.18
  C 626.80 609.90 628.12 606.79 624.56 605.20
  A 3.56 3.54 -50.0 0 0 621.14 605.51
  C 599.29 620.33 570.38 629.43 548.46 608.79
  Q 542.26 602.95 539.63 594.02
  Q 539.49 593.56 539.95 593.42
  Q 558.75 587.93 570.29 572.07
  C 577.26 562.51 573.87 556.03 564.77 550.27
  C 632.50 570.35 643.43 641.07 633.27 700.81
  Q 628.34 729.79 622.36 758.57
  C 616.33 787.57 612.47 818.53 618.32 847.69
  C 609.90 874.75 604.88 900.80 605.58 929.20
  C 598.84 970.97 607.43 1012.48 635.48 1044.78
  C 666.25 1080.22 720.09 1067.74 735.76 1025.34
  C 741.44 1010.00 741.34 989.22 740.10 972.69
  Q 741.57 960.45 740.62 948.02
  L 741.06 941.83
  Q 742.04 930.33 745.69 918.87
  C 793.78 894.80 814.71 845.73 836.22 800.12
  Q 847.84 846.93 888.99 868.86
  C 884.40 887.57 884.22 904.75 892.78 921.99
  C 887.13 954.18 905.04 992.38 943.79 984.48
  C 961.63 980.84 975.34 968.50 987.47 955.56
  Q 993.33 949.31 999.63 939.71
  C 1023.45 903.45 1040.38 858.52 1040.31 814.49
  C 1064.10 800.22 1074.03 772.95 1080.19 747.24
  Q 1089.23 709.43 1091.05 670.83
  Q 1102.44 687.23 1111.52 703.47
  C 1113.55 707.11 1121.22 704.31 1118.22 698.47
  Q 1113.83 689.91 1109.62 682.03
  C 1110.70 613.20 1098.16 538.30 1063.73 477.72
  C 1015.73 393.27 936.20 349.49 845.07 325.16
  Q 816.28 317.48 802.43 313.59
  C 788.58 309.70 773.15 303.49 761.38 294.79
  Q 757.82 292.17 754.08 289.34
  Q 753.38 287.57 753.59 286.76
  Q 781.78 283.81 811.84 290.60
  C 886.36 307.43 958.37 340.04 1018.96 386.81
  Q 1127.67 470.70 1171.04 601.32
  C 1171.72 603.35 1173.03 606.07 1173.26 608.16
  Q 1173.31 608.69 1174.30 608.73
  Z"
/>
<path fill="#daa874" d="
  M 754.08 289.34
  Q 757.82 292.17 761.38 294.79
  C 773.15 303.49 788.58 309.70 802.43 313.59
  Q 816.28 317.48 845.07 325.16
  C 936.20 349.49 1015.73 393.27 1063.73 477.72
  C 1098.16 538.30 1110.70 613.20 1109.62 682.03
  L 1091.16 652.54
  Q 1090.71 592.64 1071.04 536.61
  C 1038.21 443.14 959.28 367.01 861.81 344.76
  C 828.72 337.21 791.79 338.60 766.25 312.04
  Q 757.05 302.49 754.08 289.34
  Z"
/>
<path fill="#edcab8" d="
  M 1040.12 618.11
  Q 1007.12 605.72 976.75 604.22
  C 907.58 600.80 848.94 642.52 819.32 703.68
  C 814.58 713.48 810.25 725.79 805.91 736.92
  C 797.65 758.09 784.49 781.73 764.92 794.36
  Q 764.48 794.65 764.73 795.10
  Q 771.69 807.71 783.72 815.60
  Q 784.03 815.80 783.66 815.81
  C 741.18 816.72 727.74 780.79 722.26 746.24
  Q 719.13 726.52 718.07 695.75
  C 716.68 655.36 716.07 614.67 710.26 574.64
  C 695.66 474.12 611.15 388.44 503.28 412.45
  C 458.47 422.43 414.85 447.61 385.64 483.39
  Q 368.44 504.47 355.31 528.32
  C 326.24 581.11 307.61 641.02 297.19 698.85
  Q 297.11 699.29 296.67 699.41
  L 296.34 699.50
  Q 299.49 635.96 319.97 575.98
  C 332.03 540.65 352.13 506.47 375.54 478.05
  C 423.50 419.80 499.76 387.25 575.17 402.15
  C 645.90 416.13 692.76 471.43 713.35 537.93
  C 722.96 568.98 727.04 599.31 728.40 631.93
  C 729.61 660.85 730.11 689.90 732.48 718.75
  C 734.15 739.04 738.05 773.13 755.77 786.47
  C 758.02 788.16 761.30 787.65 763.92 786.39
  C 790.24 773.75 797.45 742.20 806.82 717.20
  C 834.20 644.06 899.18 589.24 980.74 597.24
  Q 1012.50 600.35 1040.12 618.11
  Z"
/>
<path fill="#d17b4d" d="
  M 1040.12 618.11
  Q 1050.40 624.35 1058.94 632.56
  Q 1077.17 650.09 1091.05 670.83
  Q 1089.23 709.43 1080.19 747.24
  C 1074.03 772.95 1064.10 800.22 1040.31 814.49
  Q 1040.89 814.26 1039.89 814.21
  C 1046.60 786.25 1053.70 737.22 1022.68 719.41
  C 1007.64 710.77 988.72 718.38 978.82 731.04
  C 976.08 734.53 977.88 739.10 982.70 737.70
  A 1.68 1.60 -76.0 0 0 983.47 737.21
  Q 988.29 731.84 994.09 728.31
  C 1014.31 728.96 1027.58 742.54 1034.71 761.08
  Q 1035.86 783.23 1029.90 806.12
  L 1019.11 819.24
  C 1018.74 784.28 989.91 808.29 980.60 819.61
  Q 966.52 836.74 958.36 857.72
  Q 941.02 857.11 932.08 843.86
  Q 925.43 834.03 928.49 818.32
  Q 934.96 807.76 942.69 796.44
  Q 943.37 795.44 942.89 793.18
  C 945.86 790.62 948.27 785.26 941.70 785.53
  C 906.11 786.95 870.47 758.02 860.28 724.98
  Q 853.51 703.04 853.69 677.25
  Q 856.39 672.59 862.68 664.93
  C 865.86 661.06 860.92 656.67 857.88 659.89
  C 825.26 694.43 820.54 746.13 842.82 786.96
  Q 842.29 786.89 842.06 787.31
  Q 838.79 793.40 836.22 800.12
  C 814.71 845.73 793.78 894.80 745.69 918.87
  L 740.72 921.09
  Q 740.28 921.29 740.25 921.77
  L 740.15 923.77
  C 739.48 901.95 741.66 880.50 755.03 862.44
  C 757.20 859.50 755.95 854.74 751.75 855.87
  C 748.97 856.62 746.29 860.84 744.57 863.08
  C 732.28 857.12 727.99 875.10 727.03 883.01
  C 723.50 912.18 720.82 941.39 713.78 970.00
  Q 712.01 977.21 708.03 986.72
  L 703.95 982.50
  Q 702.66 981.17 703.15 982.95
  Q 704.23 986.85 705.88 990.81
  Q 699.05 1005.09 684.43 1006.03
  L 678.68 998.73
  A 0.30 0.30 0.0 0 0 678.16 998.99
  L 680.32 1006.62
  Q 657.06 1007.22 637.16 993.25
  Q 632.55 986.49 629.29 978.15
  C 623.44 949.61 622.75 920.30 626.57 891.56
  Q 632.78 844.91 649.94 799.17
  Q 656.96 785.71 665.68 772.85
  C 668.72 768.36 663.18 765.08 660.76 768.28
  Q 633.40 804.44 618.32 847.69
  C 612.47 818.53 616.33 787.57 622.36 758.57
  Q 628.34 729.79 633.27 700.81
  C 643.43 641.07 632.50 570.35 564.77 550.27
  Q 543.67 540.25 520.50 543.75
  Q 515.91 544.44 509.10 547.55
  Q 470.15 555.71 440.84 583.12
  C 424.70 598.20 411.37 615.22 400.67 634.37
  C 350.24 724.54 351.54 835.32 393.28 928.58
  Q 392.37 930.66 393.56 931.94
  Q 406.90 946.19 426.03 957.90
  Q 447.70 975.75 471.50 985.00
  C 510.15 1000.00 558.14 1015.65 580.06 1054.11
  L 563.26 1042.23
  A 0.27 0.27 0.0 0 0 562.90 1042.62
  Q 573.89 1055.95 578.79 1072.54
  Q 578.95 1073.08 578.57 1073.50
  L 573.18 1079.60
  A 0.78 0.78 0.0 0 1 572.15 1079.72
  Q 558.70 1070.44 542.97 1066.06
  A 0.29 0.29 0.0 0 0 542.77 1066.61
  Q 544.50 1067.42 546.00 1069.65
  Q 503.03 1049.60 465.15 1022.12
  C 421.36 990.34 385.44 952.45 359.34 906.42
  Q 343.90 879.19 334.26 854.70
  Q 306.67 784.60 296.31 706.25
  L 296.34 699.50
  L 296.67 699.41
  Q 297.11 699.29 297.19 698.85
  C 307.61 641.02 326.24 581.11 355.31 528.32
  Q 368.44 504.47 385.64 483.39
  C 414.85 447.61 458.47 422.43 503.28 412.45
  C 611.15 388.44 695.66 474.12 710.26 574.64
  C 716.07 614.67 716.68 655.36 718.07 695.75
  Q 719.13 726.52 722.26 746.24
  C 727.74 780.79 741.18 816.72 783.66 815.81
  Q 784.03 815.80 783.72 815.60
  Q 771.69 807.71 764.73 795.10
  Q 764.48 794.65 764.92 794.36
  C 784.49 781.73 797.65 758.09 805.91 736.92
  C 810.25 725.79 814.58 713.48 819.32 703.68
  C 848.94 642.52 907.58 600.80 976.75 604.22
  Q 1007.12 605.72 1040.12 618.11
  Z
  M 444.9990 564.6548
  A 32.30 21.66 102.9 0 0 473.3233 538.0056
  A 32.30 21.66 102.9 0 0 459.4210 501.6852
  A 32.30 21.66 102.9 0 0 431.0967 528.3344
  A 32.30 21.66 102.9 0 0 444.9990 564.6548
  Z
  M 629.1000 587.7900
  A 32.30 21.65 90.0 0 0 650.7500 555.4900
  A 32.30 21.65 90.0 0 0 629.1000 523.1900
  A 32.30 21.65 90.0 0 0 607.4500 555.4900
  A 32.30 21.65 90.0 0 0 629.1000 587.7900
  Z"
/>
<path fill="#d17b4d" d="
  M 385.22 446.77
  C 363.07 430.17 333.59 434.84 316.69 455.94
  A 0.22 0.21 -14.9 0 1 316.32 455.73
  C 330.58 422.14 370.54 410.71 399.13 434.50
  Q 399.47 434.78 399.14 435.08
  L 385.90 446.75
  A 0.54 0.53 43.1 0 1 385.22 446.77
  Z"
/>
<path fill="#ff9696" d="
  M 333.09 513.46
  Q 320.18 501.61 320.25 485.89
  C 320.37 457.02 351.88 440.93 375.67 456.60
  Q 376.09 456.88 375.75 457.25
  Q 352.02 482.98 334.43 513.25
  Q 333.89 514.19 333.09 513.46
  Z"
/>
<path fill="#d17b4d" d="
  M 764.26 496.29
  C 749.75 477.86 725.88 471.72 704.29 481.48
  A 0.53 0.52 -28.2 0 1 703.63 481.29
  L 694.74 467.20
  A 0.78 0.77 -26.2 0 1 695.13 466.06
  C 724.45 455.32 752.81 467.89 764.59 496.10
  A 0.19 0.19 0.0 0 1 764.26 496.29
  Z"
/>
<path fill="#ff9696" d="
  M 749.06 499.94
  C 770.36 519.33 760.86 552.34 734.05 560.37
  A 0.62 0.62 0.0 0 1 733.26 559.91
  Q 725.79 525.68 710.50 494.18
  Q 710.28 493.73 710.74 493.55
  Q 732.49 484.85 749.06 499.94
  Z"
/>
<path fill="#471a1a" d="
  M 444.9990 564.6548
  A 32.30 21.66 102.9 0 1 431.0967 528.3344
  A 32.30 21.66 102.9 0 1 459.4210 501.6852
  A 32.30 21.66 102.9 0 1 473.3233 538.0056
  A 32.30 21.66 102.9 0 1 444.9990 564.6548
  Z
  M 458.7162 536.4665
  A 8.33 5.58 103.0 0 0 466.0270 529.6052
  A 8.33 5.58 103.0 0 0 462.4638 520.2335
  A 8.33 5.58 103.0 0 0 455.1530 527.0948
  A 8.33 5.58 103.0 0 0 458.7162 536.4665
  Z"
/>
<ellipse fill="#ffebd0" cx="0.00" cy="0.00" transform="translate(460.59,528.35) rotate(103.0)" rx="8.33" ry="5.58"/>
<path fill="#471a1a" d="
  M 629.1000 587.7900
  A 32.30 21.65 90.0 0 1 607.4500 555.4900
  A 32.30 21.65 90.0 0 1 629.1000 523.1900
  A 32.30 21.65 90.0 0 1 650.7500 555.4900
  A 32.30 21.65 90.0 0 1 629.1000 587.7900
  Z
  M 622.9253 556.0800
  A 8.43 5.65 90.1 0 0 628.5900 547.6599
  A 8.43 5.65 90.1 0 0 622.9547 539.2200
  A 8.43 5.65 90.1 0 0 617.2900 547.6401
  A 8.43 5.65 90.1 0 0 622.9253 556.0800
  Z"
/>
<ellipse fill="#ffebd0" cx="0.00" cy="0.00" transform="translate(622.94,547.65) rotate(90.1)" rx="8.43" ry="5.65"/>
<path fill="#471a1a" d="
  M 564.77 550.27
  C 573.87 556.03 577.26 562.51 570.29 572.07
  Q 558.75 587.93 539.95 593.42
  Q 539.49 593.56 539.63 594.02
  Q 542.26 602.95 548.46 608.79
  C 570.38 629.43 599.29 620.33 621.14 605.51
  A 3.56 3.54 -50.0 0 1 624.56 605.20
  C 628.12 606.79 626.80 609.90 624.84 612.18
  Q 608.29 631.47 582.87 635.32
  Q 582.38 635.39 582.04 635.75
  C 549.76 669.59 496.00 662.07 475.24 619.70
  Q 475.01 619.25 474.56 619.04
  Q 456.12 610.69 449.26 591.93
  C 447.21 586.32 452.70 582.64 455.85 587.57
  C 466.48 604.19 483.56 611.93 503.03 606.54
  Q 516.38 602.86 525.66 592.65
  Q 526.01 592.27 525.58 592.00
  Q 510.28 582.01 504.55 565.06
  C 502.00 557.54 503.33 552.62 509.10 547.55
  Q 515.91 544.44 520.50 543.75
  Q 543.67 540.25 564.77 550.27
  Z
  M 497.73 628.40
  C 505.06 634.98 511.05 639.12 520.06 641.50
  Q 538.35 646.33 555.37 638.51
  A 0.28 0.28 0.0 0 0 555.42 638.03
  Q 529.39 619.14 497.90 627.69
  Q 497.15 627.89 497.73 628.40
  Z"
/>
<path fill="#ff9696" d="
  M 520.06 641.50
  C 511.05 639.12 505.06 634.98 497.73 628.40
  Q 497.15 627.89 497.90 627.69
  Q 529.39 619.14 555.42 638.03
  A 0.28 0.28 0.0 0 1 555.37 638.51
  Q 538.35 646.33 520.06 641.50
  Z"
/>
<path fill="#daa874" d="
  M 1183.41 653.49
  C 1212.92 850.26 1110.90 1041.47 930.76 1125.71
  A 0.21 0.21 0.0 0 1 930.53 1125.36
  C 944.09 1112.67 947.67 1094.11 936.17 1078.58
  C 985.64 1049.83 1034.19 1016.32 1073.80 974.80
  Q 1120.24 926.10 1144.56 863.28
  C 1169.88 797.90 1179.05 725.79 1182.43 656.23
  A 1.02 0.01 80.7 0 0 1182.29 655.30
  Q 1182.26 655.17 1182.27 655.02
  Q 1182.28 654.81 1182.48 654.77
  Q 1183.32 654.57 1183.41 653.49
  Z"
/>
<path fill="#471a1a" d="
  M 853.69 677.25
  C 819.17 734.23 845.21 804.12 908.10 824.62
  Q 908.63 824.79 908.93 824.32
  Q 919.98 806.84 934.97 793.04
  C 937.65 790.57 940.75 789.18 942.89 793.18
  Q 943.37 795.44 942.69 796.44
  Q 934.96 807.76 928.49 818.32
  C 912.73 841.99 896.37 872.96 900.84 902.15
  A 0.94 0.93 85.4 0 0 901.77 902.95
  Q 916.76 902.77 929.58 895.07
  A 0.18 0.18 0.0 0 1 929.82 895.34
  Q 920.07 907.92 905.27 913.90
  Q 904.77 914.10 905.02 914.57
  Q 908.95 922.22 915.45 927.84
  Q 915.83 928.17 916.34 928.15
  Q 930.03 927.58 942.28 921.50
  Q 943.20 921.05 942.56 921.85
  C 938.93 926.42 934.51 930.54 929.80 933.91
  A 0.31 0.30 29.0 0 0 929.96 934.46
  C 956.48 936.40 977.89 915.25 991.67 895.43
  C 1009.92 869.17 1022.62 836.51 1029.90 806.12
  Q 1035.86 783.23 1034.71 761.08
  C 1033.84 748.32 1030.01 736.06 1019.48 728.26
  C 1012.16 722.83 1001.62 724.02 994.09 728.31
  Q 988.29 731.84 983.47 737.21
  A 1.68 1.60 -76.0 0 1 982.70 737.70
  C 977.88 739.10 976.08 734.53 978.82 731.04
  C 988.72 718.38 1007.64 710.77 1022.68 719.41
  C 1053.70 737.22 1046.60 786.25 1039.89 814.21
  C 1031.66 847.63 1017.44 882.89 996.75 910.97
  C 972.63 943.67 919.75 970.86 892.78 921.99
  C 884.22 904.75 884.40 887.57 888.99 868.86
  Q 893.41 853.18 901.52 837.10
  Q 901.76 836.63 901.26 836.44
  Q 863.66 821.95 842.82 786.96
  C 820.54 746.13 825.26 694.43 857.88 659.89
  C 860.92 656.67 865.86 661.06 862.68 664.93
  Q 856.39 672.59 853.69 677.25
  Z"
/>
<path fill="#b56843" d="
  M 853.69 677.25
  Q 853.51 703.04 860.28 724.98
  C 870.47 758.02 906.11 786.95 941.70 785.53
  C 948.27 785.26 945.86 790.62 942.89 793.18
  C 940.75 789.18 937.65 790.57 934.97 793.04
  Q 919.98 806.84 908.93 824.32
  Q 908.63 824.79 908.10 824.62
  C 845.21 804.12 819.17 734.23 853.69 677.25
  Z"
/>
<path fill="#b56843" d="
  M 296.31 706.25
  Q 306.67 784.60 334.26 854.70
  Q 343.90 879.19 359.34 906.42
  C 385.44 952.45 421.36 990.34 465.15 1022.12
  Q 503.03 1049.60 546.00 1069.65
  Q 555.37 1076.04 562.60 1086.48
  A 0.48 0.47 -30.0 0 1 562.41 1087.18
  C 538.02 1098.99 511.43 1091.67 486.97 1085.93
  Q 484.41 1085.34 482.30 1083.80
  C 378.79 1008.56 312.32 895.96 298.38 768.58
  Q 294.93 737.00 296.31 706.25
  Z"
/>
<path fill="#edcab8" d="
  M 1034.71 761.08
  C 1027.58 742.54 1014.31 728.96 994.09 728.31
  C 1001.62 724.02 1012.16 722.83 1019.48 728.26
  C 1030.01 736.06 1033.84 748.32 1034.71 761.08
  Z"
/>
<path fill="#471a1a" d="
  M 649.94 799.17
  C 622.12 850.28 604.27 922.48 629.29 978.15
  Q 632.55 986.49 637.16 993.25
  C 648.51 1013.19 666.24 1028.13 690.73 1021.83
  A 0.39 0.38 58.3 0 0 690.88 1021.17
  Q 683.86 1015.04 680.32 1006.62
  L 678.16 998.99
  A 0.30 0.30 0.0 0 1 678.68 998.73
  L 684.43 1006.03
  Q 692.76 1014.11 704.48 1014.96
  Q 705.06 1015.01 705.48 1014.60
  L 714.36 1006.09
  Q 714.78 1005.68 714.43 1005.22
  Q 709.60 998.94 705.88 990.81
  Q 704.23 986.85 703.15 982.95
  Q 702.66 981.17 703.95 982.50
  L 708.03 986.72
  Q 713.10 991.94 720.27 995.66
  Q 720.75 995.91 720.98 995.42
  C 726.68 983.63 728.44 969.87 728.49 957.25
  C 728.62 923.44 726.11 889.82 744.57 863.08
  C 746.29 860.84 748.97 856.62 751.75 855.87
  C 755.95 854.74 757.20 859.50 755.03 862.44
  C 741.66 880.50 739.48 901.95 740.15 923.77
  L 740.34 936.97
  L 740.62 948.02
  Q 741.57 960.45 740.10 972.69
  C 738.54 997.75 724.74 1022.15 701.67 1032.17
  C 679.80 1041.67 654.61 1036.12 638.56 1017.94
  C 617.51 994.10 606.72 961.73 605.58 929.20
  C 604.88 900.80 609.90 874.75 618.32 847.69
  Q 633.40 804.44 660.76 768.28
  C 663.18 765.08 668.72 768.36 665.68 772.85
  Q 656.96 785.71 649.94 799.17
  Z"
/>
<path fill="#daa874" d="
  M 842.82 786.96
  Q 863.66 821.95 901.26 836.44
  Q 901.76 836.63 901.52 837.10
  Q 893.41 853.18 888.99 868.86
  Q 847.84 846.93 836.22 800.12
  Q 838.79 793.40 842.06 787.31
  Q 842.29 786.89 842.82 786.96
  Z"
/>
<path fill="#edcab8" d="
  M 649.94 799.17
  Q 632.78 844.91 626.57 891.56
  C 622.75 920.30 623.44 949.61 629.29 978.15
  C 604.27 922.48 622.12 850.28 649.94 799.17
  Z"
/>
<path fill="#ffcc8a" d="
  M 1019.11 819.24
  Q 1018.29 827.36 1017.42 830.84
  Q 1009.35 862.66 987.68 886.82
  C 978.58 896.96 953.96 915.10 952.41 887.14
  C 951.88 877.58 954.83 866.88 958.36 857.72
  Q 966.52 836.74 980.60 819.61
  C 989.91 808.29 1018.74 784.28 1019.11 819.24
  Z"
/>
<path fill="#b56843" d="
  M 1029.90 806.12
  C 1022.62 836.51 1009.92 869.17 991.67 895.43
  C 977.89 915.25 956.48 936.40 929.96 934.46
  A 0.31 0.30 29.0 0 1 929.80 933.91
  C 934.51 930.54 938.93 926.42 942.56 921.85
  Q 943.20 921.05 942.28 921.50
  Q 930.03 927.58 916.34 928.15
  Q 915.83 928.17 915.45 927.84
  Q 908.95 922.22 905.02 914.57
  Q 904.77 914.10 905.27 913.90
  Q 920.07 907.92 929.82 895.34
  A 0.18 0.18 0.0 0 0 929.58 895.07
  Q 916.76 902.77 901.77 902.95
  A 0.94 0.93 85.4 0 1 900.84 902.15
  C 896.37 872.96 912.73 841.99 928.49 818.32
  Q 925.43 834.03 932.08 843.86
  Q 941.02 857.11 958.36 857.72
  C 954.83 866.88 951.88 877.58 952.41 887.14
  C 953.96 915.10 978.58 896.96 987.68 886.82
  Q 1009.35 862.66 1017.42 830.84
  Q 1018.29 827.36 1019.11 819.24
  L 1029.90 806.12
  Z"
/>
<path fill="#daa874" d="
  M 1039.89 814.21
  Q 1040.89 814.26 1040.31 814.49
  C 1040.38 858.52 1023.45 903.45 999.63 939.71
  Q 993.33 949.31 987.47 955.56
  C 975.34 968.50 961.63 980.84 943.79 984.48
  C 905.04 992.38 887.13 954.18 892.78 921.99
  C 919.75 970.86 972.63 943.67 996.75 910.97
  C 1017.44 882.89 1031.66 847.63 1039.89 814.21
  Z"
/>
<path fill="#b56843" d="
  M 744.57 863.08
  C 726.11 889.82 728.62 923.44 728.49 957.25
  C 728.44 969.87 726.68 983.63 720.98 995.42
  Q 720.75 995.91 720.27 995.66
  Q 713.10 991.94 708.03 986.72
  Q 712.01 977.21 713.78 970.00
  C 720.82 941.39 723.50 912.18 727.03 883.01
  C 727.99 875.10 732.28 857.12 744.57 863.08
  Z"
/>
<path fill="#daa874" d="
  M 745.69 918.87
  Q 742.04 930.33 741.06 941.83
  L 740.34 936.97
  L 740.15 923.77
  L 740.25 921.77
  Q 740.28 921.29 740.72 921.09
  L 745.69 918.87
  Z"
/>
<path fill="#daa874" d="
  M 605.58 929.20
  C 606.72 961.73 617.51 994.10 638.56 1017.94
  C 654.61 1036.12 679.80 1041.67 701.67 1032.17
  C 724.74 1022.15 738.54 997.75 740.10 972.69
  C 741.34 989.22 741.44 1010.00 735.76 1025.34
  C 720.09 1067.74 666.25 1080.22 635.48 1044.78
  C 607.43 1012.48 598.84 970.97 605.58 929.20
  Z"
/>
<path fill="#b56843" d="
  M 740.34 936.97
  L 741.06 941.83
  L 740.62 948.02
  L 740.34 936.97
  Z"
/>
<path fill="#edcab8" d="
  M 426.03 957.90
  C 458.16 975.87 491.74 984.99 527.61 1000.32
  C 549.75 1009.78 587.18 1029.45 584.76 1058.48
  A 0.29 0.29 0.0 0 1 584.26 1058.66
  L 580.06 1054.11
  C 558.14 1015.65 510.15 1000.00 471.50 985.00
  Q 447.70 975.75 426.03 957.90
  Z"
/>
<path fill="#b56843" d="
  M 705.88 990.81
  Q 709.60 998.94 714.43 1005.22
  Q 714.78 1005.68 714.36 1006.09
  L 705.48 1014.60
  Q 705.06 1015.01 704.48 1014.96
  Q 692.76 1014.11 684.43 1006.03
  Q 699.05 1005.09 705.88 990.81
  Z"
/>
<path fill="#b56843" d="
  M 637.16 993.25
  Q 657.06 1007.22 680.32 1006.62
  Q 683.86 1015.04 690.88 1021.17
  A 0.39 0.38 58.3 0 1 690.73 1021.83
  C 666.24 1028.13 648.51 1013.19 637.16 993.25
  Z"
/>
<path fill="#d17b4d" d="
  M 911.71 1069.28
  Q 911.96 1071.58 913.69 1072.06
  Q 928.73 1076.21 933.43 1091.35
  Q 925.96 1099.02 917.94 1103.94
  Q 899.08 1115.49 876.61 1124.62
  Q 875.80 1125.02 876.47 1124.61
  C 871.84 1116.59 862.29 1111.97 852.99 1110.00
  C 829.79 1105.09 790.94 1107.63 774.46 1127.92
  Q 770.88 1132.32 771.59 1138.38
  Q 771.45 1139.84 771.26 1138.92
  L 752.31 1134.61
  L 753.41 1133.71
  Q 754.23 1133.04 753.22 1133.36
  L 751.29 1133.98
  Q 735.51 1129.71 724.44 1118.57
  Q 735.55 1119.15 744.99 1114.19
  Q 747.92 1112.65 744.65 1113.18
  C 737.00 1114.41 724.04 1111.50 719.48 1103.94
  Q 718.39 1102.13 719.50 1102.60
  C 743.81 1079.64 780.47 1080.76 811.25 1083.28
  Q 825.93 1084.47 839.26 1078.94
  Q 847.30 1077.40 852.19 1075.69
  Q 853.20 1075.33 853.04 1073.57
  L 911.71 1069.28
  Z"
/>
<path fill="#edcab8" d="
  M 839.26 1078.94
  Q 825.93 1084.47 811.25 1083.28
  C 780.47 1080.76 743.81 1079.64 719.50 1102.60
  Q 723.59 1092.55 731.82 1087.05
  C 757.29 1070.04 789.01 1078.09 817.81 1079.42
  Q 826.31 1079.81 839.26 1078.94
  Z"
/>
<path fill="#daa874" d="
  M 585.74 1086.62
  Q 643.24 1108.25 703.87 1116.09
  Q 703.50 1139.31 720.83 1154.85
  Q 635.37 1145.15 559.81 1103.92
  Q 575.61 1097.74 585.74 1086.62
  Z"
/>
<path fill="#b56843" d="
  M 933.43 1091.35
  C 938.33 1113.88 913.05 1126.35 897.03 1134.55
  Q 880.16 1143.18 861.93 1149.20
  C 870.87 1143.85 880.33 1135.98 876.61 1124.62
  Q 899.08 1115.49 917.94 1103.94
  Q 925.96 1099.02 933.43 1091.35
  Z"
/>
<path fill="#b56843" d="
  M 559.81 1103.92
  Q 635.37 1145.15 720.83 1154.85
  Q 730.97 1162.84 743.34 1167.01
  A 0.24 0.24 0.0 0 1 743.26 1167.48
  Q 622.58 1167.14 518.50 1107.24
  A 0.29 0.29 0.0 0 1 518.69 1106.71
  Q 540.36 1109.89 559.81 1103.92
  Z"
/>
<path fill="#ffcc8a" d="
  M 876.47 1124.61
  C 843.61 1137.71 808.37 1143.76 773.19 1139.11
  C 772.64 1139.04 772.11 1138.66 771.59 1138.38
  Q 770.88 1132.32 774.46 1127.92
  C 790.94 1107.63 829.79 1105.09 852.99 1110.00
  C 862.29 1111.97 871.84 1116.59 876.47 1124.61
  Z"
/>
<path fill="#b56843" d="
  M 724.44 1118.57
  Q 735.51 1129.71 751.29 1133.98
  Q 734.31 1138.27 719.44 1130.36
  Q 718.97 1130.11 718.81 1129.61
  Q 716.85 1123.73 716.57 1117.53
  A 0.51 0.51 0.0 0 1 717.19 1117.01
  L 724.44 1118.57
  Z"
/>
<path fill="#daa874" d="
  M 876.47 1124.61
  Q 875.80 1125.02 876.61 1124.62
  C 880.33 1135.98 870.87 1143.85 861.93 1149.20
  Q 842.80 1156.18 822.30 1159.04
  C 805.65 1158.78 778.79 1157.59 771.26 1138.92
  Q 771.45 1139.84 771.59 1138.38
  C 772.11 1138.66 772.64 1139.04 773.19 1139.11
  C 808.37 1143.76 843.61 1137.71 876.47 1124.61
  Z"
/>
<path fill="#b56843" d="
  M 752.31 1134.61
  L 771.26 1138.92
  C 778.79 1157.59 805.65 1158.78 822.30 1159.04
  C 794.30 1163.63 752.82 1162.50 729.16 1144.44
  A 0.42 0.42 0.0 0 1 729.36 1143.69
  Q 742.28 1141.85 752.31 1134.61
  Z"
/>
</svg>
