<?xml version="1.0" encoding="utf-8"?>
<!-- Generator: Adobe Illustrator 25.2.3, SVG Export Plug-In . SVG Version: 6.00 Build 0)  -->
<svg version="1.1" id="Ottery-Logo" xmlns="http://www.w3.org/2000/svg" xmlns:xlink="http://www.w3.org/1999/xlink" x="0px"
	 y="0px" viewBox="0 0 546.3 227.5" style="enable-background:new 0 0 546.3 227.5;" xml:space="preserve">
<style type="text/css">
	.st0{font-family:'ArialRoundedMTBold';}
	.st1{font-size:139px;}
	.st2{letter-spacing:-3;}
	.st3{display:none;}
	.st4{display:inline;}
	.st5{fill:#0085B1;}
	.st6{fill:#00A8C8;}
	.st7{fill:#005A8D;}
	.st8{fill:#E6DB9B;}
	.st9{fill:#513400;}
	.st10{fill:#FFF9F1;}
	.st11{fill:none;stroke:#000000;stroke-width:3;stroke-linecap:round;stroke-linejoin:round;stroke-miterlimit:10;}
	.st12{fill:#020000;}
	.st13{fill:none;stroke:#000000;stroke-width:2;stroke-linecap:round;stroke-linejoin:round;stroke-miterlimit:10;}
	.st14{fill:#E6F2FF;}
	.st15{fill:#5E0E00;}
	.st16{fill:none;stroke:#4B0B00;stroke-miterlimit:10;}
	.st17{fill:#460400;}
	.st18{fill:none;stroke:#460400;stroke-width:2;stroke-linecap:round;stroke-linejoin:round;stroke-miterlimit:10;}
	.st19{fill:none;stroke:#000000;stroke-width:3;stroke-miterlimit:10;}
	.st20{fill:#FFFFFF;}
	.st21{fill:none;stroke:#FFFFFF;stroke-width:2;stroke-linecap:round;stroke-linejoin:round;stroke-miterlimit:10;}
</style>
<g id="Text-4">
	<text transform="matrix(1 0 0 1 205.9091 157.1249)" class="st0 st1 st2">ttery</text>
</g>
<g id="Text-3" class="st3">
	<g class="st4">
		<path d="M634.5,73.9c1.9-2.7,0.7-6.1-2.5-7.7l-17.4-11.4c-3.3-1.6-7.6-0.7-9.5,2.1l-10.4,16.4c-4.8,3.5-7,1.4-10.2-1.3l-19.2-17.7
			c-2.7-2.3-7.2-2.3-9.9,0L537.9,69c-2.6,2.2-2.6,5.8,0,8l29.2,24.6c2.3,1.9,5.5,4.8,3.8,7.1l-31.9,37c-2.4,3.1-1.4,7.2,2.3,9.2
			c0.3,0.2,0.6,0.3,0.9,0.5l13.8,11.7c0.4,0.3,0.9,0.6,1.3,0.8c3.6,1.6,10.8,2.8,15.8,0c1-0.6,1.8-1.4,2.3-2.3"/>
		<path d="M277.5,50.9h-65.3c-2.9,0-5.3,1.9-5.3,4.3v23.7c0,2.2,2.2,3.9,4.8,3.9l19.1-1.6c0.9,0,1.6,0.6,1.5,1.3l-7.7,64.1
			c-0.2,2.8,2.6,5.1,6,5.1h27.1c3.9,0,7-2.6,6.7-5.8l-8.1-63c-0.1-1,0.9-1.8,2.1-1.8l18.5,2.4c3.2,0,5.7-2.1,5.7-4.6V55.1
			C282.7,52.8,280.4,50.9,277.5,50.9z"/>
		<path d="M359,50.9h-65.3c-2.9,0-5.3,1.9-5.3,4.3v23.7c0,2.2,2.2,3.9,4.8,3.9l19.1-1.6c0.9,0,1.6,0.6,1.5,1.3l-7.7,64.1
			c-0.2,2.8,2.6,5.1,6,5.1h27.1c3.9,0,7-2.6,6.7-5.8l-8.1-63c-0.1-1,0.9-1.8,2.1-1.8l18.5,2.4c3.2,0,5.7-2.1,5.7-4.6V55.1
			C364.2,52.8,361.9,50.9,359,50.9z"/>
		<path d="M509,114.3c10.1-6.9,24.3-14.1,23.6-32.8c-0.8-20.6-21.5-29-46.7-29l-33.2,2c-2.3,0.1-4.2,2-4.3,4.3l-6.5,92
			c0,2.4,2.4,4.3,5.3,4.3h30.9c2.8,0,5.1-1.8,5.1-4.1l-1.6-18l24.4,21.9c3,2.5,8,2.5,11,0l17.6-16.1c1.9-1.5,1.9-4,0-5.6L509,114.3z
			 M475.1,105.4c-4.9,0-5.5-4.6-5.5-10.3s-0.2-10.3,4.7-10.3c4.9,0,13.8,4.6,13.8,10.3S480,105.4,475.1,105.4z"/>
		<path d="M431.1,74.5V56.4c0-2.6-2.6-4.7-5.9-4.7h-47.6c-4,0-7.2,2.6-7.2,5.8v0.1v20.7l-3.1,71.2c0,2.9,2.9,5.3,6.6,5.3h19.3h6.4
			h24.7c3.6,0,9.6-0.9,9.6-5.2l-1-25.1c0-2.9-2.9-5.2-6.5-5.2l-23.2,0.8c-2,0-3.7-1.3-3.7-2.9v-6.5c0-1.9,1.9-3.4,4.2-3.4l12.2,0.8
			c3.2,0,5.8-2.1,5.8-4.6V90.6c0-2.2-2.2-3.9-4.8-3.9l-14.5,0.7c-1.5,0.1-2.7-0.9-2.7-2.1v-4.9c0-1.1,1.1-2,2.5-2l23.1,0.8
			C428.5,79.2,431.1,77.1,431.1,74.5z"/>
	</g>
</g>
<g id="Text-2" class="st3">
	<g class="st4">
		<circle class="st5" cx="133.3" cy="92.7" r="89"/>
		<path class="st5" d="M690.8,86.5"/>
		<path class="st5" d="M699.4,179.4c-0.5,1.2-1.4,2.2-2.5,3c0,0,0,0,0,0c-2.4,1.6-5.1,2.5-8,2.7l-8.8,0.7c-2.6,0.2-5.7-0.7-8-1.7
			l-2.5-1.1c-2.3-1-4.2-2.7-5.4-4.8l-8.7-15.3c-0.3-0.3-0.6-0.5-1-0.7c-4-2.7-5.2-8.2-2.5-12.4l32-49.5c1.9-3,1.5-6.9-1-9.5
			l-32.3-32.9c-2.9-3-2.9-7.7-9.8-10.5l19.4-19.8c4.2-3.7,12.9-3.3,20.7-0.2L702.4,49c3.6,3.6,2.8,3.8,5.4-1.9l7.2-14.6
			c2.3-5.1,10.5-6.7,14.9-6.2c3.9,0.5,9.7,5.5,13.1,7.5l18.5,14.7c3.6,2.1,4.8,6.7,2.8,10.3"/>
		<path class="st5" d="M508.2,62.5v-33c0-3.4-2.7-6.1-6.1-6.1H435c-4.1,0-7.5,3.3-7.5,7.5v0.2v36.4l-3.2,92c0,3.8,3.1,6.8,6.8,6.8
			h37.7h6.6h25.7c3.7,0,9.9-1.2,9.9-6.7l-1.1-32.5c0-3.7-3-6.7-6.7-6.7l-24.1,1.1c-2.1,0-3.8-1.7-3.8-3.8v-8.4c0-2.4-0.5-4.7,1-3.5
			l13.1,1.2c1.5,0.1,3.1-0.1,4.4-0.8c2.7-1.4,4.4-3.6,4.4-6.2V83.3c0-2.8-2.3-5-5-5.3l-17.9,1.1l-1-10.9l25.1,1
			c1.3,0.1,2.5-0.1,3.7-0.5C506.4,67.6,508.2,65.2,508.2,62.5z"/>
		<path class="st5" d="M614.4,108.6c10.6-8.9,17.4-22.5,17.4-37.6c0-26.9-21.4-48.8-47.9-48.8l-55.4,2.9v141.9h49.8v-28.8l23.9,24.4
			h-3.7v10.1h13.6l32.6-33.2L614.4,108.6z M569.3,94.3c-5.2,0-5.8-5.6-5.8-12.5s-0.3-12.5,4.9-12.5s14.4,5.6,14.4,12.5
			S574.4,94.3,569.3,94.3z"/>
		<path class="st5" d="M310.6,25.4h-75.9v45.8h23.8v97h36.9c3.4,0,6.1-2.9,5.8-6.3l-9.2-89.1l14.7,3.7c1.6,0.4,3.4,0.3,4.9-0.4
			c3.7-1.7,5.7-4.3,5.7-7.4l0.9-35.6C318.3,28.9,314.8,25.4,310.6,25.4z"/>
		<path class="st6" d="M754.7,57.8c2.1-3.6,0.8-8.2-2.8-10.3L726,28.1c-3.7-2.2-8.4-0.9-10.5,2.8l-10.7,21.8
			c-2.5,4.4-8.5,2-12.1-1.6l-21.2-23.7c-3-3-7.9-3-10.9,0l-19.4,19.8c-2.9,3-2.9,7.7,0,10.7l32.3,32.9c2.5,2.5,6.1,6.5,4.2,9.5
			l-35.2,49.5c-2.7,4.1-1.5,9.6,2.5,12.4c0.3,0.2,0.7,0.5,1,0.7l21.9,19.7c0.5,0.4,0.9,0.8,1.5,1c4,2.1,12,3.8,17.4,0.1
			c1.1-0.8,2-1.9,2.5-3.1"/>
		<path class="st6" d="M299.4,25.4h-72.2c-3.2,0-5.9,2.6-5.9,5.9V68c0,3,2.4,5.4,5.4,5.4l16.6-2.2c1,0,1.7,0.8,1.7,1.8l-5.2,88.2
			c-0.2,3.8,2.8,7.1,6.7,7.1h32.2c4.3,0,7.7-3.6,7.4-7.9l-5.7-86.6c-0.1-1.3,1-2.5,2.3-2.5l16,3.2c3.5,0,6.4-2.8,6.4-6.4v-37
			C305.1,27.9,302.5,25.4,299.4,25.4z"/>
		<path class="st5" d="M408.9,25.4h-75.9v45.8h23.8v97h36.9c3.4,0,6.1-2.9,5.8-6.3l-9.2-89.1l14.7,3.7c1.6,0.4,3.4,0.3,4.9-0.4
			c3.7-1.7,5.7-4.3,5.7-7.4l0.9-35.6C416.5,28.9,413.1,25.4,408.9,25.4z"/>
		<path class="st6" d="M397.7,25.4h-72.2c-3.2,0-5.9,2.6-5.9,5.9V68c0,3,2.4,5.4,5.4,5.4l16.6-2.2c1,0,1.7,0.8,1.7,1.8l-5.2,88.2
			c-0.2,3.8,2.8,7.1,6.7,7.1H377c4.3,0,7.7-3.6,7.4-7.9l-5.7-86.6c-0.1-1.3,1-2.5,2.3-2.5l16,3.2c3.5,0,6.4-2.8,6.4-6.4v-37
			C403.4,27.9,400.8,25.4,397.7,25.4z"/>
		<path class="st6" d="M601,108.6c10.6-8.9,17.4-22.5,17.4-37.6c0-26.9-21.4-48.8-47.9-48.8L515,25.1v141.9h49.8v-28.8l33.8,34.5
			l32.6-33.2L601,108.6z M555.8,94.3c-5.2,0-5.8-5.6-5.8-12.5s-0.3-12.5,4.9-12.5s14.4,5.6,14.4,12.5S561,94.3,555.8,94.3z"/>
		<path class="st6" d="M498.6,62.8v-33c0-3.4-2.7-6.1-6.1-6.1h-67.1c-4.1,0-7.5,3.3-7.5,7.5v0.2v36.4l-3.2,92c0,3.8,3.1,6.8,6.8,6.8
			h37.7h6.6h25.7c3.7,0,9.9-1.2,9.9-6.7l-1.1-32.5c0-3.7-3-6.7-6.7-6.7l-24.1,1.1c-2.1,0-3.8-1.7-3.8-3.8v-8.4
			c0-2.4,1.9-4.3,4.3-4.3l12.7,1.1c3.3,0,6-2.7,6-6V83.7c0-2.8-2.3-5-5-5l-15.1,0.9c-1.5,0.1-2.9-1.1-2.9-2.7v-6.4
			c0-1.4,1.2-2.6,2.6-2.5l24,1C495.8,68.9,498.6,66.2,498.6,62.8z"/>
		<circle class="st6" cx="123.6" cy="92.7" r="89"/>
	</g>
</g>
<g id="Text-1" class="st3">
	<g class="st4">
		<path class="st7" d="M614.5,152.7c-1.3,19.7-1.9,20.3-17,22.4c-8.3,1.2-16.5,4.1-24.9,4.3c-5.9,0.1-11.9-5.3-10.4-12.1
			c-0.8-39.9-2.2-79.8-3-119.7c-0.4-23.2-0.1-24.6,17.6-25.6c21.8-1.2,43.7-1.7,65.4,1c30.9,3.9,43.5,41,27.3,75.8
			c-2.6,5.6-5.3,11.1-8.3,17.4c3.3,4.8,6.5,9.5,10.1,14.7c2.3,3.3,6.6,9,5.3,12.8c-0.8,2.4-2.5,5.1-4.4,7.4
			c-11,13.2-18.5,16-28.7,19.5c-7.8,2.7-9.3,2.6-14.3-3.1C624.9,162.5,620.1,158.2,614.5,152.7 M615.9,74.3
			c0.8,8.5,1.5,15.3,2.2,22.9C626.9,89.1,626.5,84.2,615.9,74.3"/>
		<path class="st7" d="M512.8,76.6c0.5,1.9,2.3,3,4.2,2.7c5.7-0.9,11.4-1.7,17-3.4c5.7-1.7,7.5,0.5,8,7.7
			c1.8,22.3,1.9,22.1-15.5,27.3c-4.1,1.2-10.4-0.2-11.4,8.8c-0.2,1.8,1.3,3.3,3.1,3.1c7.4-0.7,14.4-1.6,21.4-1.9
			c10.8-0.5,12.1,1.1,13.2,15c0.8,10,1.6,20,2.5,30.6c0.4,4.4-2.8,8.4-7.1,9.1c-5.2,0.9-10.2,1.7-15.1,1.5
			c-22.9-0.8-45.8-2.6-68.7-3.8c-4.4-0.2-6.7-2.2-6.7-8.3c-0.1-41.8-0.4-83.5-0.7-125.3c-0.1-8.1,1.8-12.7,8.9-13.1
			c12.3-0.8,24.5-3.2,36.7-4.1c15-1.1,30.1-1.3,45.2-2.2c5.7-0.3,8.2,2.1,7.8,10c-0.5,8.7-0.5,17.5,0.1,26.1
			c0.6,8.2-2.3,11.1-7.9,11.7c-8.9,0.9-17.7,2.4-26.7,2.7c-6.8,0.2-8.9,3-8.7,4.5L512.8,76.6z"/>
		<path class="st7" d="M316.2,90.8c-1.2,0.2-2.1,1.3-2,2.5c1.6,25.7,2.9,50.6,4.7,75.4c0.7,10.4-1.2,12.2-8.9,10.4
			c-11.8-2.7-24.8,0.4-36.8-1.4c-6.1-0.9-5.4-10.4-5.3-18.2c0.4-23.9,0.2-47.9,0.2-73.7c0-1.9-1.5-3.4-3.4-3.4h-22.1
			c-1.6,0-2.9-1.1-3.2-2.7c-3.1-19.3-3.1-36.7,5.3-54.2c0.9-1.8,4.9-4.9,7.5-4.8c22.2,0.5,44.3,1.6,66.5,2.6c0.9,0,2.4,0,3.4,0
			c21.2-0.8,21.2-0.9,21.8,27c0.1,7.6-0.4,15.3,0.2,22.9c0.8,9.6-3,13.1-9.3,14.3C329.2,88.5,323.6,89.5,316.2,90.8"/>
		<path class="st7" d="M425.6,92c-1.2,0.2-2.1,1.3-2,2.5c1.6,25.7,2.9,50.6,4.7,75.4c0.7,10.4-1.2,12.2-8.9,10.4
			c-11.8-2.7-24.8,0.4-36.8-1.4c-6.1-0.9-5.4-10.4-5.3-18.2c0.4-23.9,0.2-47.9,0.2-73.7c0-1.9-1.5-3.4-3.4-3.4h-22.1
			c-1.6,0-2.9-1.1-3.2-2.7c-3.1-19.3-3.1-36.7,5.3-54.2c0.9-1.8,4.9-4.9,7.5-4.8c22.2,0.5,44.3,1.6,66.5,2.6c0.9,0,2.4,0,3.4,0
			c21.2-0.8,21.2-0.9,21.8,27c0.2,7.6-0.4,15.3,0.2,22.9c0.8,9.6-3,13.1-9.3,14.3C438.6,89.7,433.1,90.7,425.6,92"/>
		<path class="st7" d="M672.4,36.9c12.2-5.9,22.7-11.4,33.6-15.9c1.8-0.8,5.3,1.8,6.9,4.1c7.4,10.3,14.4,21.1,22.7,33.4
			c2-8.6,3.7-16,5.3-23.3C743.8,22,745,20.6,755,24.2c7.7,2.8,15.2,6.7,22.3,11.5c2,1.4,3.8,8.3,2.9,11.2
			c-11.9,38.3-23.8,76.7-36.7,114.4c-7.5,22-9.7,21.9-23.4,6.1c-5-5.8-9.7-12.1-14.9-17.7c-6.9-7.5-7.4-15.7-1.8-24.2
			c5.6-8.4,4.4-15.9-0.1-24.3C695.6,87,688.3,72.4,681,57.7C678.1,51.7,675.8,45.1,672.4,36.9"/>
		<path class="st7" d="M232.4,98c0,58.6-47.5,106.2-106.2,106.2C67.6,204.2,20,156.7,20,98C20,39.4,67.6-8.1,126.2-8.1
			C184.9-8.1,232.4,39.4,232.4,98"/>
	</g>
</g>
<g id="Fur">
	<path class="st8" d="M158.9,116.6c-3,0-3.7-0.8-6.4-0.9c-7.5-0.1-16-0.7-25,3.3c-7.1,3.1-12.1,8.5-16.4,12.5c-2.2,2-3.4,2.3-5.3,4
		c5,1.1,16.3,2.6,29.8-2.1c14.6-5,22.2-12.4,23.4-17.1L158.9,116.6z M192.7,72c2.6,1.1,4.5,2.7,5.6,3.7c10,29.1-12.6,64.2-51.1,78.9
		c-38.6,14.7-78.8,3.5-90.6-25c-0.1-1.5,0-4,1-6.6c4.1-9.8,18-10.1,35.8-11c0,0.4,0.2,0.8,0.3,1.2c2.5,6.7,18.2,7,34.9,0.6
		s28.2-17,25.7-23.7c-0.2-0.4-0.4-0.8-0.7-1.2C169.4,76.6,180.2,66.5,192.7,72"/>
	<path class="st9" d="M174.1,28.3c0.4,0.1,7.9,3.1,9.7,11.3c1.7,8.1-3.7,13.6-4.1,13.9C189,59.1,193.2,65.1,197,75
		c0.2,0.4,0.3,0.9,0.5,1.3c-1.1-1-3-2.6-5.6-3.7c-12.4-5.5-22.4,8.7-38.1,21.1c-3.9-5.5-19.4-7.5-35.1-1.6
		c-15.7,6-26,17.9-25.2,24.6c-17.8,0.9-32.6-2.9-36.7,7c-1.1,2.6-1.1,5-1,6.6c-0.2-0.4-0.3-0.8-0.5-1.2c-3.3-8.8-3.6-18.2-1.4-27.5
		c-0.6-0.2-9-2.5-11.6-10.3c-1.2-3.6-0.6-6.9-0.2-8.5c1.6-6.6,6.8-11.3,12.8-11.8c6.8-0.5,11.4,4.7,12,5.3c1.8-2.5,3.7-4.8,5.6-6.9
		c24-26.2,61.6-26.8,80-25.6c0.1-1.2,1.1-8.3,7.5-12.8C166.2,26.6,172.9,28,174.1,28.3"/>
</g>
<g id="Outline">
	<path class="st10" d="M145,120.1l3.6,0.9"/>
	<path class="st11" d="M55.7,130.3c-0.2-0.4-0.3-0.8-0.5-1.2c-3.3-8.8-3.6-18.2-1.4-27.5c-0.6-0.2-9-2.5-11.6-10.3
		c-1.2-3.6-0.6-6.9-0.2-8.5c1.6-6.6,6.8-11.3,12.8-11.8c6.8-0.5,11.5,4.7,12,5.3c1.8-2.5,3.7-4.8,5.6-6.9c24-26.2,61.6-26.8,80-25.6
		c0.1-1.2,1.1-8.3,7.5-12.8c6.3-4.4,13-2.9,14.1-2.7c0.4,0.1,7.9,3.1,9.7,11.3c1.7,8.1-3.7,13.6-4.1,13.9
		C189,59.1,193.2,65.1,197,75c0.2,0.4,0.3,0.9,0.5,1.3c10,29.1-12.6,64.2-51.1,78.9C107.7,170,67.5,158.8,55.7,130.3z"/>
	<path class="st11" d="M150.3,97c15.8-12.4,29.1-29.9,41.6-24.4c2.6,1.1,4.5,2.7,5.6,3.7"/>
	<path class="st11" d="M55.7,130.3C55.7,130.3,55.7,130.3,55.7,130.3c-0.1-1.6,0-4.1,1-6.6c4.1-9.8,20.1-6.5,37.9-7.4"/>
	<path class="st9" d="M92.5,54.8c-1.1-4.3,1.6-9.7,6.4-11.4c5-1.8,10.4,0.4,12,4.9c0.7,2,0.6,4.2-0.3,6.2"/>
	<path class="st11" d="M92.5,54.8c-1.1-4.3,1.6-9.7,6.4-11.4c5-1.8,10.4,0.4,12,4.9c0.7,2,0.6,4.2-0.3,6.2"/>
	<path class="st9" d="M102.2,54.2c0.1-4,1.5-7.7,6.6-9.5c5-1.8,10.4,0.4,12,4.9c0.7,1.9,0.6,6.7-3,9.7"/>
</g>
<g id="Nose">
	<path class="st12" d="M155.3,90.2c-4.2-6.4-20-6.9-37-1c-17,6-29.1,16.3-28.3,23.9c0,0.5,0.2,1,0.3,1.4c2.7,7.7,19.6,8.8,37.7,2.4
		c18.1-6.3,30.6-17.7,28-25.4C155.9,91.1,155.6,90.6,155.3,90.2"/>
	<path class="st13" d="M152,89.3c0.3,0.4,0.5,0.8,0.7,1.2c2.5,6.7-9,17.3-25.7,23.7c-16.7,6.4-32.4,6.1-34.9-0.6
		c-0.2-0.4-0.3-0.8-0.3-1.2c-0.8-6.7,10.3-16.4,26-22.4C133.4,84,148.1,83.8,152,89.3z"/>
	<path class="st14" d="M137.8,87c0.4,1-7.1,4.6-16.6,8.1s-17.6,5.4-18,4.4c-0.4-1,7.1-4.6,16.6-8.1C129.4,88,137.5,86,137.8,87"/>
</g>
<g id="Mouth">
	<path class="st15" d="M150.3,116.2l-4.3,2.9c-0.6-0.4-0.5-0.5-0.7-0.4l-27.9,9.9c-0.2,0.1-2.8-0.4-2.9-0.1l-10.5,9.3
		c5,1.1,17,0.4,30.7-3.7c14.9-4.4,25.7-16.4,24.8-17.5L150.3,116.2z"/>
	<path class="st16" d="M150.3,116.2l-4.3,2.9c-0.6-0.4-0.5-0.5-0.7-0.4l-27.9,9.9c-0.2,0.1-2.8-0.4-2.9-0.1l-10.5,9.3
		c5,1.1,17,0.4,30.7-3.7c14.9-4.4,25.7-16.4,24.8-17.5L150.3,116.2z"/>
	<path class="st17" d="M145,122.3c1.6,4.3-2.4,9.7-8.9,12.1c-6.5,2.4-13.2,1-14.8-3.3c-1.6-4.3,2.4-9.7,8.9-12.1
		S143.4,118,145,122.3"/>
	<path class="st18" d="M145.5,124.1c1.6,4.3-3,7.2-9.5,9.6c-6.5,2.4-12.6,3.4-14.2-0.8c-1.6-4.3,2.4-9.7,8.9-12.1
		C137.2,118.4,143.8,119.8,145.5,124.1z"/>
	<path class="st10" d="M120.7,128.5l-3,4.9l-5.3-3.2l1.3-2.2l13.7-7.3c9.3-4.1,15.9-5,25-3.6l-2.5,5.3l-7.4-3.1L120.7,128.5z"/>
</g>
<g id="Eyes">
	<path class="st19" d="M166.3,72.3c0.1,1.8-0.2,3.5-1.1,4.9c-2.2-0.6-5.5-1.1-9.3-0.8c-3.6,0.3-6.5,1.1-8.5,1.9l-0.4,0
		c-1.1-1.4-1.8-3-1.9-4.8c-0.4-5.3,4-9.8,9.8-10.2C160.7,63,165.8,67,166.3,72.3z"/>
	<path class="st12" d="M74,93.6c4.6-3.7,10.9-3.3,14.1,0.9c1.1,1.4,1.7,3.1,1.8,4.8l-0.3,0.3c-2,0.8-4.8,2.1-7.6,4.3
		c-3.1,2.4-5.1,5-6.4,6.9c-1.6-0.5-3-1.5-4.1-2.9C68.3,103.7,69.4,97.3,74,93.6"/>
	<path class="st20" d="M83.4,94.4c0.5,0.5,0.5,1.2,0,1.7c-0.4,0.5-1.2,0.4-1.6,0c-0.5-0.5-0.5-1.2,0-1.7
		C82.2,93.9,83,93.9,83.4,94.4"/>
	<path class="st12" d="M166.3,72.3c0.1,1.8-0.2,3.5-1.1,4.9c-2.2-0.6-5.5-1.1-9.3-0.8c-3.6,0.3-6.5,1.1-8.5,1.9l-0.4,0
		c-1.1-1.4-1.8-3-1.9-4.8c-0.4-5.3,4-9.8,9.8-10.2C160.7,63,165.8,67,166.3,72.3"/>
	<path class="st21" d="M159.4,66.8c0,0.7-0.5,1.2-1.2,1.1c-0.6,0-1.1-0.6-1.1-1.3c0-0.7,0.5-1.2,1.2-1.1
		C158.9,65.6,159.4,66.2,159.4,66.8z"/>
	<path class="st19" d="M74,93.6c4.6-3.7,10.9-3.3,14.1,0.9c1.1,1.4,1.7,3.1,1.8,4.8l-0.3,0.3c-2,0.8-4.8,2.1-7.6,4.3
		c-3.1,2.4-5.1,5-6.4,6.9c-1.6-0.5-3-1.5-4.1-2.9C68.3,103.7,69.4,97.3,74,93.6z"/>
	<path class="st21" d="M83.4,94.4c0.5,0.5,0.5,1.2,0,1.7c-0.4,0.5-1.2,0.4-1.6,0c-0.5-0.5-0.5-1.2,0-1.7
		C82.2,93.9,83,93.9,83.4,94.4z"/>
	<path class="st11" d="M71.7,112.1c2.5,0.6,3.9-1.2,3.9-1.2"/>
	<path class="st11" d="M168.5,76.5c-2,1.5-4.1,0.5-4.1,0.5"/>
	<path class="st20" d="M159.4,66.8c0,0.7-0.5,1.2-1.2,1.1c-0.6,0-1.1-0.6-1.1-1.3c0-0.7,0.5-1.2,1.2-1.1
		C158.9,65.6,159.4,66.2,159.4,66.8"/>
</g>
<g id="Stroke">
	<path class="st11" d="M112.4,132c0.6,0.3,1.7,0.9,3.3,1c1.7,0.1,3-0.4,3.6-0.7c0.3-0.2,1.2-0.8,1.7-2.1c0.5-1.4,0.1-2.7,0-3
		c2.8-0.1,6.8-0.5,11.2-1.9c5.3-1.7,9.2-4.3,11.7-6.2c0.1,0.4,0.5,1.7,1.8,2.4c1.5,0.8,2.3,0.8,3.2,0.7c0.6-0.2,1.6-0.6,2.9-1.8
		c0.9-0.9,1.2-2,1.3-2.6"/>
	<path class="st11" d="M106.7,135.8c5,1.1,14.6,2.5,28.1-2.3c14.4-5,21.1-11.1,23.8-16.1"/>
	<path class="st13" d="M157.3,101.2c2.5-3.1,6.4-7.3,12-11c6.1-4,11.8-5.9,15.8-6.8"/>
	<path class="st13" d="M157,104.6c3.1-1.9,7.7-4.2,13.7-5.6c6.5-1.5,12-1.3,15.8-0.8"/>
	<path class="st13" d="M164.4,98.3c2.1-1.8,5.3-4.2,9.7-6c4.8-2,9.1-2.5,12-2.6"/>
	<path class="st13" d="M98.7,123.7c-3.9-0.8-9.6-1.4-16.3-0.5c-7.2,0.9-12.8,3.2-16.4,5.1"/>
	<path class="st13" d="M101.1,126c-3.5,0.6-8.6,1.8-14,4.6c-5.9,3.1-10,6.8-12.5,9.6"/>
	<path class="st13" d="M91.4,126c-2.8,0-6.7,0.3-11.2,1.8c-4.9,1.6-8.5,4-10.8,5.8"/>
	<path class="st11" d="M81.9,144.3c0.6,0.5,1.5,1.2,2.8,1.7c1.2,0.5,2.3,0.7,3.1,0.8c2.8,0.4,4.9,0.5,7.5-0.4
		c7-2.5,10.2-9,11.7-11.4c-0.2,0.3-0.1-0.2,5.8-6.2c3.6-3.6,8.5-6.7,14.5-9.4c7.6-3.4,15.3-4.5,21.8-4c2.4,0.2,5.3,0.7,7.5,1
		c5.7,2.4,12.6,3.5,18.4,1.6c3.2-1,5-3.5,5.7-4.4c2.1-2.6,3.4-6.3,3.5-11.3"/>
	<path class="st11" d="M47.3,85.3c1.1-0.6,4.1-2.2,8.2-1.7c2.9,0.3,5,1.5,6.1,2.3c-0.7-0.1-2.7-0.2-4.7,1.1
		c-1.1,0.7-1.7,1.6-2.1,2.2"/>
	<path class="st11" d="M171.9,38c-1.2,0.2-3.7,0.9-6,2.8c-3,2.6-4,5.8-4.3,7.1c0.7-0.6,2-1.4,3.7-1.8c1.4-0.3,2.6-0.3,3.5-0.2"/>
	<path class="st11" d="M102.2,54.2c0.1-4,1.5-7.7,6.6-9.5c5-1.8,10.4,0.4,12,4.9c0.7,1.9,0.6,6.7-3,9.7"/>
</g>
</svg>
