<?xml version="1.0" encoding="utf-8"?>
<!-- Generator: Adobe Illustrator 25.2.3, SVG Export Plug-In . SVG Version: 6.00 Build 0)  -->
<svg version="1.1" id="Ottery-Logo" xmlns="http://www.w3.org/2000/svg" xmlns:xlink="http://www.w3.org/1999/xlink" x="0px"
	 y="0px" viewBox="0 0 869.9 326.6" style="enable-background:new 0 0 869.9 326.6;" xml:space="preserve">
<style type="text/css">
	.st0{display:none;}
	.st1{display:inline;}
	.st2{fill:#005A8D;}
	.st3{fill:#E6DB9B;}
	.st4{fill:#513400;}
	.st5{fill:#FFF9F1;}
	.st6{fill:none;stroke:#000000;stroke-width:3;stroke-linecap:round;stroke-linejoin:round;stroke-miterlimit:10;}
	.st7{fill:#020000;}
	.st8{fill:none;stroke:#000000;stroke-width:2;stroke-linecap:round;stroke-linejoin:round;stroke-miterlimit:10;}
	.st9{fill:#E6F2FF;}
	.st10{fill:#5E0E00;}
	.st11{fill:none;stroke:#4B0B00;stroke-miterlimit:10;}
	.st12{fill:#460400;}
	.st13{fill:none;stroke:#460400;stroke-width:2;stroke-linecap:round;stroke-linejoin:round;stroke-miterlimit:10;}
	.st14{fill:none;stroke:#000000;stroke-width:3;stroke-miterlimit:10;}
	.st15{fill:#FFFFFF;}
	.st16{fill:none;stroke:#FFFFFF;stroke-width:2;stroke-linecap:round;stroke-linejoin:round;stroke-miterlimit:10;}
</style>
<g id="Text-2">
	<g>
		<path d="M774.6,115.8c2.4-3.5,1-7.9-3.2-10l-30.2-18.6c-4.3-2.1-9.8-0.9-12.3,2.7l-12.5,21c-2.9,4.3-10,1.9-14.1-1.6l-24.7-22.9
			c-3.5-2.9-9.2-2.9-12.7,0L642,105.6c-3.4,2.9-3.4,7.4,0,10.3l37.7,31.7c2.9,2.5,7.2,6.3,4.9,9.1l-41.2,47.8
			c-3.1,4-1.8,9.3,2.9,11.9c0.4,0.2,0.8,0.4,1.1,0.7l25.6,19c0.5,0.4,1.1,0.7,1.7,1c4.7,2,14,3.6,20.4,0.1c1.3-0.7,2.3-1.8,3-3"/>
		<path d="M290.9,87.3h-84.3c-3.8,0-6.9,2.5-6.9,5.5v34.5c0,2.8,2.8,5,6.3,5l19.4-2c1.1,0,2,0.8,2,1.7l-6.1,82.8
			c-0.3,3.6,3.3,6.6,7.8,6.6h37.6c5,0,9-3.4,8.7-7.4l-6.6-81.3c-0.1-1.3,1.1-2.3,2.7-2.3l18.7,3c4.1,0,7.4-2.7,7.4-6V92.7
			C297.5,89.7,294.6,87.3,290.9,87.3z"/>
		<path d="M396.1,87.3h-84.3c-3.8,0-6.9,2.5-6.9,5.5v34.5c0,2.8,2.8,5,6.3,5l19.4-2c1.1,0,2,0.8,2,1.7l-6.1,82.8
			c-0.3,3.6,3.3,6.6,7.8,6.6h37.6c5,0,9-3.4,8.7-7.4l-6.6-81.3c-0.1-1.3,1.1-2.3,2.7-2.3l18.7,3c4.1,0,7.4-2.7,7.4-6V92.7
			C402.7,89.7,399.8,87.3,396.1,87.3z"/>
		<path d="M614.3,165.4c12.4-8.4,20.3-21.1,20.3-35.3c0-25.3-25-45.8-55.9-45.8L513.9,87l-1,128c0,2.9,2.9,5.2,6.5,5.2h48.3
			c3.4,0,6.2-2.2,6.2-5l-1.9-22l29.9,26.8c3.7,3,9.8,3,13.5,0l30.1-24.6c2.3-1.9,2.3-4.9,0-6.8L614.3,165.4z M561.5,146.4
			c-6,0-6.8-5.7-6.8-12.7c0-7-0.3-12.7,5.7-12.7s16.9,5.7,16.9,12.7C577.3,140.8,567.5,146.4,561.5,146.4z"/>
		<path d="M504.3,122.5v-31c0-3.2-3.2-5.7-7.1-5.7h-78.4c-4.8,0-8.7,3.1-8.7,7V93v34.2l-3.8,86.4c0,3.5,3.6,6.4,8,6.4h44.1h7.7h30
			c4.3,0,11.6-1.1,11.6-6.3l-1.3-30.5c0-3.5-3.5-6.3-7.8-6.3l-28.1,1c-2.4,0-4.4-1.6-4.4-3.6v-7.9c0-2.3,2.3-4.1,5.1-4.1l14.8,1
			c3.9,0,7-2.5,7-5.6V142c0-2.6-2.6-4.7-5.9-4.7l-17.6,0.9c-1.8,0.1-3.3-1.1-3.3-2.5v-6c0-1.3,1.4-2.4,3.1-2.4l28,0.9
			C501.1,128.2,504.3,125.6,504.3,122.5z"/>
	</g>
</g>
<g id="Text-1" class="st0">
	<g class="st1">
		<path class="st2" d="M604.8,211.4c-1.3,19.7-1.9,20.3-17,22.4c-8.3,1.2-16.5,4.1-24.9,4.3c-5.9,0.1-11.9-5.3-10.4-12.1
			c-0.8-39.9-2.2-79.8-3-119.7c-0.4-23.2-0.1-24.6,17.6-25.6c21.8-1.2,43.7-1.7,65.4,1c30.9,3.9,43.5,41,27.3,75.8
			c-2.6,5.6-5.3,11.1-8.3,17.4c3.3,4.8,6.5,9.5,10.1,14.7c2.3,3.3,6.6,9,5.3,12.8c-0.8,2.4-2.5,5.1-4.4,7.4
			c-11,13.2-18.5,16-28.7,19.5c-7.8,2.7-9.3,2.6-14.3-3.1C615.2,221.2,610.3,216.9,604.8,211.4 M606.2,133
			c0.8,8.5,1.5,15.3,2.2,22.9C617.1,147.7,616.7,142.8,606.2,133"/>
		<path class="st2" d="M503.1,135.3c0.5,1.9,2.3,3,4.2,2.7c5.7-0.9,11.4-1.7,17-3.4c5.7-1.7,7.5,0.5,8,7.7
			c1.8,22.3,1.9,22.1-15.5,27.3c-4.1,1.2-10.4-0.2-11.4,8.8c-0.2,1.8,1.3,3.3,3.1,3.1c7.4-0.7,14.4-1.6,21.4-1.9
			c10.8-0.5,12.1,1.1,13.2,15c0.8,10,1.6,20,2.5,30.6c0.4,4.4-2.8,8.4-7.1,9.1c-5.2,0.9-10.2,1.7-15.1,1.5
			c-22.9-0.8-45.8-2.6-68.7-3.8c-4.4-0.2-6.7-2.2-6.7-8.3c-0.1-41.8-0.4-83.5-0.7-125.3c-0.1-8.1,1.8-12.7,8.9-13.1
			c12.3-0.8,24.5-3.2,36.7-4.1c15-1.1,30.1-1.3,45.2-2.2c5.7-0.3,8.2,2.1,7.8,10c-0.5,8.7-0.5,17.5,0.1,26.1
			c0.6,8.2-2.3,11.1-7.9,11.7c-8.9,0.9-17.7,2.4-26.7,2.7c-6.8,0.2-8.9,3-8.7,4.5L503.1,135.3z"/>
		<path class="st2" d="M306.5,149.5c-1.2,0.2-2.1,1.3-2,2.5c1.6,25.7,2.9,50.6,4.7,75.4c0.7,10.4-1.2,12.2-8.9,10.4
			c-11.8-2.7-24.8,0.4-36.8-1.4c-6.1-0.9-5.4-10.4-5.3-18.2c0.4-23.9,0.2-47.9,0.2-73.7c0-1.9-1.5-3.4-3.4-3.4h-22.1
			c-1.6,0-2.9-1.1-3.2-2.7c-3.1-19.3-3.1-36.7,5.3-54.2c0.9-1.8,4.9-4.9,7.5-4.8c22.2,0.5,44.3,1.6,66.5,2.6c0.9,0,2.4,0,3.4,0
			c21.2-0.8,21.2-0.9,21.8,27c0.1,7.6-0.4,15.3,0.2,22.9c0.8,9.6-3,13.1-9.3,14.3C319.5,147.2,313.9,148.1,306.5,149.5"/>
		<path class="st2" d="M415.9,150.7c-1.2,0.2-2.1,1.3-2,2.5c1.6,25.7,2.9,50.6,4.7,75.4c0.7,10.4-1.2,12.2-8.9,10.4
			c-11.8-2.7-24.8,0.4-36.8-1.4c-6.1-0.9-5.4-10.4-5.3-18.2c0.4-23.9,0.2-47.9,0.2-73.7c0-1.9-1.5-3.4-3.4-3.4h-22.1
			c-1.6,0-2.9-1.1-3.2-2.7c-3.1-19.3-3.1-36.7,5.3-54.2c0.9-1.8,4.9-4.9,7.5-4.8c22.2,0.5,44.3,1.6,66.5,2.6c0.9,0,2.4,0,3.4,0
			c21.2-0.8,21.2-0.9,21.8,27c0.2,7.6-0.4,15.3,0.2,22.9c0.8,9.6-3,13.1-9.3,14.3C428.9,148.4,423.3,149.4,415.9,150.7"/>
		<path class="st2" d="M662.6,95.6c12.2-5.9,22.7-11.4,33.6-15.9c1.8-0.8,5.3,1.8,6.9,4.1c7.4,10.3,14.4,21.1,22.7,33.4
			c2-8.6,3.7-16,5.3-23.3c2.9-13.1,4.1-14.5,14.1-10.9c7.7,2.8,15.2,6.7,22.3,11.5c2,1.4,3.8,8.3,2.9,11.2
			c-11.9,38.3-23.8,76.7-36.7,114.4c-7.5,22-9.7,21.9-23.4,6.1c-5-5.8-9.7-12.1-14.9-17.7c-6.9-7.5-7.4-15.7-1.8-24.2
			c5.6-8.4,4.4-15.9-0.1-24.3c-7.7-14.3-15.1-28.9-22.3-43.6C668.3,110.4,666,103.8,662.6,95.6"/>
		<path class="st2" d="M222.6,156.7c0,58.6-47.5,106.2-106.2,106.2c-58.6,0-106.2-47.5-106.2-106.2c0-58.6,47.5-106.2,106.2-106.2
			C175.1,50.5,222.6,98.1,222.6,156.7"/>
	</g>
</g>
<g id="Fur">
	<path class="st3" d="M149.1,175.3c-3,0-3.7-0.8-6.4-0.9c-7.5-0.1-16-0.7-25,3.3c-7.1,3.1-12.1,8.5-16.4,12.5c-2.2,2-3.4,2.3-5.3,4
		c5,1.1,16.3,2.6,29.8-2.1c14.6-5,22.2-12.4,23.4-17.1L149.1,175.3z M182.9,130.7c2.6,1.1,4.5,2.7,5.6,3.7
		c10,29.1-12.6,64.2-51.1,78.9c-38.6,14.7-78.8,3.5-90.6-25c-0.1-1.5,0-4,1-6.6c4.1-9.8,18-10.1,35.8-11c0,0.4,0.2,0.8,0.3,1.2
		c2.5,6.7,18.2,7,34.9,0.6s28.2-17,25.7-23.7c-0.2-0.4-0.4-0.8-0.7-1.2C159.6,135.3,170.5,125.2,182.9,130.7"/>
	<path class="st4" d="M164.3,87c0.4,0.1,7.9,3.1,9.7,11.3c1.7,8.1-3.7,13.6-4.1,13.9c9.3,5.6,13.5,11.6,17.3,21.5
		c0.2,0.4,0.3,0.9,0.5,1.3c-1.1-1-3-2.6-5.6-3.7c-12.4-5.5-22.4,8.7-38.1,21.1c-3.9-5.5-19.4-7.5-35.1-1.6
		c-15.7,6-26,17.9-25.2,24.6c-17.8,0.9-32.6-2.9-36.7,7c-1.1,2.6-1.1,5-1,6.6c-0.2-0.4-0.3-0.8-0.5-1.2c-3.3-8.8-3.6-18.2-1.4-27.5
		c-0.6-0.2-9-2.5-11.6-10.3c-1.2-3.6-0.6-6.9-0.2-8.5c1.6-6.6,6.8-11.3,12.8-11.8c6.8-0.5,11.4,4.7,12,5.3c1.8-2.5,3.7-4.8,5.6-6.9
		c24-26.2,61.6-26.8,80-25.6c0.1-1.2,1.1-8.3,7.5-12.8C156.5,85.2,163.2,86.7,164.3,87"/>
</g>
<g id="Outline">
	<path class="st5" d="M135.3,178.8l3.6,0.9"/>
	<path class="st6" d="M45.9,189c-0.2-0.4-0.3-0.8-0.5-1.2c-3.3-8.8-3.6-18.2-1.4-27.5c-0.6-0.2-9-2.5-11.6-10.3
		c-1.2-3.6-0.6-6.9-0.2-8.5c1.6-6.6,6.8-11.3,12.8-11.8c6.8-0.5,11.5,4.7,12,5.3c1.8-2.5,3.7-4.8,5.6-6.9c24-26.2,61.6-26.8,80-25.6
		c0.1-1.2,1.1-8.3,7.5-12.8c6.3-4.4,13-2.9,14.1-2.7c0.4,0.1,7.9,3.1,9.7,11.3c1.7,8.1-3.7,13.6-4.1,13.9
		c9.3,5.6,13.5,11.6,17.3,21.5c0.2,0.4,0.3,0.9,0.5,1.3c10,29.1-12.6,64.2-51.1,78.9C97.9,228.7,57.8,217.5,45.9,189z"/>
	<path class="st6" d="M140.5,155.7c15.8-12.4,29.1-29.9,41.6-24.4c2.6,1.1,4.5,2.7,5.6,3.7"/>
	<path class="st6" d="M45.9,189C45.9,189,45.9,189,45.9,189c-0.1-1.6,0-4.1,1-6.6c4.1-9.8,20.1-6.5,37.9-7.4"/>
	<path class="st4" d="M82.8,113.5c-1.1-4.3,1.6-9.7,6.4-11.4c5-1.8,10.4,0.4,12,4.9c0.7,2,0.6,4.2-0.3,6.2"/>
	<path class="st6" d="M82.8,113.5c-1.1-4.3,1.6-9.7,6.4-11.4c5-1.8,10.4,0.4,12,4.9c0.7,2,0.6,4.2-0.3,6.2"/>
	<path class="st4" d="M92.4,112.9c0.1-4,1.5-7.7,6.6-9.5c5-1.8,10.4,0.4,12,4.9c0.7,1.9,0.6,6.7-3,9.7"/>
</g>
<g id="Nose">
	<path class="st7" d="M145.6,148.9c-4.2-6.4-20-6.9-37-1c-17,6-29.1,16.3-28.3,23.9c0,0.5,0.2,1,0.3,1.4c2.7,7.7,19.6,8.8,37.7,2.4
		c18.1-6.3,30.6-17.7,28-25.4C146.1,149.8,145.9,149.3,145.6,148.9"/>
	<path class="st8" d="M142.3,148c0.3,0.4,0.5,0.8,0.7,1.2c2.5,6.7-9,17.3-25.7,23.7c-16.7,6.4-32.4,6.1-34.9-0.6
		c-0.2-0.4-0.3-0.8-0.3-1.2c-0.8-6.7,10.3-16.4,26-22.4C123.7,142.6,138.4,142.5,142.3,148z"/>
	<path class="st9" d="M128.1,145.7c0.4,1-7.1,4.6-16.6,8.1s-17.6,5.4-18,4.4c-0.4-1,7.1-4.6,16.6-8.1
		C119.7,146.6,127.7,144.7,128.1,145.7"/>
</g>
<g id="Mouth">
	<path class="st10" d="M140.6,174.9l-4.3,2.9c-0.6-0.4-0.5-0.5-0.7-0.4l-27.9,9.9c-0.2,0.1-2.8-0.4-2.9-0.1l-10.5,9.3
		c5,1.1,17,0.4,30.7-3.7c14.9-4.4,25.7-16.4,24.8-17.5L140.6,174.9z"/>
	<path class="st11" d="M140.6,174.9l-4.3,2.9c-0.6-0.4-0.5-0.5-0.7-0.4l-27.9,9.9c-0.2,0.1-2.8-0.4-2.9-0.1l-10.5,9.3
		c5,1.1,17,0.4,30.7-3.7c14.9-4.4,25.7-16.4,24.8-17.5L140.6,174.9z"/>
	<path class="st12" d="M135.2,181c1.6,4.3-2.4,9.7-8.9,12.1c-6.5,2.4-13.2,1-14.8-3.3c-1.6-4.3,2.4-9.7,8.9-12.1
		S133.6,176.7,135.2,181"/>
	<path class="st13" d="M135.7,182.8c1.6,4.3-3,7.2-9.5,9.6c-6.5,2.4-12.6,3.4-14.2-0.8c-1.6-4.3,2.4-9.7,8.9-12.1
		S134.1,178.5,135.7,182.8z"/>
	<path class="st5" d="M110.9,187.2l-3,4.9l-5.3-3.2l1.3-2.2l13.7-7.3c9.3-4.1,15.9-5,25-3.6l-2.5,5.3l-7.4-3.1L110.9,187.2z"/>
</g>
<g id="Eyes">
	<path class="st14" d="M156.5,131c0.1,1.8-0.2,3.5-1.1,4.9c-2.2-0.6-5.5-1.1-9.3-0.8c-3.6,0.3-6.5,1.1-8.5,1.9l-0.4,0
		c-1.1-1.4-1.8-3-1.9-4.8c-0.4-5.3,4-9.8,9.8-10.2C151,121.7,156.1,125.7,156.5,131z"/>
	<path class="st7" d="M64.2,152.3c4.6-3.7,10.9-3.3,14.1,0.9c1.1,1.4,1.7,3.1,1.8,4.8l-0.3,0.3c-2,0.8-4.8,2.1-7.6,4.3
		c-3.1,2.4-5.1,5-6.4,6.9c-1.6-0.5-3-1.5-4.1-2.9C58.5,162.4,59.7,156,64.2,152.3"/>
	<path class="st15" d="M73.7,153c0.5,0.5,0.5,1.2,0,1.7c-0.4,0.5-1.2,0.4-1.6,0c-0.5-0.5-0.5-1.2,0-1.7
		C72.5,152.5,73.2,152.6,73.7,153"/>
	<path class="st7" d="M156.5,131c0.1,1.8-0.2,3.5-1.1,4.9c-2.2-0.6-5.5-1.1-9.3-0.8c-3.6,0.3-6.5,1.1-8.5,1.9l-0.4,0
		c-1.1-1.4-1.8-3-1.9-4.8c-0.4-5.3,4-9.8,9.8-10.2C151,121.7,156.1,125.7,156.5,131"/>
	<path class="st16" d="M149.6,125.5c0,0.7-0.5,1.2-1.2,1.1c-0.6,0-1.1-0.6-1.1-1.3c0-0.7,0.5-1.2,1.2-1.1
		C149.2,124.3,149.7,124.9,149.6,125.5z"/>
	<path class="st14" d="M64.2,152.3c4.6-3.7,10.9-3.3,14.1,0.9c1.1,1.4,1.7,3.1,1.8,4.8l-0.3,0.3c-2,0.8-4.8,2.1-7.6,4.3
		c-3.1,2.4-5.1,5-6.4,6.9c-1.6-0.5-3-1.5-4.1-2.9C58.5,162.4,59.7,156,64.2,152.3z"/>
	<path class="st16" d="M73.7,153c0.5,0.5,0.5,1.2,0,1.7c-0.4,0.5-1.2,0.4-1.6,0c-0.5-0.5-0.5-1.2,0-1.7
		C72.5,152.5,73.2,152.6,73.7,153z"/>
	<path class="st6" d="M61.9,170.8c2.5,0.6,3.9-1.2,3.9-1.2"/>
	<path class="st6" d="M158.7,135.2c-2,1.5-4.1,0.5-4.1,0.5"/>
	<path class="st15" d="M149.6,125.5c0,0.7-0.5,1.2-1.2,1.1c-0.6,0-1.1-0.6-1.1-1.3c0-0.7,0.5-1.2,1.2-1.1
		C149.2,124.3,149.7,124.9,149.6,125.5"/>
</g>
<g id="Stroke">
	<path class="st6" d="M102.7,190.6c0.6,0.3,1.7,0.9,3.3,1c1.7,0.1,3-0.4,3.6-0.7c0.3-0.2,1.2-0.8,1.7-2.1c0.5-1.4,0.1-2.7,0-3
		c2.8-0.1,6.8-0.5,11.2-1.9c5.3-1.7,9.2-4.3,11.7-6.2c0.1,0.4,0.5,1.7,1.8,2.4c1.5,0.8,2.3,0.8,3.2,0.7c0.6-0.2,1.6-0.6,2.9-1.8
		c0.9-0.9,1.2-2,1.3-2.6"/>
	<path class="st6" d="M97,194.5c5,1.1,14.6,2.5,28.1-2.3c14.4-5,21.1-11.1,23.8-16.1"/>
	<path class="st8" d="M147.6,159.9c2.5-3.1,6.4-7.3,12-11c6.1-4,11.8-5.9,15.8-6.8"/>
	<path class="st8" d="M147.2,163.3c3.1-1.9,7.7-4.2,13.7-5.6c6.5-1.5,12-1.3,15.8-0.8"/>
	<path class="st8" d="M154.6,156.9c2.1-1.8,5.3-4.2,9.7-6c4.8-2,9.1-2.5,12-2.6"/>
	<path class="st8" d="M88.9,182.3c-3.9-0.8-9.6-1.4-16.3-0.5c-7.2,0.9-12.8,3.2-16.4,5.1"/>
	<path class="st8" d="M91.4,184.7c-3.5,0.6-8.6,1.8-14,4.6c-5.9,3.1-10,6.8-12.5,9.6"/>
	<path class="st8" d="M81.6,184.7c-2.8,0-6.7,0.3-11.2,1.8c-4.9,1.6-8.5,4-10.8,5.8"/>
	<path class="st6" d="M72.2,203c0.6,0.5,1.5,1.2,2.8,1.7c1.2,0.5,2.3,0.7,3.1,0.8c2.8,0.4,4.9,0.5,7.5-0.4c7-2.5,10.2-9,11.7-11.4
		c-0.2,0.3-0.1-0.2,5.8-6.2c3.6-3.6,8.5-6.7,14.5-9.4c7.6-3.4,15.3-4.5,21.8-4c2.4,0.2,5.3,0.7,7.5,1c5.7,2.4,12.6,3.5,18.4,1.6
		c3.2-1,5-3.5,5.7-4.4c2.1-2.6,3.4-6.3,3.5-11.3"/>
	<path class="st6" d="M37.5,144c1.1-0.6,4.1-2.2,8.2-1.7c2.9,0.3,5,1.5,6.1,2.3c-0.7-0.1-2.7-0.2-4.7,1.1c-1.1,0.7-1.7,1.6-2.1,2.2"
		/>
	<path class="st6" d="M162.2,96.7c-1.2,0.2-3.7,0.9-6,2.8c-3,2.6-4,5.8-4.3,7.1c0.7-0.6,2-1.4,3.7-1.8c1.4-0.3,2.6-0.3,3.5-0.2"/>
	<path class="st6" d="M92.4,112.9c0.1-4,1.5-7.7,6.6-9.5c5-1.8,10.4,0.4,12,4.9c0.7,1.9,0.6,6.7-3,9.7"/>
</g>
</svg>
