<?xml version="1.0" encoding="UTF-8" standalone="no"?>
<!DOCTYPE svg PUBLIC "-//W3C//DTD SVG 1.1//EN" "http://www.w3.org/Graphics/SVG/1.1/DTD/svg11.dtd">
<svg xmlns="http://www.w3.org/2000/svg" version="1.1" viewBox="0.00 0.00 696.00 604.00">
<g stroke-width="2.00" fill="none" stroke-linecap="butt">
<path stroke="#291a00" vector-effect="non-scaling-stroke" d="
  M 218.73 383.99
  C 206.42 349.94 258.98 313.47 283.07 299.58
  C 323.98 275.98 371.84 259.38 419.31 257.09
  C 441.90 256.00 461.61 260.07 480.13 271.35
  Q 486.59 275.28 490.39 281.57
  A 0.87 0.87 0.0 0 0 491.72 281.76
  Q 511.26 264.13 530.94 246.70
  C 562.12 219.10 605.10 182.68 649.27 203.92
  A 0.20 0.20 0.0 0 0 649.54 203.66
  C 636.87 173.27 615.98 151.59 588.05 134.58
  C 584.13 132.19 582.70 128.79 585.72 124.99
  Q 590.75 118.66 593.56 114.13
  C 612.10 84.24 601.16 50.18 571.77 33.02
  Q 564.45 28.75 555.27 28.30
  C 532.87 27.21 513.25 35.60 499.38 52.76
  C 490.56 63.69 486.22 75.93 483.64 89.87
  C 482.91 93.87 481.10 94.84 477.24 94.56
  C 435.25 91.59 390.47 93.24 347.58 99.88
  A 0.56 0.56 0.0 0 0 347.20 100.75
  C 357.33 116.04 354.95 135.83 344.55 150.28
  C 341.87 154.00 338.35 158.25 334.38 159.14
  C 328.98 160.36 325.35 156.06 326.66 151.09
  C 327.30 148.64 329.34 147.15 331.26 145.27
  C 347.21 129.63 342.17 103.02 319.49 97.00
  C 300.22 91.89 277.93 103.26 275.32 124.52
  C 274.69 129.62 275.73 138.21 268.23 138.16
  C 262.96 138.13 261.58 134.08 261.68 129.51
  Q 262.22 106.14 279.33 92.45
  Q 279.69 92.17 279.25 92.04
  Q 262.61 87.28 248.96 96.98
  C 239.52 103.70 232.35 115.98 233.47 128.02
  C 234.01 133.80 235.81 142.79 225.80 140.47
  A 1.40 1.38 38.6 0 0 224.86 140.57
  Q 221.91 141.99 219.09 143.60
  Q 163.90 175.07 127.13 226.77
  C 123.36 232.08 118.57 230.71 114.47 226.56
  Q 109.16 221.19 102.17 216.61
  C 66.41 193.16 28.20 220.69 22.72 258.19
  C 18.11 289.78 39.47 314.40 68.45 322.59
  C 72.79 323.81 73.47 326.40 72.74 330.71
  C 71.14 340.19 69.00 350.57 68.10 359.15
  Q 65.03 388.40 71.52 417.24
  Q 71.72 418.12 71.96 418.33
  Q 72.67 418.95 73.03 418.07
  C 84.23 390.44 116.04 386.20 141.81 385.07
  C 165.88 384.02 189.85 384.62 214.00 385.02
  Q 216.13 385.05 218.37 384.63
  Q 218.92 384.53 218.73 383.99"
/>
<path stroke="#736e4e" vector-effect="non-scaling-stroke" d="
  M 167.65 539.41
  C 212.98 563.65 266.29 574.61 317.50 572.98
  C 413.93 569.90 509.08 531.75 579.68 465.67
  C 642.52 406.86 687.58 317.05 660.04 229.53
  C 659.65 228.30 659.04 227.70 658.16 226.86
  C 650.03 219.13 639.86 213.11 628.80 210.95
  C 606.91 206.67 581.96 222.86 565.18 235.92
  C 542.76 253.36 521.74 272.68 500.62 291.65
  C 497.74 294.23 494.93 295.05 494.47 299.54
  C 492.01 323.68 465.39 346.66 446.30 359.33
  C 408.42 384.50 363.79 400.82 319.23 407.83
  C 290.40 412.36 255.20 413.99 229.45 397.81
  C 228.70 397.34 227.48 396.88 226.74 396.95
  C 195.98 399.80 174.20 396.48 148.08 397.75
  C 118.33 399.19 80.71 402.38 80.97 442.79
  C 81.01 448.89 84.64 455.99 87.47 461.01
  Q 116.11 511.86 167.65 539.41"
/>
<path stroke="#737980" vector-effect="non-scaling-stroke" d="
  M 273.21 321.31
  C 278.92 323.02 290.34 319.58 296.21 318.07
  Q 336.81 307.60 375.55 291.52
  Q 392.40 284.53 404.38 278.28
  C 410.07 275.31 413.07 273.70 416.92 269.65
  A 1.50 1.50 0.0 0 0 416.12 267.14
  Q 411.12 266.18 405.16 267.30
  Q 392.17 269.74 379.49 273.47
  Q 337.68 285.79 297.78 303.32
  C 291.15 306.23 276.06 312.57 272.18 318.50
  A 1.87 1.86 24.9 0 0 273.21 321.31"
/>
<path stroke="#291a00" vector-effect="non-scaling-stroke" d="
  M 529.43 90.42
  C 535.50 80.04 548.94 72.61 560.13 70.20
  Q 565.23 69.10 565.22 64.02
  C 565.21 56.90 557.71 56.93 552.83 58.36
  Q 522.48 67.22 511.50 96.41
  C 509.35 102.14 507.02 107.39 512.60 111.13
  C 514.55 112.44 516.86 112.62 518.72 111.21
  Q 530.60 102.22 545.08 102.99
  C 550.31 103.27 552.99 99.84 552.00 94.58
  C 550.59 87.01 534.98 90.40 529.80 90.99
  Q 529.04 91.07 529.43 90.42"
/>
<path stroke="#291a00" vector-effect="non-scaling-stroke" d="
  M 541.50 217.41
  C 549.26 156.10 455.80 142.35 441.27 198.39
  C 437.56 212.72 441.57 227.59 451.35 238.69
  A 1.91 1.89 -28.5 0 0 453.30 239.26
  C 462.06 236.78 471.79 233.64 479.77 232.13
  Q 497.94 228.72 516.42 231.32
  C 526.82 232.78 535.32 237.13 545.66 231.62
  C 551.46 228.52 553.44 222.81 547.66 218.21
  A 1.08 1.08 0.0 0 0 546.97 217.96
  L 541.98 217.95
  Q 541.43 217.95 541.50 217.41"
/>
<path stroke="#291a00" vector-effect="non-scaling-stroke" d="
  M 76.36 261.70
  C 72.44 264.66 64.44 271.50 64.06 276.67
  C 63.70 281.47 69.25 285.25 73.61 283.08
  C 75.48 282.15 76.65 280.19 77.92 278.49
  C 80.83 274.57 84.55 272.13 89.16 270.67
  C 93.19 269.39 100.07 271.30 103.00 268.73
  C 106.89 265.32 105.58 259.64 101.46 257.03
  C 82.60 245.09 58.01 243.78 38.25 254.26
  Q 34.67 256.16 33.53 258.12
  C 31.43 261.72 33.98 267.77 38.51 267.97
  C 41.17 268.09 45.00 266.01 47.66 264.71
  Q 61.37 258.04 76.23 261.12
  Q 76.94 261.26 76.36 261.70"
/>
<path stroke="#291a00" vector-effect="non-scaling-stroke" d="
  M 140.32 366.07
  C 137.28 366.76 134.92 368.56 134.47 371.81
  C 133.66 377.62 138.08 379.61 143.13 379.87
  C 150.86 380.27 158.56 377.55 163.08 371.01
  Q 177.56 350.09 198.94 336.49
  C 205.56 332.28 214.62 328.57 221.23 325.27
  C 222.86 324.46 223.85 323.29 223.69 321.29
  C 221.76 297.90 206.81 280.44 182.92 278.80
  C 154.90 276.89 129.70 298.47 126.52 326.20
  Q 123.84 349.60 140.45 365.58
  A 0.29 0.29 0.0 0 1 140.32 366.07"
/>
<path stroke="#807d79" vector-effect="non-scaling-stroke" d="
  M 505.8917 192.1248
  A 9.24 8.88 63.3 0 0 509.6731 179.8800
  A 9.24 8.88 63.3 0 0 497.5883 175.6152
  A 9.24 8.88 63.3 0 0 493.8069 187.8600
  A 9.24 8.88 63.3 0 0 505.8917 192.1248"
/>
<path stroke="#736e4e" vector-effect="non-scaling-stroke" d="
  M 494.56 325.38
  C 491.15 330.48 498.37 333.38 502.03 328.92
  Q 547.09 274.01 616.23 256.91
  A 2.21 2.18 -86.8 0 0 617.77 255.51
  C 619.43 250.79 615.81 248.66 611.65 249.71
  Q 544.97 266.51 499.89 318.39
  Q 496.99 321.73 494.56 325.38"
/>
<path stroke="#736e4e" vector-effect="non-scaling-stroke" d="
  M 525.32 311.33
  C 520.24 315.66 526.17 321.56 530.01 318.29
  Q 567.19 286.58 616.20 283.54
  Q 616.28 283.54 617.78 283.55
  C 623.73 283.60 622.61 275.69 616.74 275.70
  C 583.86 275.74 550.02 290.30 525.32 311.33"
/>
<path stroke="#736e4e" vector-effect="non-scaling-stroke" d="
  M 493.28 344.24
  C 495.44 347.62 500.42 343.92 502.97 342.46
  Q 555.86 312.24 617.66 318.59
  C 622.05 319.04 624.38 316.55 622.72 312.22
  Q 622.54 311.75 622.09 311.53
  Q 620.97 311.00 619.76 310.86
  Q 554.55 303.57 497.91 335.66
  C 494.58 337.55 490.83 340.42 493.28 344.24"
/>
<path stroke="#96704e" vector-effect="non-scaling-stroke" d="
  M 287.62 482.43
  Q 298.26 484.61 308.00 483.02"
/>
<path stroke="#736e4e" vector-effect="non-scaling-stroke" d="
  M 308.00 483.02
  C 337.44 483.45 364.04 481.37 392.02 473.06
  C 428.50 462.22 473.09 443.41 498.20 414.19
  Q 500.30 411.73 507.40 402.10
  A 0.74 0.73 26.5 0 1 508.22 401.83
  C 535.46 410.54 574.86 412.38 596.18 389.18
  C 610.56 373.52 615.56 356.08 617.00 335.19
  Q 617.28 330.98 616.42 329.05
  C 614.66 325.09 607.70 323.64 605.22 327.49
  Q 604.31 328.91 604.10 332.66
  C 603.06 351.13 598.76 367.43 585.58 381.08
  C 568.00 399.29 533.83 396.01 512.26 389.42
  C 508.06 388.14 500.59 384.99 494.50 383.81
  C 457.82 376.70 421.05 378.28 385.03 391.46
  C 354.51 402.63 325.14 419.12 302.53 443.02
  C 294.18 451.84 285.40 460.17 278.90 470.98
  C 266.59 491.45 248.19 512.10 222.00 512.24
  C 210.72 512.30 198.70 510.10 189.13 502.98
  C 185.28 500.11 179.29 499.23 177.43 504.99
  C 174.53 513.92 193.25 520.80 199.51 522.49
  C 220.96 528.30 241.60 525.69 259.65 512.85
  Q 276.73 500.70 287.62 482.43"
/>
<path stroke="#230200" vector-effect="non-scaling-stroke" d="
  M 308.00 483.02
  Q 307.33 483.20 306.97 482.44
  Q 306.75 481.96 306.26 481.75
  C 302.74 480.19 296.52 480.21 292.54 479.50
  Q 290.65 479.17 289.60 479.87
  Q 288.30 480.73 287.62 482.43"
/>
<path stroke="#736e4e" vector-effect="non-scaling-stroke" d="
  M 114.16 442.60
  Q 116.64 444.64 118.79 443.58
  C 161.72 422.54 205.63 415.99 252.25 424.75
  Q 254.53 425.18 256.55 423.79
  A 0.97 0.95 74.5 0 0 256.97 423.03
  C 257.14 418.88 257.77 417.65 253.19 416.75
  C 207.28 407.80 160.42 414.30 118.30 434.46
  C 115.61 435.75 110.00 439.18 114.16 442.60"
/>
<path stroke="#736e4e" vector-effect="non-scaling-stroke" d="
  M 127.48 463.10
  C 128.41 465.86 131.28 467.36 133.85 465.35
  Q 171.91 435.54 220.53 434.61
  C 224.89 434.52 228.40 433.96 226.68 428.40
  Q 226.31 427.21 225.07 427.10
  C 192.37 424.23 156.72 437.49 130.99 456.98
  C 129.01 458.49 126.56 460.36 127.48 463.10"
/>
<path stroke="#736e4e" vector-effect="non-scaling-stroke" d="
  M 264.51 434.60
  C 270.65 433.46 267.82 425.63 261.96 426.67
  Q 197.59 438.19 152.10 484.45
  C 148.95 487.65 146.70 491.16 152.08 493.87
  Q 153.68 494.67 154.80 493.55
  C 186.55 461.69 220.03 442.84 264.51 434.60"
/>
<path stroke="#807d79" vector-effect="non-scaling-stroke" d="
  M 195.58 302.18
  A 9.04 9.04 0.0 0 0 186.54 293.14
  A 9.04 9.04 0.0 0 0 177.50 302.18
  A 9.04 9.04 0.0 0 0 186.54 311.22
  A 9.04 9.04 0.0 0 0 195.58 302.18"
/>
<path stroke="#807d79" vector-effect="non-scaling-stroke" d="
  M 315.35 450.20
  C 323.24 454.50 338.02 455.46 340.66 444.28
  C 342.20 437.80 335.76 429.57 347.33 429.12
  Q 388.55 427.53 423.53 406.28
  C 427.74 403.72 432.34 400.31 436.77 397.31
  C 441.54 394.08 445.69 393.98 448.05 399.98
  C 450.63 406.54 457.23 409.73 463.84 406.70
  Q 471.14 403.36 473.61 395.02
  A 0.83 0.83 0.0 0 0 472.91 393.97
  C 425.92 388.49 381.93 401.84 342.64 427.12
  C 332.96 433.34 322.85 440.67 315.21 449.38
  A 0.53 0.53 0.0 0 0 315.35 450.20"
/>
<path stroke="#230200" vector-effect="non-scaling-stroke" d="
  M 304.73 460.57
  L 299.27 466.39
  A 0.50 0.50 0.0 0 0 299.56 467.23
  C 332.26 472.50 364.86 468.41 397.05 457.63
  C 421.78 449.34 445.79 438.73 467.21 423.69
  C 477.05 416.79 487.05 408.16 493.58 397.94
  A 0.58 0.58 0.0 0 0 493.21 397.06
  L 487.30 395.79
  Q 486.57 395.63 486.45 396.37
  C 482.96 418.74 456.41 430.61 440.07 412.48
  A 0.61 0.61 0.0 0 0 439.31 412.36
  Q 434.04 415.39 428.83 418.51
  Q 394.71 438.94 355.11 441.92
  A 0.82 0.82 0.0 0 0 354.35 442.68
  C 352.86 468.80 323.54 470.86 305.91 460.40
  A 0.95 0.95 0.0 0 0 304.73 460.57"
/>
</g>
<path fill="#000000" d="
  M 667.66 359.18
  C 623.97 476.74 504.12 555.03 385.50 578.51
  Q 348.08 585.92 307.25 586.26
  Q 298.84 586.33 276.69 584.52
  Q 232.84 580.95 191.80 565.21
  C 94.70 527.96 36.89 439.80 58.74 334.44
  A 1.23 1.22 16.2 0 0 57.96 333.04
  C 42.17 327.26 27.61 316.35 18.68 302.11
  C -1.24 270.32 10.35 224.65 41.54 204.57
  C 66.36 188.59 97.78 193.26 119.28 212.76
  A 1.06 1.06 0.0 0 0 120.84 212.61
  Q 160.59 159.89 218.72 128.50
  A 2.78 2.78 0.0 0 0 220.18 126.14
  C 221.40 91.02 253.99 68.69 287.19 80.61
  C 289.61 81.48 292.58 83.45 295.33 84.62
  Q 295.79 84.81 296.26 84.68
  Q 314.08 79.64 330.72 87.04
  C 331.75 87.49 333.33 89.02 334.75 88.76
  C 379.56 80.73 425.03 78.81 470.58 81.05
  Q 471.55 81.10 471.85 80.18
  Q 473.31 75.75 474.89 70.79
  C 486.37 34.70 517.78 13.60 556.03 15.22
  C 570.88 15.85 581.80 21.88 592.84 32.00
  C 619.80 56.73 623.20 96.50 601.97 126.00
  A 1.20 1.20 0.0 0 0 602.29 127.72
  C 639.24 151.56 660.67 186.36 673.45 228.05
  C 686.45 270.44 682.98 317.94 667.66 359.18
  Z
  M 218.73 383.99
  C 206.42 349.94 258.98 313.47 283.07 299.58
  C 323.98 275.98 371.84 259.38 419.31 257.09
  C 441.90 256.00 461.61 260.07 480.13 271.35
  Q 486.59 275.28 490.39 281.57
  A 0.87 0.87 0.0 0 0 491.72 281.76
  Q 511.26 264.13 530.94 246.70
  C 562.12 219.10 605.10 182.68 649.27 203.92
  A 0.20 0.20 0.0 0 0 649.54 203.66
  C 636.87 173.27 615.98 151.59 588.05 134.58
  C 584.13 132.19 582.70 128.79 585.72 124.99
  Q 590.75 118.66 593.56 114.13
  C 612.10 84.24 601.16 50.18 571.77 33.02
  Q 564.45 28.75 555.27 28.30
  C 532.87 27.21 513.25 35.60 499.38 52.76
  C 490.56 63.69 486.22 75.93 483.64 89.87
  C 482.91 93.87 481.10 94.84 477.24 94.56
  C 435.25 91.59 390.47 93.24 347.58 99.88
  A 0.56 0.56 0.0 0 0 347.20 100.75
  C 357.33 116.04 354.95 135.83 344.55 150.28
  C 341.87 154.00 338.35 158.25 334.38 159.14
  C 328.98 160.36 325.35 156.06 326.66 151.09
  C 327.30 148.64 329.34 147.15 331.26 145.27
  C 347.21 129.63 342.17 103.02 319.49 97.00
  C 300.22 91.89 277.93 103.26 275.32 124.52
  C 274.69 129.62 275.73 138.21 268.23 138.16
  C 262.96 138.13 261.58 134.08 261.68 129.51
  Q 262.22 106.14 279.33 92.45
  Q 279.69 92.17 279.25 92.04
  Q 262.61 87.28 248.96 96.98
  C 239.52 103.70 232.35 115.98 233.47 128.02
  C 234.01 133.80 235.81 142.79 225.80 140.47
  A 1.40 1.38 38.6 0 0 224.86 140.57
  Q 221.91 141.99 219.09 143.60
  Q 163.90 175.07 127.13 226.77
  C 123.36 232.08 118.57 230.71 114.47 226.56
  Q 109.16 221.19 102.17 216.61
  C 66.41 193.16 28.20 220.69 22.72 258.19
  C 18.11 289.78 39.47 314.40 68.45 322.59
  C 72.79 323.81 73.47 326.40 72.74 330.71
  C 71.14 340.19 69.00 350.57 68.10 359.15
  Q 65.03 388.40 71.52 417.24
  Q 71.72 418.12 71.96 418.33
  Q 72.67 418.95 73.03 418.07
  C 84.23 390.44 116.04 386.20 141.81 385.07
  C 165.88 384.02 189.85 384.62 214.00 385.02
  Q 216.13 385.05 218.37 384.63
  Q 218.92 384.53 218.73 383.99
  Z
  M 167.65 539.41
  C 212.98 563.65 266.29 574.61 317.50 572.98
  C 413.93 569.90 509.08 531.75 579.68 465.67
  C 642.52 406.86 687.58 317.05 660.04 229.53
  C 659.65 228.30 659.04 227.70 658.16 226.86
  C 650.03 219.13 639.86 213.11 628.80 210.95
  C 606.91 206.67 581.96 222.86 565.18 235.92
  C 542.76 253.36 521.74 272.68 500.62 291.65
  C 497.74 294.23 494.93 295.05 494.47 299.54
  C 492.01 323.68 465.39 346.66 446.30 359.33
  C 408.42 384.50 363.79 400.82 319.23 407.83
  C 290.40 412.36 255.20 413.99 229.45 397.81
  C 228.70 397.34 227.48 396.88 226.74 396.95
  C 195.98 399.80 174.20 396.48 148.08 397.75
  C 118.33 399.19 80.71 402.38 80.97 442.79
  C 81.01 448.89 84.64 455.99 87.47 461.01
  Q 116.11 511.86 167.65 539.41
  Z
  M 273.21 321.31
  C 278.92 323.02 290.34 319.58 296.21 318.07
  Q 336.81 307.60 375.55 291.52
  Q 392.40 284.53 404.38 278.28
  C 410.07 275.31 413.07 273.70 416.92 269.65
  A 1.50 1.50 0.0 0 0 416.12 267.14
  Q 411.12 266.18 405.16 267.30
  Q 392.17 269.74 379.49 273.47
  Q 337.68 285.79 297.78 303.32
  C 291.15 306.23 276.06 312.57 272.18 318.50
  A 1.87 1.86 24.9 0 0 273.21 321.31
  Z"
/>
<path fill="#513400" d="
  M 283.07 299.58
  C 258.98 313.47 206.42 349.94 218.73 383.99
  Q 218.92 384.53 218.37 384.63
  Q 216.13 385.05 214.00 385.02
  C 189.85 384.62 165.88 384.02 141.81 385.07
  C 116.04 386.20 84.23 390.44 73.03 418.07
  Q 72.67 418.95 71.96 418.33
  Q 71.72 418.12 71.52 417.24
  Q 65.03 388.40 68.10 359.15
  C 69.00 350.57 71.14 340.19 72.74 330.71
  C 73.47 326.40 72.79 323.81 68.45 322.59
  C 39.47 314.40 18.11 289.78 22.72 258.19
  C 28.20 220.69 66.41 193.16 102.17 216.61
  Q 109.16 221.19 114.47 226.56
  C 118.57 230.71 123.36 232.08 127.13 226.77
  Q 163.90 175.07 219.09 143.60
  Q 221.91 141.99 224.86 140.57
  A 1.40 1.38 38.6 0 1 225.80 140.47
  C 235.81 142.79 234.01 133.80 233.47 128.02
  C 232.35 115.98 239.52 103.70 248.96 96.98
  Q 262.61 87.28 279.25 92.04
  Q 279.69 92.17 279.33 92.45
  Q 262.22 106.14 261.68 129.51
  C 261.58 134.08 262.96 138.13 268.23 138.16
  C 275.73 138.21 274.69 129.62 275.32 124.52
  C 277.93 103.26 300.22 91.89 319.49 97.00
  C 342.17 103.02 347.21 129.63 331.26 145.27
  C 329.34 147.15 327.30 148.64 326.66 151.09
  C 325.35 156.06 328.98 160.36 334.38 159.14
  C 338.35 158.25 341.87 154.00 344.55 150.28
  C 354.95 135.83 357.33 116.04 347.20 100.75
  A 0.56 0.56 0.0 0 1 347.58 99.88
  C 390.47 93.24 435.25 91.59 477.24 94.56
  C 481.10 94.84 482.91 93.87 483.64 89.87
  C 486.22 75.93 490.56 63.69 499.38 52.76
  C 513.25 35.60 532.87 27.21 555.27 28.30
  Q 564.45 28.75 571.77 33.02
  C 601.16 50.18 612.10 84.24 593.56 114.13
  Q 590.75 118.66 585.72 124.99
  C 582.70 128.79 584.13 132.19 588.05 134.58
  C 615.98 151.59 636.87 173.27 649.54 203.66
  A 0.20 0.20 0.0 0 1 649.27 203.92
  C 605.10 182.68 562.12 219.10 530.94 246.70
  Q 511.26 264.13 491.72 281.76
  A 0.87 0.87 0.0 0 1 490.39 281.57
  Q 486.59 275.28 480.13 271.35
  C 461.61 260.07 441.90 256.00 419.31 257.09
  C 371.84 259.38 323.98 275.98 283.07 299.58
  Z
  M 529.43 90.42
  C 535.50 80.04 548.94 72.61 560.13 70.20
  Q 565.23 69.10 565.22 64.02
  C 565.21 56.90 557.71 56.93 552.83 58.36
  Q 522.48 67.22 511.50 96.41
  C 509.35 102.14 507.02 107.39 512.60 111.13
  C 514.55 112.44 516.86 112.62 518.72 111.21
  Q 530.60 102.22 545.08 102.99
  C 550.31 103.27 552.99 99.84 552.00 94.58
  C 550.59 87.01 534.98 90.40 529.80 90.99
  Q 529.04 91.07 529.43 90.42
  Z
  M 541.50 217.41
  C 549.26 156.10 455.80 142.35 441.27 198.39
  C 437.56 212.72 441.57 227.59 451.35 238.69
  A 1.91 1.89 -28.5 0 0 453.30 239.26
  C 462.06 236.78 471.79 233.64 479.77 232.13
  Q 497.94 228.72 516.42 231.32
  C 526.82 232.78 535.32 237.13 545.66 231.62
  C 551.46 228.52 553.44 222.81 547.66 218.21
  A 1.08 1.08 0.0 0 0 546.97 217.96
  L 541.98 217.95
  Q 541.43 217.95 541.50 217.41
  Z
  M 76.36 261.70
  C 72.44 264.66 64.44 271.50 64.06 276.67
  C 63.70 281.47 69.25 285.25 73.61 283.08
  C 75.48 282.15 76.65 280.19 77.92 278.49
  C 80.83 274.57 84.55 272.13 89.16 270.67
  C 93.19 269.39 100.07 271.30 103.00 268.73
  C 106.89 265.32 105.58 259.64 101.46 257.03
  C 82.60 245.09 58.01 243.78 38.25 254.26
  Q 34.67 256.16 33.53 258.12
  C 31.43 261.72 33.98 267.77 38.51 267.97
  C 41.17 268.09 45.00 266.01 47.66 264.71
  Q 61.37 258.04 76.23 261.12
  Q 76.94 261.26 76.36 261.70
  Z
  M 140.32 366.07
  C 137.28 366.76 134.92 368.56 134.47 371.81
  C 133.66 377.62 138.08 379.61 143.13 379.87
  C 150.86 380.27 158.56 377.55 163.08 371.01
  Q 177.56 350.09 198.94 336.49
  C 205.56 332.28 214.62 328.57 221.23 325.27
  C 222.86 324.46 223.85 323.29 223.69 321.29
  C 221.76 297.90 206.81 280.44 182.92 278.80
  C 154.90 276.89 129.70 298.47 126.52 326.20
  Q 123.84 349.60 140.45 365.58
  A 0.29 0.29 0.0 0 1 140.32 366.07
  Z"
/>
<path fill="#000000" d="
  M 529.80 90.99
  C 534.98 90.40 550.59 87.01 552.00 94.58
  C 552.99 99.84 550.31 103.27 545.08 102.99
  Q 530.60 102.22 518.72 111.21
  C 516.86 112.62 514.55 112.44 512.60 111.13
  C 507.02 107.39 509.35 102.14 511.50 96.41
  Q 522.48 67.22 552.83 58.36
  C 557.71 56.93 565.21 56.90 565.22 64.02
  Q 565.23 69.10 560.13 70.20
  C 548.94 72.61 535.50 80.04 529.43 90.42
  Q 529.04 91.07 529.80 90.99
  Z"
/>
<path fill="#000000" d="
  M 441.27 198.39
  C 455.80 142.35 549.26 156.10 541.50 217.41
  Q 541.43 217.95 541.98 217.95
  L 546.97 217.96
  A 1.08 1.08 0.0 0 1 547.66 218.21
  C 553.44 222.81 551.46 228.52 545.66 231.62
  C 535.32 237.13 526.82 232.78 516.42 231.32
  Q 497.94 228.72 479.77 232.13
  C 471.79 233.64 462.06 236.78 453.30 239.26
  A 1.91 1.89 -28.5 0 1 451.35 238.69
  C 441.57 227.59 437.56 212.72 441.27 198.39
  Z
  M 505.8917 192.1248
  A 9.24 8.88 63.3 0 0 509.6731 179.8800
  A 9.24 8.88 63.3 0 0 497.5883 175.6152
  A 9.24 8.88 63.3 0 0 493.8069 187.8600
  A 9.24 8.88 63.3 0 0 505.8917 192.1248
  Z"
/>
<ellipse fill="#fff9f1" cx="0.00" cy="0.00" transform="translate(501.74,183.87) rotate(63.3)" rx="9.24" ry="8.88"/>
<path fill="#e6db9b" d="
  M 317.50 572.98
  C 266.29 574.61 212.98 563.65 167.65 539.41
  Q 116.11 511.86 87.47 461.01
  C 84.64 455.99 81.01 448.89 80.97 442.79
  C 80.71 402.38 118.33 399.19 148.08 397.75
  C 174.20 396.48 195.98 399.80 226.74 396.95
  C 227.48 396.88 228.70 397.34 229.45 397.81
  C 255.20 413.99 290.40 412.36 319.23 407.83
  C 363.79 400.82 408.42 384.50 446.30 359.33
  C 465.39 346.66 492.01 323.68 494.47 299.54
  C 494.93 295.05 497.74 294.23 500.62 291.65
  C 521.74 272.68 542.76 253.36 565.18 235.92
  C 581.96 222.86 606.91 206.67 628.80 210.95
  C 639.86 213.11 650.03 219.13 658.16 226.86
  C 659.04 227.70 659.65 228.30 660.04 229.53
  C 687.58 317.05 642.52 406.86 579.68 465.67
  C 509.08 531.75 413.93 569.90 317.50 572.98
  Z
  M 494.56 325.38
  C 491.15 330.48 498.37 333.38 502.03 328.92
  Q 547.09 274.01 616.23 256.91
  A 2.21 2.18 -86.8 0 0 617.77 255.51
  C 619.43 250.79 615.81 248.66 611.65 249.71
  Q 544.97 266.51 499.89 318.39
  Q 496.99 321.73 494.56 325.38
  Z
  M 525.32 311.33
  C 520.24 315.66 526.17 321.56 530.01 318.29
  Q 567.19 286.58 616.20 283.54
  Q 616.28 283.54 617.78 283.55
  C 623.73 283.60 622.61 275.69 616.74 275.70
  C 583.86 275.74 550.02 290.30 525.32 311.33
  Z
  M 493.28 344.24
  C 495.44 347.62 500.42 343.92 502.97 342.46
  Q 555.86 312.24 617.66 318.59
  C 622.05 319.04 624.38 316.55 622.72 312.22
  Q 622.54 311.75 622.09 311.53
  Q 620.97 311.00 619.76 310.86
  Q 554.55 303.57 497.91 335.66
  C 494.58 337.55 490.83 340.42 493.28 344.24
  Z
  M 287.62 482.43
  Q 298.26 484.61 308.00 483.02
  C 337.44 483.45 364.04 481.37 392.02 473.06
  C 428.50 462.22 473.09 443.41 498.20 414.19
  Q 500.30 411.73 507.40 402.10
  A 0.74 0.73 26.5 0 1 508.22 401.83
  C 535.46 410.54 574.86 412.38 596.18 389.18
  C 610.56 373.52 615.56 356.08 617.00 335.19
  Q 617.28 330.98 616.42 329.05
  C 614.66 325.09 607.70 323.64 605.22 327.49
  Q 604.31 328.91 604.10 332.66
  C 603.06 351.13 598.76 367.43 585.58 381.08
  C 568.00 399.29 533.83 396.01 512.26 389.42
  C 508.06 388.14 500.59 384.99 494.50 383.81
  C 457.82 376.70 421.05 378.28 385.03 391.46
  C 354.51 402.63 325.14 419.12 302.53 443.02
  C 294.18 451.84 285.40 460.17 278.90 470.98
  C 266.59 491.45 248.19 512.10 222.00 512.24
  C 210.72 512.30 198.70 510.10 189.13 502.98
  C 185.28 500.11 179.29 499.23 177.43 504.99
  C 174.53 513.92 193.25 520.80 199.51 522.49
  C 220.96 528.30 241.60 525.69 259.65 512.85
  Q 276.73 500.70 287.62 482.43
  Z
  M 114.16 442.60
  Q 116.64 444.64 118.79 443.58
  C 161.72 422.54 205.63 415.99 252.25 424.75
  Q 254.53 425.18 256.55 423.79
  A 0.97 0.95 74.5 0 0 256.97 423.03
  C 257.14 418.88 257.77 417.65 253.19 416.75
  C 207.28 407.80 160.42 414.30 118.30 434.46
  C 115.61 435.75 110.00 439.18 114.16 442.60
  Z
  M 127.48 463.10
  C 128.41 465.86 131.28 467.36 133.85 465.35
  Q 171.91 435.54 220.53 434.61
  C 224.89 434.52 228.40 433.96 226.68 428.40
  Q 226.31 427.21 225.07 427.10
  C 192.37 424.23 156.72 437.49 130.99 456.98
  C 129.01 458.49 126.56 460.36 127.48 463.10
  Z
  M 264.51 434.60
  C 270.65 433.46 267.82 425.63 261.96 426.67
  Q 197.59 438.19 152.10 484.45
  C 148.95 487.65 146.70 491.16 152.08 493.87
  Q 153.68 494.67 154.80 493.55
  C 186.55 461.69 220.03 442.84 264.51 434.60
  Z"
/>
<path fill="#000000" d="
  M 76.23 261.12
  Q 61.37 258.04 47.66 264.71
  C 45.00 266.01 41.17 268.09 38.51 267.97
  C 33.98 267.77 31.43 261.72 33.53 258.12
  Q 34.67 256.16 38.25 254.26
  C 58.01 243.78 82.60 245.09 101.46 257.03
  C 105.58 259.64 106.89 265.32 103.00 268.73
  C 100.07 271.30 93.19 269.39 89.16 270.67
  C 84.55 272.13 80.83 274.57 77.92 278.49
  C 76.65 280.19 75.48 282.15 73.61 283.08
  C 69.25 285.25 63.70 281.47 64.06 276.67
  C 64.44 271.50 72.44 264.66 76.36 261.70
  Q 76.94 261.26 76.23 261.12
  Z"
/>
<path fill="#000000" d="
  M 502.03 328.92
  C 498.37 333.38 491.15 330.48 494.56 325.38
  Q 496.99 321.73 499.89 318.39
  Q 544.97 266.51 611.65 249.71
  C 615.81 248.66 619.43 250.79 617.77 255.51
  A 2.21 2.18 -86.8 0 1 616.23 256.91
  Q 547.09 274.01 502.03 328.92
  Z"
/>
<path fill="#e6f2ff" d="
  M 273.21 321.31
  A 1.87 1.86 24.9 0 1 272.18 318.50
  C 276.06 312.57 291.15 306.23 297.78 303.32
  Q 337.68 285.79 379.49 273.47
  Q 392.17 269.74 405.16 267.30
  Q 411.12 266.18 416.12 267.14
  A 1.50 1.50 0.0 0 1 416.92 269.65
  C 413.07 273.70 410.07 275.31 404.38 278.28
  Q 392.40 284.53 375.55 291.52
  Q 336.81 307.60 296.21 318.07
  C 290.34 319.58 278.92 323.02 273.21 321.31
  Z"
/>
<path fill="#000000" d="
  M 530.01 318.29
  C 526.17 321.56 520.24 315.66 525.32 311.33
  C 550.02 290.30 583.86 275.74 616.74 275.70
  C 622.61 275.69 623.73 283.60 617.78 283.55
  Q 616.28 283.54 616.20 283.54
  Q 567.19 286.58 530.01 318.29
  Z"
/>
<path fill="#000000" d="
  M 140.32 366.07
  A 0.29 0.29 0.0 0 0 140.45 365.58
  Q 123.84 349.60 126.52 326.20
  C 129.70 298.47 154.90 276.89 182.92 278.80
  C 206.81 280.44 221.76 297.90 223.69 321.29
  C 223.85 323.29 222.86 324.46 221.23 325.27
  C 214.62 328.57 205.56 332.28 198.94 336.49
  Q 177.56 350.09 163.08 371.01
  C 158.56 377.55 150.86 380.27 143.13 379.87
  C 138.08 379.61 133.66 377.62 134.47 371.81
  C 134.92 368.56 137.28 366.76 140.32 366.07
  Z
  M 195.58 302.18
  A 9.04 9.04 0.0 0 0 186.54 293.14
  A 9.04 9.04 0.0 0 0 177.50 302.18
  A 9.04 9.04 0.0 0 0 186.54 311.22
  A 9.04 9.04 0.0 0 0 195.58 302.18
  Z"
/>
<circle fill="#fff9f1" cx="186.54" cy="302.18" r="9.04"/>
<path fill="#000000" d="
  M 493.28 344.24
  C 490.83 340.42 494.58 337.55 497.91 335.66
  Q 554.55 303.57 619.76 310.86
  Q 620.97 311.00 622.09 311.53
  Q 622.54 311.75 622.72 312.22
  C 624.38 316.55 622.05 319.04 617.66 318.59
  Q 555.86 312.24 502.97 342.46
  C 500.42 343.92 495.44 347.62 493.28 344.24
  Z"
/>
<path fill="#000000" d="
  M 308.00 483.02
  Q 307.33 483.20 306.97 482.44
  Q 306.75 481.96 306.26 481.75
  C 302.74 480.19 296.52 480.21 292.54 479.50
  Q 290.65 479.17 289.60 479.87
  Q 288.30 480.73 287.62 482.43
  Q 276.73 500.70 259.65 512.85
  C 241.60 525.69 220.96 528.30 199.51 522.49
  C 193.25 520.80 174.53 513.92 177.43 504.99
  C 179.29 499.23 185.28 500.11 189.13 502.98
  C 198.70 510.10 210.72 512.30 222.00 512.24
  C 248.19 512.10 266.59 491.45 278.90 470.98
  C 285.40 460.17 294.18 451.84 302.53 443.02
  C 325.14 419.12 354.51 402.63 385.03 391.46
  C 421.05 378.28 457.82 376.70 494.50 383.81
  C 500.59 384.99 508.06 388.14 512.26 389.42
  C 533.83 396.01 568.00 399.29 585.58 381.08
  C 598.76 367.43 603.06 351.13 604.10 332.66
  Q 604.31 328.91 605.22 327.49
  C 607.70 323.64 614.66 325.09 616.42 329.05
  Q 617.28 330.98 617.00 335.19
  C 615.56 356.08 610.56 373.52 596.18 389.18
  C 574.86 412.38 535.46 410.54 508.22 401.83
  A 0.74 0.73 26.5 0 0 507.40 402.10
  Q 500.30 411.73 498.20 414.19
  C 473.09 443.41 428.50 462.22 392.02 473.06
  C 364.04 481.37 337.44 483.45 308.00 483.02
  Z
  M 315.35 450.20
  C 323.24 454.50 338.02 455.46 340.66 444.28
  C 342.20 437.80 335.76 429.57 347.33 429.12
  Q 388.55 427.53 423.53 406.28
  C 427.74 403.72 432.34 400.31 436.77 397.31
  C 441.54 394.08 445.69 393.98 448.05 399.98
  C 450.63 406.54 457.23 409.73 463.84 406.70
  Q 471.14 403.36 473.61 395.02
  A 0.83 0.83 0.0 0 0 472.91 393.97
  C 425.92 388.49 381.93 401.84 342.64 427.12
  C 332.96 433.34 322.85 440.67 315.21 449.38
  A 0.53 0.53 0.0 0 0 315.35 450.20
  Z
  M 304.73 460.57
  L 299.27 466.39
  A 0.50 0.50 0.0 0 0 299.56 467.23
  C 332.26 472.50 364.86 468.41 397.05 457.63
  C 421.78 449.34 445.79 438.73 467.21 423.69
  C 477.05 416.79 487.05 408.16 493.58 397.94
  A 0.58 0.58 0.0 0 0 493.21 397.06
  L 487.30 395.79
  Q 486.57 395.63 486.45 396.37
  C 482.96 418.74 456.41 430.61 440.07 412.48
  A 0.61 0.61 0.0 0 0 439.31 412.36
  Q 434.04 415.39 428.83 418.51
  Q 394.71 438.94 355.11 441.92
  A 0.82 0.82 0.0 0 0 354.35 442.68
  C 352.86 468.80 323.54 470.86 305.91 460.40
  A 0.95 0.95 0.0 0 0 304.73 460.57
  Z"
/>
<path fill="#fff9f1" d="
  M 315.35 450.20
  A 0.53 0.53 0.0 0 1 315.21 449.38
  C 322.85 440.67 332.96 433.34 342.64 427.12
  C 381.93 401.84 425.92 388.49 472.91 393.97
  A 0.83 0.83 0.0 0 1 473.61 395.02
  Q 471.14 403.36 463.84 406.70
  C 457.23 409.73 450.63 406.54 448.05 399.98
  C 445.69 393.98 441.54 394.08 436.77 397.31
  C 432.34 400.31 427.74 403.72 423.53 406.28
  Q 388.55 427.53 347.33 429.12
  C 335.76 429.57 342.20 437.80 340.66 444.28
  C 338.02 455.46 323.24 454.50 315.35 450.20
  Z"
/>
<path fill="#460400" d="
  M 299.27 466.39
  L 304.73 460.57
  A 0.95 0.95 0.0 0 1 305.91 460.40
  C 323.54 470.86 352.86 468.80 354.35 442.68
  A 0.82 0.82 0.0 0 1 355.11 441.92
  Q 394.71 438.94 428.83 418.51
  Q 434.04 415.39 439.31 412.36
  A 0.61 0.61 0.0 0 1 440.07 412.48
  C 456.41 430.61 482.96 418.74 486.45 396.37
  Q 486.57 395.63 487.30 395.79
  L 493.21 397.06
  A 0.58 0.58 0.0 0 1 493.58 397.94
  C 487.05 408.16 477.05 416.79 467.21 423.69
  C 445.79 438.73 421.78 449.34 397.05 457.63
  C 364.86 468.41 332.26 472.50 299.56 467.23
  A 0.50 0.50 0.0 0 1 299.27 466.39
  Z"
/>
<path fill="#000000" d="
  M 114.16 442.60
  C 110.00 439.18 115.61 435.75 118.30 434.46
  C 160.42 414.30 207.28 407.80 253.19 416.75
  C 257.77 417.65 257.14 418.88 256.97 423.03
  A 0.97 0.95 74.5 0 1 256.55 423.79
  Q 254.53 425.18 252.25 424.75
  C 205.63 415.99 161.72 422.54 118.79 443.58
  Q 116.64 444.64 114.16 442.60
  Z"
/>
<path fill="#000000" d="
  M 133.85 465.35
  C 131.28 467.36 128.41 465.86 127.48 463.10
  C 126.56 460.36 129.01 458.49 130.99 456.98
  C 156.72 437.49 192.37 424.23 225.07 427.10
  Q 226.31 427.21 226.68 428.40
  C 228.40 433.96 224.89 434.52 220.53 434.61
  Q 171.91 435.54 133.85 465.35
  Z"
/>
<path fill="#000000" d="
  M 261.96 426.67
  C 267.82 425.63 270.65 433.46 264.51 434.60
  C 220.03 442.84 186.55 461.69 154.80 493.55
  Q 153.68 494.67 152.08 493.87
  C 146.70 491.16 148.95 487.65 152.10 484.45
  Q 197.59 438.19 261.96 426.67
  Z"
/>
<path fill="#460400" d="
  M 308.00 483.02
  Q 298.26 484.61 287.62 482.43
  Q 288.30 480.73 289.60 479.87
  Q 290.65 479.17 292.54 479.50
  C 296.52 480.21 302.74 480.19 306.26 481.75
  Q 306.75 481.96 306.97 482.44
  Q 307.33 483.20 308.00 483.02
  Z"
/>
</svg>
