<?xml version="1.0" encoding="UTF-8" standalone="no"?>
<!DOCTYPE svg PUBLIC "-//W3C//DTD SVG 1.1//EN" "http://www.w3.org/Graphics/SVG/1.1/DTD/svg11.dtd">
<svg xmlns="http://www.w3.org/2000/svg" version="1.1" viewBox="0.00 0.00 2241.00 934.00">
<g stroke-width="2.00" fill="none" stroke-linecap="butt">
<path stroke="#291a00" vector-effect="non-scaling-stroke" d="
  M 767.90 252.36
  C 757.47 241.36 745.43 233.17 732.82 224.95
  C 729.19 222.59 730.39 218.04 732.79 215.30
  C 751.27 194.26 755.13 163.66 736.07 141.27
  C 725.74 129.14 714.79 121.24 698.10 121.25
  C 669.01 121.27 644.86 138.99 635.67 166.34
  Q 632.98 174.33 631.41 182.61
  C 631.24 183.51 630.69 184.43 630.27 185.28
  A 1.19 1.16 -85.1 0 1 629.60 185.86
  Q 626.88 186.76 623.50 186.52
  C 582.36 183.65 538.77 184.87 497.48 191.90
  Q 496.92 192.00 497.22 192.47
  Q 505.97 206.29 502.45 223.48
  C 500.76 231.73 492.34 251.20 481.49 250.15
  C 477.56 249.77 476.36 245.22 477.14 242.06
  Q 477.57 240.32 479.86 238.13
  C 494.85 223.74 494.98 198.08 473.17 190.05
  C 453.47 182.80 428.77 194.21 426.38 216.73
  C 425.94 220.84 426.74 227.40 421.51 229.10
  C 418.24 230.16 413.70 228.35 413.39 224.57
  Q 411.38 200.09 430.38 184.69
  Q 430.78 184.36 430.28 184.21
  C 408.54 177.74 388.18 193.06 385.34 214.74
  C 384.84 218.53 386.01 222.62 385.76 226.82
  C 385.49 231.30 381.36 232.97 377.41 231.84
  Q 376.91 231.69 376.45 231.94
  Q 345.90 248.21 320.57 271.83
  C 304.16 287.13 293.84 298.75 280.64 316.52
  C 277.27 321.06 272.88 321.34 268.96 317.06
  Q 264.06 311.73 255.28 306.27
  C 224.39 287.08 191.63 304.66 180.65 336.40
  C 170.21 366.58 184.45 394.46 212.73 407.04
  Q 215.12 408.11 223.42 411.45
  C 227.43 413.07 227.66 414.77 227.03 418.75
  Q 225.78 426.59 224.39 434.44
  Q 218.21 469.15 225.88 505.05
  A 0.71 0.71 0.0 0 0 227.23 505.17
  C 237.56 479.44 267.97 473.31 292.25 472.66
  C 300.28 472.45 308.55 471.74 316.26 471.79
  Q 345.27 472.01 367.00 472.58
  Q 368.90 472.63 370.49 472.21
  Q 371.05 472.05 370.84 471.51
  C 361.06 446.18 391.43 417.88 409.22 404.96
  C 455.09 371.65 512.80 349.04 569.25 346.55
  C 584.36 345.88 599.79 347.62 613.73 353.43
  C 623.27 357.40 632.35 361.76 638.24 370.64
  Q 638.53 371.07 638.97 370.79
  Q 641.23 369.35 642.47 368.22
  Q 661.75 350.60 681.29 333.27
  Q 702.50 314.45 721.06 303.06
  C 743.47 289.32 769.19 281.71 793.71 294.07
  Q 795.13 294.78 794.50 293.32
  Q 784.35 269.70 767.90 252.36"
/>
<path stroke="#736e4e" vector-effect="non-scaling-stroke" d="
  M 238.98 541.77
  C 255.52 574.76 281.67 601.99 313.30 620.23
  C 478.25 715.32 737.78 617.89 801.57 439.03
  C 815.41 400.21 817.42 358.30 804.87 318.74
  A 3.01 3.00 -76.9 0 0 804.09 317.48
  C 793.54 307.30 778.02 298.95 763.07 300.59
  C 738.12 303.32 714.35 322.82 694.43 339.68
  Q 678.88 352.85 644.53 383.76
  Q 642.98 385.16 642.56 386.99
  C 641.45 391.90 640.77 396.52 638.38 401.65
  C 632.68 413.89 622.42 425.27 612.06 433.83
  C 587.75 453.90 561.33 467.29 532.00 478.48
  Q 488.60 495.02 442.18 497.46
  C 420.84 498.58 398.73 496.26 380.59 484.42
  A 1.51 1.50 59.2 0 0 379.65 484.18
  C 347.22 486.34 315.43 483.38 284.07 486.06
  Q 271.08 487.17 259.58 491.55
  C 242.98 497.85 234.07 513.75 235.39 531.21
  C 235.69 535.15 237.20 538.20 238.98 541.77"
/>
<path stroke="#807d79" vector-effect="non-scaling-stroke" d="
  M 423.26 407.22
  C 422.82 411.46 429.59 410.06 431.74 409.70
  Q 445.84 407.34 459.58 403.37
  C 489.06 394.87 518.89 384.27 546.50 370.83
  C 555.15 366.62 560.02 364.43 565.74 359.06
  A 1.61 1.60 27.4 0 0 564.86 356.30
  Q 559.98 355.62 554.19 356.68
  C 523.49 362.31 492.25 373.85 463.45 385.72
  C 448.38 391.93 433.93 397.63 423.69 406.40
  A 1.28 1.24 -18.2 0 0 423.26 407.22"
/>
<path stroke="#291a00" vector-effect="non-scaling-stroke" d="
  M 676.55 182.56
  Q 685.33 169.89 698.46 165.17
  C 701.83 163.96 710.66 163.13 711.46 157.99
  C 712.66 150.34 706.17 149.56 700.61 150.91
  C 678.58 156.27 663.54 172.12 657.19 193.61
  Q 656.20 196.97 656.85 198.98
  C 657.99 202.50 662.56 205.37 666.20 202.71
  Q 673.35 197.48 681.92 195.60
  C 686.13 194.67 697.23 196.53 698.49 191.23
  C 701.55 178.40 684.91 182.02 676.85 183.06
  Q 676.15 183.15 676.55 182.56"
/>
<path stroke="#291a00" vector-effect="non-scaling-stroke" d="
  M 688.15 307.32
  Q 689.46 302.48 688.84 296.92
  C 685.34 265.44 654.65 248.55 624.99 255.47
  C 605.46 260.03 590.68 275.53 588.57 295.54
  C 587.33 307.39 592.21 319.07 599.22 328.13
  A 2.12 2.12 0.0 0 0 601.39 328.89
  Q 609.67 326.85 618.27 324.36
  Q 640.65 317.87 663.72 321.45
  C 670.19 322.45 678.67 324.82 684.22 324.13
  C 690.49 323.35 701.83 318.51 696.25 310.02
  C 694.36 307.14 691.16 308.08 688.64 307.99
  Q 687.98 307.96 688.15 307.32"
/>
<path stroke="#291a00" vector-effect="non-scaling-stroke" d="
  M 230.89 350.89
  C 226.51 354.18 215.11 363.39 219.87 369.78
  Q 223.14 374.18 229.09 371.73
  Q 229.57 371.53 229.82 371.07
  Q 234.35 362.69 243.17 359.97
  C 246.77 358.85 250.91 359.24 254.84 359.25
  A 1.24 1.19 -65.6 0 0 255.71 358.90
  C 257.05 357.62 258.32 356.78 258.72 354.89
  Q 259.96 349.09 254.35 345.91
  C 234.69 334.81 211.14 333.20 191.53 344.80
  Q 185.93 348.10 188.66 353.81
  C 190.89 358.46 194.90 357.42 198.96 355.54
  C 209.65 350.61 219.02 347.98 230.82 350.56
  A 0.19 0.18 33.2 0 1 230.89 350.89"
/>
<path stroke="#291a00" vector-effect="non-scaling-stroke" d="
  M 323.61 448.86
  C 334.53 436.41 346.29 426.62 361.25 419.37
  Q 367.06 416.55 373.16 413.74
  A 4.17 4.15 -14.7 0 0 375.58 409.62
  C 373.54 384.54 356.19 367.20 330.77 367.95
  C 288.92 369.19 261.50 421.09 293.26 452.86
  Q 293.68 453.28 293.18 453.61
  C 289.14 456.28 284.97 459.72 289.33 464.77
  C 293.49 469.57 304.68 466.90 309.42 464.53
  C 315.44 461.51 319.34 453.72 323.61 448.86"
/>
<path stroke="#807d79" vector-effect="non-scaling-stroke" d="
  M 658.21 274.46
  A 8.89 8.89 0.0 0 0 649.32 265.57
  A 8.89 8.89 0.0 0 0 640.43 274.46
  A 8.89 8.89 0.0 0 0 649.32 283.35
  A 8.89 8.89 0.0 0 0 658.21 274.46"
/>
<path stroke="#736e4e" vector-effect="non-scaling-stroke" d="
  M 642.61 413.11
  C 639.01 417.75 643.51 420.00 647.66 419.15
  A 1.36 1.34 13.2 0 0 648.43 418.68
  Q 692.81 363.86 761.42 346.37
  C 766.11 345.18 764.03 337.72 757.86 339.22
  C 712.67 350.19 671.20 376.31 642.61 413.11"
/>
<path stroke="#736e4e" vector-effect="non-scaling-stroke" d="
  M 671.66 406.41
  C 672.94 407.80 675.41 408.24 676.78 407.07
  Q 713.91 375.35 762.80 372.50
  C 769.93 372.08 768.08 365.06 763.25 365.02
  C 731.25 364.75 698.59 378.43 674.16 398.43
  C 671.44 400.66 668.83 403.38 671.66 406.41"
/>
<path stroke="#736e4e" vector-effect="non-scaling-stroke" d="
  M 642.26 433.09
  C 645.02 434.06 646.32 432.99 649.09 431.38
  Q 693.13 405.84 744.13 405.77
  C 750.24 405.77 756.91 406.59 763.30 407.14
  C 767.79 407.53 769.70 405.11 768.26 400.81
  Q 768.11 400.36 767.68 400.15
  Q 766.23 399.46 764.24 399.29
  C 746.05 397.71 729.25 397.55 711.25 400.52
  Q 675.44 406.43 644.26 424.81
  Q 642.02 426.13 641.15 427.21
  Q 639.47 429.29 640.40 431.37
  Q 640.96 432.63 642.26 433.09"
/>
<path stroke="#96704e" vector-effect="non-scaling-stroke" d="
  M 438.51 568.71
  C 443.58 568.64 448.44 570.48 453.62 569.47
  C 456.29 568.94 458.70 569.11 461.35 568.66"
/>
<path stroke="#736e4e" vector-effect="non-scaling-stroke" d="
  M 461.35 568.66
  Q 480.46 569.14 496.94 567.65
  C 525.80 565.05 553.57 556.14 580.82 544.58
  C 609.25 532.51 637.03 515.54 654.59 489.36
  A 0.76 0.75 -65.6 0 1 655.40 489.05
  C 680.56 495.71 715.80 499.72 737.31 481.34
  C 754.36 466.76 762.22 444.54 762.75 421.76
  C 762.98 412.09 750.59 410.18 750.07 419.57
  C 748.43 449.17 736.85 477.47 703.72 480.97
  C 685.43 482.91 670.16 480.24 653.42 474.68
  C 637.55 469.41 621.21 467.66 604.24 467.28
  Q 571.32 466.53 540.89 476.56
  Q 519.40 483.64 495.71 496.72
  C 471.92 509.85 454.61 526.75 436.97 547.34
  Q 434.01 550.80 430.70 556.13
  C 417.18 577.91 400.12 597.47 372.35 597.64
  Q 355.82 597.74 341.66 588.64
  Q 338.34 586.51 336.49 586.33
  C 330.58 585.77 327.61 593.35 331.78 597.24
  C 340.10 605.01 351.75 608.22 363.40 609.90
  C 389.30 613.65 412.33 601.65 428.93 581.92
  Q 431.55 578.80 438.51 568.71"
/>
<path stroke="#230200" vector-effect="non-scaling-stroke" d="
  M 461.35 568.66
  Q 457.46 567.33 453.43 567.07
  C 450.86 566.90 448.55 565.73 445.70 566.04
  A 1.60 1.58 57.6 0 1 444.73 565.82
  Q 440.69 563.40 438.51 568.71"
/>
<path stroke="#736e4e" vector-effect="non-scaling-stroke" d="
  M 269.65 530.26
  Q 270.87 530.89 272.20 530.22
  Q 334.98 498.75 403.99 511.51
  Q 405.75 511.83 407.79 510.68
  Q 408.29 510.40 408.32 509.83
  L 408.56 505.61
  A 0.84 0.83 -74.3 0 0 408.13 504.83
  Q 406.50 503.96 405.25 503.73
  C 360.84 495.59 316.72 500.63 275.20 519.38
  C 270.99 521.29 261.65 526.20 269.65 530.26"
/>
<path stroke="#736e4e" vector-effect="non-scaling-stroke" d="
  M 280.56 547.94
  C 281.29 552.07 284.76 553.44 287.95 550.97
  Q 322.46 524.15 366.31 521.38
  C 369.02 521.21 373.80 521.59 376.99 520.77
  C 379.36 520.16 379.15 516.18 378.33 514.44
  Q 378.10 513.94 377.56 513.88
  Q 372.05 513.22 365.56 513.60
  Q 319.06 516.29 282.80 544.54
  Q 281.55 545.52 280.67 547.22
  A 1.11 1.11 0.0 0 0 280.56 547.94"
/>
<path stroke="#736e4e" vector-effect="non-scaling-stroke" d="
  M 302.35 574.10
  C 300.84 578.02 305.68 581.85 308.92 578.44
  Q 352.28 532.75 414.65 521.30
  C 421.92 519.97 419.43 512.88 414.31 513.55
  C 373.19 518.93 333.24 541.46 304.73 570.88
  Q 302.83 572.84 302.35 574.10"
/>
<path stroke="#807d79" vector-effect="non-scaling-stroke" d="
  M 347.96 390.88
  A 8.85 8.85 0.0 0 0 339.11 382.03
  A 8.85 8.85 0.0 0 0 330.26 390.88
  A 8.85 8.85 0.0 0 0 339.11 399.73
  A 8.85 8.85 0.0 0 0 347.96 390.88"
/>
<path stroke="#807d79" vector-effect="non-scaling-stroke" d="
  M 466.12 536.81
  C 475.53 541.78 493.11 540.67 490.72 525.70
  C 489.61 518.73 490.58 516.19 498.27 515.84
  Q 539.83 513.93 574.84 491.51
  Q 580.82 487.68 586.73 483.71
  C 592.03 480.14 595.13 483.90 597.19 488.36
  C 599.70 493.78 605.54 496.35 611.20 494.07
  Q 619.31 490.80 621.68 481.83
  A 0.51 0.51 0.0 0 0 621.25 481.19
  Q 570.72 475.55 525.45 496.34
  C 505.05 505.70 480.81 518.43 465.91 535.68
  A 0.74 0.73 -55.7 0 0 466.12 536.81"
/>
<path stroke="#230200" vector-effect="non-scaling-stroke" d="
  M 594.78 523.26
  C 611.65 514.44 630.89 501.21 641.31 484.96
  A 0.57 0.57 0.0 0 0 640.93 484.09
  L 634.94 483.07
  Q 634.19 482.95 634.10 483.70
  C 631.60 505.68 604.61 516.67 588.68 499.73
  A 1.08 1.08 0.0 0 0 587.29 499.57
  C 562.07 516.20 535.15 525.88 505.01 528.46
  Q 504.17 528.53 504.09 529.38
  Q 502.26 549.34 482.82 551.83
  Q 468.39 553.67 456.55 546.68
  Q 456.03 546.37 455.60 546.80
  L 450.80 551.58
  Q 449.15 553.23 451.46 553.57
  C 500.88 560.97 551.34 545.99 594.78 523.26"
/>
</g>
<path fill="#000000" d="
  M 748.90 219.76
  C 785.46 242.90 807.06 279.62 818.85 320.34
  C 831.90 365.39 826.79 414.04 808.59 457.07
  C 773.68 539.62 702.89 599.59 621.70 635.45
  Q 548.27 667.88 466.00 670.26
  C 453.67 670.62 441.73 669.78 429.51 668.87
  C 367.59 664.23 303.99 640.50 260.57 595.44
  C 216.15 549.34 200.00 485.24 213.44 422.71
  A 1.14 1.13 16.7 0 0 212.74 421.42
  Q 202.58 417.52 193.69 411.33
  C 187.68 407.14 179.48 399.64 175.42 393.21
  Q 171.51 387.00 168.47 380.30
  Q 168.16 379.62 168.25 378.85
  Q 168.31 378.31 167.88 378.00
  Q 166.88 377.26 167.35 375.99
  Q 167.52 375.55 167.15 375.27
  Q 165.68 374.17 166.42 372.22
  A 0.76 0.76 0.0 0 0 166.20 371.36
  C 164.81 370.18 165.45 368.88 165.25 367.62
  Q 161.82 346.40 170.33 326.85
  C 170.95 325.41 171.66 322.50 173.05 320.45
  Q 174.45 318.37 174.75 317.84
  C 185.05 299.74 203.18 287.32 223.77 285.57
  C 242.96 283.95 258.13 291.29 273.00 302.59
  A 1.32 1.31 -52.8 0 0 274.85 302.33
  Q 313.93 250.65 370.95 219.94
  A 1.92 1.92 0.0 0 0 371.95 218.42
  C 372.61 210.86 374.02 203.00 377.35 196.33
  C 390.39 170.17 421.77 162.50 446.49 177.04
  Q 447.04 177.36 447.47 176.89
  Q 447.96 176.34 448.83 176.27
  Q 449.25 176.24 449.66 176.29
  Q 450.88 176.42 451.81 175.60
  A 1.42 1.41 -65.5 0 1 452.74 175.25
  L 468.75 175.25
  Q 469.30 175.25 469.79 175.49
  Q 470.85 176.02 473.00 176.24
  Q 474.81 176.43 479.20 178.51
  C 480.76 179.25 482.32 179.15 483.67 181.09
  A 0.71 0.70 -29.2 0 0 484.53 181.33
  L 487.13 180.17
  Q 487.63 179.94 488.16 180.11
  Q 490.45 180.84 492.29 179.51
  Q 492.68 179.23 493.15 179.17
  Q 503.34 178.04 513.53 176.76
  Q 533.62 174.24 565.19 172.70
  Q 588.01 171.59 610.82 173.09
  Q 614.64 173.34 619.16 173.23
  A 1.00 0.99 6.6 0 0 620.10 172.49
  C 622.11 165.03 624.60 157.21 628.02 150.53
  C 640.60 125.89 664.85 110.04 692.48 108.52
  C 706.93 107.72 718.68 109.59 730.03 117.96
  Q 730.71 118.45 733.01 119.99
  C 736.85 122.56 740.49 126.78 743.74 130.12
  C 753.13 139.78 759.40 154.00 761.00 167.28
  Q 764.24 194.23 748.33 216.91
  A 2.01 2.01 0.0 0 0 748.90 219.76
  Z
  M 767.90 252.36
  C 757.47 241.36 745.43 233.17 732.82 224.95
  C 729.19 222.59 730.39 218.04 732.79 215.30
  C 751.27 194.26 755.13 163.66 736.07 141.27
  C 725.74 129.14 714.79 121.24 698.10 121.25
  C 669.01 121.27 644.86 138.99 635.67 166.34
  Q 632.98 174.33 631.41 182.61
  C 631.24 183.51 630.69 184.43 630.27 185.28
  A 1.19 1.16 -85.1 0 1 629.60 185.86
  Q 626.88 186.76 623.50 186.52
  C 582.36 183.65 538.77 184.87 497.48 191.90
  Q 496.92 192.00 497.22 192.47
  Q 505.97 206.29 502.45 223.48
  C 500.76 231.73 492.34 251.20 481.49 250.15
  C 477.56 249.77 476.36 245.22 477.14 242.06
  Q 477.57 240.32 479.86 238.13
  C 494.85 223.74 494.98 198.08 473.17 190.05
  C 453.47 182.80 428.77 194.21 426.38 216.73
  C 425.94 220.84 426.74 227.40 421.51 229.10
  C 418.24 230.16 413.70 228.35 413.39 224.57
  Q 411.38 200.09 430.38 184.69
  Q 430.78 184.36 430.28 184.21
  C 408.54 177.74 388.18 193.06 385.34 214.74
  C 384.84 218.53 386.01 222.62 385.76 226.82
  C 385.49 231.30 381.36 232.97 377.41 231.84
  Q 376.91 231.69 376.45 231.94
  Q 345.90 248.21 320.57 271.83
  C 304.16 287.13 293.84 298.75 280.64 316.52
  C 277.27 321.06 272.88 321.34 268.96 317.06
  Q 264.06 311.73 255.28 306.27
  C 224.39 287.08 191.63 304.66 180.65 336.40
  C 170.21 366.58 184.45 394.46 212.73 407.04
  Q 215.12 408.11 223.42 411.45
  C 227.43 413.07 227.66 414.77 227.03 418.75
  Q 225.78 426.59 224.39 434.44
  Q 218.21 469.15 225.88 505.05
  A 0.71 0.71 0.0 0 0 227.23 505.17
  C 237.56 479.44 267.97 473.31 292.25 472.66
  C 300.28 472.45 308.55 471.74 316.26 471.79
  Q 345.27 472.01 367.00 472.58
  Q 368.90 472.63 370.49 472.21
  Q 371.05 472.05 370.84 471.51
  C 361.06 446.18 391.43 417.88 409.22 404.96
  C 455.09 371.65 512.80 349.04 569.25 346.55
  C 584.36 345.88 599.79 347.62 613.73 353.43
  C 623.27 357.40 632.35 361.76 638.24 370.64
  Q 638.53 371.07 638.97 370.79
  Q 641.23 369.35 642.47 368.22
  Q 661.75 350.60 681.29 333.27
  Q 702.50 314.45 721.06 303.06
  C 743.47 289.32 769.19 281.71 793.71 294.07
  Q 795.13 294.78 794.50 293.32
  Q 784.35 269.70 767.90 252.36
  Z
  M 238.98 541.77
  C 255.52 574.76 281.67 601.99 313.30 620.23
  C 478.25 715.32 737.78 617.89 801.57 439.03
  C 815.41 400.21 817.42 358.30 804.87 318.74
  A 3.01 3.00 -76.9 0 0 804.09 317.48
  C 793.54 307.30 778.02 298.95 763.07 300.59
  C 738.12 303.32 714.35 322.82 694.43 339.68
  Q 678.88 352.85 644.53 383.76
  Q 642.98 385.16 642.56 386.99
  C 641.45 391.90 640.77 396.52 638.38 401.65
  C 632.68 413.89 622.42 425.27 612.06 433.83
  C 587.75 453.90 561.33 467.29 532.00 478.48
  Q 488.60 495.02 442.18 497.46
  C 420.84 498.58 398.73 496.26 380.59 484.42
  A 1.51 1.50 59.2 0 0 379.65 484.18
  C 347.22 486.34 315.43 483.38 284.07 486.06
  Q 271.08 487.17 259.58 491.55
  C 242.98 497.85 234.07 513.75 235.39 531.21
  C 235.69 535.15 237.20 538.20 238.98 541.77
  Z
  M 423.26 407.22
  C 422.82 411.46 429.59 410.06 431.74 409.70
  Q 445.84 407.34 459.58 403.37
  C 489.06 394.87 518.89 384.27 546.50 370.83
  C 555.15 366.62 560.02 364.43 565.74 359.06
  A 1.61 1.60 27.4 0 0 564.86 356.30
  Q 559.98 355.62 554.19 356.68
  C 523.49 362.31 492.25 373.85 463.45 385.72
  C 448.38 391.93 433.93 397.63 423.69 406.40
  A 1.28 1.24 -18.2 0 0 423.26 407.22
  Z"
/>
<path fill="#513400" d="
  M 767.90 252.36
  Q 784.35 269.70 794.50 293.32
  Q 795.13 294.78 793.71 294.07
  C 769.19 281.71 743.47 289.32 721.06 303.06
  Q 702.50 314.45 681.29 333.27
  Q 661.75 350.60 642.47 368.22
  Q 641.23 369.35 638.97 370.79
  Q 638.53 371.07 638.24 370.64
  C 632.35 361.76 623.27 357.40 613.73 353.43
  C 599.79 347.62 584.36 345.88 569.25 346.55
  C 512.80 349.04 455.09 371.65 409.22 404.96
  C 391.43 417.88 361.06 446.18 370.84 471.51
  Q 371.05 472.05 370.49 472.21
  Q 368.90 472.63 367.00 472.58
  Q 345.27 472.01 316.26 471.79
  C 308.55 471.74 300.28 472.45 292.25 472.66
  C 267.97 473.31 237.56 479.44 227.23 505.17
  A 0.71 0.71 0.0 0 1 225.88 505.05
  Q 218.21 469.15 224.39 434.44
  Q 225.78 426.59 227.03 418.75
  C 227.66 414.77 227.43 413.07 223.42 411.45
  Q 215.12 408.11 212.73 407.04
  C 184.45 394.46 170.21 366.58 180.65 336.40
  C 191.63 304.66 224.39 287.08 255.28 306.27
  Q 264.06 311.73 268.96 317.06
  C 272.88 321.34 277.27 321.06 280.64 316.52
  C 293.84 298.75 304.16 287.13 320.57 271.83
  Q 345.90 248.21 376.45 231.94
  Q 376.91 231.69 377.41 231.84
  C 381.36 232.97 385.49 231.30 385.76 226.82
  C 386.01 222.62 384.84 218.53 385.34 214.74
  C 388.18 193.06 408.54 177.74 430.28 184.21
  Q 430.78 184.36 430.38 184.69
  Q 411.38 200.09 413.39 224.57
  C 413.70 228.35 418.24 230.16 421.51 229.10
  C 426.74 227.40 425.94 220.84 426.38 216.73
  C 428.77 194.21 453.47 182.80 473.17 190.05
  C 494.98 198.08 494.85 223.74 479.86 238.13
  Q 477.57 240.32 477.14 242.06
  C 476.36 245.22 477.56 249.77 481.49 250.15
  C 492.34 251.20 500.76 231.73 502.45 223.48
  Q 505.97 206.29 497.22 192.47
  Q 496.92 192.00 497.48 191.90
  C 538.77 184.87 582.36 183.65 623.50 186.52
  Q 626.88 186.76 629.60 185.86
  A 1.19 1.16 -85.1 0 0 630.27 185.28
  C 630.69 184.43 631.24 183.51 631.41 182.61
  Q 632.98 174.33 635.67 166.34
  C 644.86 138.99 669.01 121.27 698.10 121.25
  C 714.79 121.24 725.74 129.14 736.07 141.27
  C 755.13 163.66 751.27 194.26 732.79 215.30
  C 730.39 218.04 729.19 222.59 732.82 224.95
  C 745.43 233.17 757.47 241.36 767.90 252.36
  Z
  M 676.55 182.56
  Q 685.33 169.89 698.46 165.17
  C 701.83 163.96 710.66 163.13 711.46 157.99
  C 712.66 150.34 706.17 149.56 700.61 150.91
  C 678.58 156.27 663.54 172.12 657.19 193.61
  Q 656.20 196.97 656.85 198.98
  C 657.99 202.50 662.56 205.37 666.20 202.71
  Q 673.35 197.48 681.92 195.60
  C 686.13 194.67 697.23 196.53 698.49 191.23
  C 701.55 178.40 684.91 182.02 676.85 183.06
  Q 676.15 183.15 676.55 182.56
  Z
  M 688.15 307.32
  Q 689.46 302.48 688.84 296.92
  C 685.34 265.44 654.65 248.55 624.99 255.47
  C 605.46 260.03 590.68 275.53 588.57 295.54
  C 587.33 307.39 592.21 319.07 599.22 328.13
  A 2.12 2.12 0.0 0 0 601.39 328.89
  Q 609.67 326.85 618.27 324.36
  Q 640.65 317.87 663.72 321.45
  C 670.19 322.45 678.67 324.82 684.22 324.13
  C 690.49 323.35 701.83 318.51 696.25 310.02
  C 694.36 307.14 691.16 308.08 688.64 307.99
  Q 687.98 307.96 688.15 307.32
  Z
  M 230.89 350.89
  C 226.51 354.18 215.11 363.39 219.87 369.78
  Q 223.14 374.18 229.09 371.73
  Q 229.57 371.53 229.82 371.07
  Q 234.35 362.69 243.17 359.97
  C 246.77 358.85 250.91 359.24 254.84 359.25
  A 1.24 1.19 -65.6 0 0 255.71 358.90
  C 257.05 357.62 258.32 356.78 258.72 354.89
  Q 259.96 349.09 254.35 345.91
  C 234.69 334.81 211.14 333.20 191.53 344.80
  Q 185.93 348.10 188.66 353.81
  C 190.89 358.46 194.90 357.42 198.96 355.54
  C 209.65 350.61 219.02 347.98 230.82 350.56
  A 0.19 0.18 33.2 0 1 230.89 350.89
  Z
  M 323.61 448.86
  C 334.53 436.41 346.29 426.62 361.25 419.37
  Q 367.06 416.55 373.16 413.74
  A 4.17 4.15 -14.7 0 0 375.58 409.62
  C 373.54 384.54 356.19 367.20 330.77 367.95
  C 288.92 369.19 261.50 421.09 293.26 452.86
  Q 293.68 453.28 293.18 453.61
  C 289.14 456.28 284.97 459.72 289.33 464.77
  C 293.49 469.57 304.68 466.90 309.42 464.53
  C 315.44 461.51 319.34 453.72 323.61 448.86
  Z"
/>
<path fill="#000000" d="
  M 676.85 183.06
  C 684.91 182.02 701.55 178.40 698.49 191.23
  C 697.23 196.53 686.13 194.67 681.92 195.60
  Q 673.35 197.48 666.20 202.71
  C 662.56 205.37 657.99 202.50 656.85 198.98
  Q 656.20 196.97 657.19 193.61
  C 663.54 172.12 678.58 156.27 700.61 150.91
  C 706.17 149.56 712.66 150.34 711.46 157.99
  C 710.66 163.13 701.83 163.96 698.46 165.17
  Q 685.33 169.89 676.55 182.56
  Q 676.15 183.15 676.85 183.06
  Z"
/>
<path fill="#000000" d="
  M 895.92 391.69
  C 887.38 391.84 877.90 392.62 871.31 389.82
  C 869.20 388.92 866.04 388.29 863.88 386.08
  Q 863.55 385.75 863.08 385.76
  Q 862.89 385.76 862.72 385.74
  Q 862.56 385.71 862.42 385.58
  C 849.41 373.45 848.61 353.01 864.26 342.71
  C 873.35 336.72 884.83 336.81 895.26 336.71
  A 1.31 1.30 89.6 0 0 896.55 335.39
  C 896.37 317.29 896.55 301.38 896.38 281.75
  C 896.20 261.98 897.67 240.50 917.15 230.76
  C 930.87 223.90 946.32 225.60 958.46 235.02
  C 969.80 243.82 972.49 256.46 972.77 270.07
  Q 973.47 303.04 973.22 336.03
  A 0.56 0.56 0.0 0 0 973.80 336.60
  Q 989.02 336.27 1002.99 336.76
  Q 1014.66 337.16 1022.94 342.30
  C 1035.25 349.94 1037.62 368.66 1029.43 380.01
  C 1019.60 393.65 988.50 391.98 973.99 391.70
  A 0.69 0.68 -89.2 0 0 973.30 392.38
  Q 973.07 471.41 973.47 550.50
  Q 973.49 553.98 974.61 559.54
  C 977.18 572.20 983.28 580.14 997.71 579.68
  C 1007.86 579.36 1017.75 577.21 1027.72 575.57
  C 1043.17 573.03 1056.75 582.58 1058.34 598.27
  C 1061.11 625.58 1034.48 633.71 1013.55 637.69
  Q 1007.97 638.75 1001.36 638.75
  Q 985.31 638.74 969.26 638.76
  Q 958.27 638.77 952.29 637.84
  C 925.25 633.65 905.87 615.64 900.64 588.80
  C 897.81 574.25 896.74 560.87 896.68 544.99
  Q 896.41 468.64 896.52 392.28
  Q 896.52 391.68 895.92 391.69
  Z"
/>
<path fill="#000000" d="
  M 1086.92 391.73
  Q 1080.60 391.65 1078.51 391.72
  C 1063.78 392.24 1050.22 388.23 1045.06 372.99
  Q 1041.94 363.77 1045.05 355.28
  C 1051.12 338.70 1070.33 335.94 1085.54 336.83
  A 1.86 1.85 1.6 0 0 1087.50 334.98
  Q 1087.50 303.61 1087.49 271.75
  Q 1087.49 268.83 1088.84 259.02
  C 1095.21 212.73 1161.50 217.44 1163.30 264.44
  C 1163.44 268.15 1164.22 272.61 1164.23 276.62
  Q 1164.28 306.43 1164.24 336.10
  A 0.52 0.51 88.9 0 0 1164.77 336.62
  Q 1178.90 336.19 1192.99 336.81
  C 1203.43 337.28 1213.76 339.71 1220.07 348.33
  C 1228.71 360.15 1227.08 379.09 1212.68 386.19
  C 1199.17 392.84 1180.62 392.02 1165.19 391.72
  Q 1164.27 391.70 1164.27 392.63
  Q 1164.22 461.30 1164.23 530.50
  C 1164.23 548.57 1161.92 578.47 1185.19 579.62
  C 1197.19 580.21 1211.48 576.49 1221.19 575.40
  C 1244.39 572.79 1256.51 598.40 1245.69 616.63
  C 1237.86 629.84 1220.49 634.39 1206.34 637.45
  C 1204.66 637.81 1202.25 637.34 1200.30 638.50
  Q 1199.89 638.75 1199.41 638.75
  Q 1175.32 638.74 1151.25 638.77
  Q 1147.59 638.77 1140.35 637.28
  C 1114.73 632.02 1097.15 615.15 1091.77 589.64
  C 1087.46 569.16 1087.46 545.76 1087.48 528.16
  Q 1087.56 460.22 1087.47 392.28
  Q 1087.47 391.73 1086.92 391.73
  Z"
/>
<path fill="#000000" d="
  M 688.64 307.99
  C 691.16 308.08 694.36 307.14 696.25 310.02
  C 701.83 318.51 690.49 323.35 684.22 324.13
  C 678.67 324.82 670.19 322.45 663.72 321.45
  Q 640.65 317.87 618.27 324.36
  Q 609.67 326.85 601.39 328.89
  A 2.12 2.12 0.0 0 1 599.22 328.13
  C 592.21 319.07 587.33 307.39 588.57 295.54
  C 590.68 275.53 605.46 260.03 624.99 255.47
  C 654.65 248.55 685.34 265.44 688.84 296.92
  Q 689.46 302.48 688.15 307.32
  Q 687.98 307.96 688.64 307.99
  Z
  M 658.21 274.46
  A 8.89 8.89 0.0 0 0 649.32 265.57
  A 8.89 8.89 0.0 0 0 640.43 274.46
  A 8.89 8.89 0.0 0 0 649.32 283.35
  A 8.89 8.89 0.0 0 0 658.21 274.46
  Z"
/>
<circle fill="#fff9f1" cx="649.32" cy="274.46" r="8.89"/>
<path fill="#e6db9b" d="
  M 313.30 620.23
  C 281.67 601.99 255.52 574.76 238.98 541.77
  C 237.20 538.20 235.69 535.15 235.39 531.21
  C 234.07 513.75 242.98 497.85 259.58 491.55
  Q 271.08 487.17 284.07 486.06
  C 315.43 483.38 347.22 486.34 379.65 484.18
  A 1.51 1.50 59.2 0 1 380.59 484.42
  C 398.73 496.26 420.84 498.58 442.18 497.46
  Q 488.60 495.02 532.00 478.48
  C 561.33 467.29 587.75 453.90 612.06 433.83
  C 622.42 425.27 632.68 413.89 638.38 401.65
  C 640.77 396.52 641.45 391.90 642.56 386.99
  Q 642.98 385.16 644.53 383.76
  Q 678.88 352.85 694.43 339.68
  C 714.35 322.82 738.12 303.32 763.07 300.59
  C 778.02 298.95 793.54 307.30 804.09 317.48
  A 3.01 3.00 -76.9 0 1 804.87 318.74
  C 817.42 358.30 815.41 400.21 801.57 439.03
  C 737.78 617.89 478.25 715.32 313.30 620.23
  Z
  M 642.61 413.11
  C 639.01 417.75 643.51 420.00 647.66 419.15
  A 1.36 1.34 13.2 0 0 648.43 418.68
  Q 692.81 363.86 761.42 346.37
  C 766.11 345.18 764.03 337.72 757.86 339.22
  C 712.67 350.19 671.20 376.31 642.61 413.11
  Z
  M 671.66 406.41
  C 672.94 407.80 675.41 408.24 676.78 407.07
  Q 713.91 375.35 762.80 372.50
  C 769.93 372.08 768.08 365.06 763.25 365.02
  C 731.25 364.75 698.59 378.43 674.16 398.43
  C 671.44 400.66 668.83 403.38 671.66 406.41
  Z
  M 642.26 433.09
  C 645.02 434.06 646.32 432.99 649.09 431.38
  Q 693.13 405.84 744.13 405.77
  C 750.24 405.77 756.91 406.59 763.30 407.14
  C 767.79 407.53 769.70 405.11 768.26 400.81
  Q 768.11 400.36 767.68 400.15
  Q 766.23 399.46 764.24 399.29
  C 746.05 397.71 729.25 397.55 711.25 400.52
  Q 675.44 406.43 644.26 424.81
  Q 642.02 426.13 641.15 427.21
  Q 639.47 429.29 640.40 431.37
  Q 640.96 432.63 642.26 433.09
  Z
  M 438.51 568.71
  C 443.58 568.64 448.44 570.48 453.62 569.47
  C 456.29 568.94 458.70 569.11 461.35 568.66
  Q 480.46 569.14 496.94 567.65
  C 525.80 565.05 553.57 556.14 580.82 544.58
  C 609.25 532.51 637.03 515.54 654.59 489.36
  A 0.76 0.75 -65.6 0 1 655.40 489.05
  C 680.56 495.71 715.80 499.72 737.31 481.34
  C 754.36 466.76 762.22 444.54 762.75 421.76
  C 762.98 412.09 750.59 410.18 750.07 419.57
  C 748.43 449.17 736.85 477.47 703.72 480.97
  C 685.43 482.91 670.16 480.24 653.42 474.68
  C 637.55 469.41 621.21 467.66 604.24 467.28
  Q 571.32 466.53 540.89 476.56
  Q 519.40 483.64 495.71 496.72
  C 471.92 509.85 454.61 526.75 436.97 547.34
  Q 434.01 550.80 430.70 556.13
  C 417.18 577.91 400.12 597.47 372.35 597.64
  Q 355.82 597.74 341.66 588.64
  Q 338.34 586.51 336.49 586.33
  C 330.58 585.77 327.61 593.35 331.78 597.24
  C 340.10 605.01 351.75 608.22 363.40 609.90
  C 389.30 613.65 412.33 601.65 428.93 581.92
  Q 431.55 578.80 438.51 568.71
  Z
  M 269.65 530.26
  Q 270.87 530.89 272.20 530.22
  Q 334.98 498.75 403.99 511.51
  Q 405.75 511.83 407.79 510.68
  Q 408.29 510.40 408.32 509.83
  L 408.56 505.61
  A 0.84 0.83 -74.3 0 0 408.13 504.83
  Q 406.50 503.96 405.25 503.73
  C 360.84 495.59 316.72 500.63 275.20 519.38
  C 270.99 521.29 261.65 526.20 269.65 530.26
  Z
  M 280.56 547.94
  C 281.29 552.07 284.76 553.44 287.95 550.97
  Q 322.46 524.15 366.31 521.38
  C 369.02 521.21 373.80 521.59 376.99 520.77
  C 379.36 520.16 379.15 516.18 378.33 514.44
  Q 378.10 513.94 377.56 513.88
  Q 372.05 513.22 365.56 513.60
  Q 319.06 516.29 282.80 544.54
  Q 281.55 545.52 280.67 547.22
  A 1.11 1.11 0.0 0 0 280.56 547.94
  Z
  M 302.35 574.10
  C 300.84 578.02 305.68 581.85 308.92 578.44
  Q 352.28 532.75 414.65 521.30
  C 421.92 519.97 419.43 512.88 414.31 513.55
  C 373.19 518.93 333.24 541.46 304.73 570.88
  Q 302.83 572.84 302.35 574.10
  Z"
/>
<path fill="#000000" d="
  M 1619.81 637.39
  Q 1619.25 637.96 1618.37 637.74
  Q 1617.84 637.60 1617.44 637.97
  Q 1616.12 639.18 1614.23 638.69
  A 0.80 0.79 -59.8 0 0 1613.48 638.89
  L 1613.15 639.23
  Q 1612.78 639.59 1612.26 639.64
  C 1595.53 641.10 1586.07 638.07 1575.12 625.71
  Q 1574.80 625.36 1574.68 624.90
  Q 1574.36 623.79 1573.41 623.08
  Q 1573.02 622.80 1572.83 622.36
  Q 1570.32 616.58 1568.37 610.56
  Q 1568.04 609.54 1567.87 606.79
  C 1567.73 604.73 1566.76 603.59 1566.76 601.68
  Q 1566.72 489.71 1566.77 377.75
  C 1566.78 347.51 1581.14 324.20 1614.54 331.00
  C 1634.61 335.09 1640.07 355.74 1640.92 373.95
  A 0.40 0.40 0.0 0 0 1641.66 374.14
  C 1648.40 363.44 1655.50 353.26 1664.84 344.60
  C 1679.71 330.81 1699.16 328.20 1719.00 330.75
  C 1736.63 333.01 1760.69 341.24 1771.42 357.04
  C 1786.29 378.91 1765.73 412.99 1738.43 405.11
  C 1719.31 399.59 1696.94 390.68 1677.42 400.05
  C 1653.14 411.71 1646.92 451.55 1645.34 474.75
  C 1642.63 514.57 1643.44 554.84 1643.47 594.74
  Q 1643.48 610.97 1636.59 623.56
  Q 1636.34 624.03 1635.90 624.31
  C 1634.71 625.07 1634.77 626.13 1633.96 627.10
  Q 1628.48 633.60 1620.60 636.85
  Q 1620.15 637.03 1619.81 637.39
  Z"
/>
<path fill="#000000" d="
  M 1925.07 554.40
  A 0.71 0.71 0.0 0 0 1926.44 554.48
  C 1927.82 550.01 1930.02 544.46 1931.06 541.47
  C 1946.73 496.41 1962.81 451.48 1978.27 406.35
  Q 1985.01 386.69 1992.16 367.18
  C 1997.12 353.64 2004.18 334.09 2020.39 330.88
  Q 2043.75 326.25 2056.99 342.76
  C 2063.21 350.51 2065.45 359.94 2063.24 369.50
  C 2058.79 388.74 2053.43 402.19 2046.69 419.94
  Q 2011.43 512.82 1948.54 677.30
  Q 1945.40 685.52 1939.51 696.72
  Q 1933.05 709.00 1929.69 714.14
  C 1915.08 736.45 1893.49 748.53 1867.14 751.75
  Q 1844.13 754.57 1820.99 752.43
  C 1797.17 750.24 1773.27 743.87 1776.51 713.69
  C 1777.78 701.93 1784.85 694.96 1795.84 692.07
  C 1802.31 690.37 1808.85 690.98 1814.78 691.03
  Q 1815.28 691.04 1815.66 691.35
  Q 1816.75 692.27 1818.18 691.98
  Q 1818.68 691.89 1819.13 692.11
  L 1820.71 692.89
  Q 1821.18 693.12 1821.70 692.97
  Q 1823.48 692.45 1824.93 693.51
  Q 1825.29 693.78 1825.74 693.78
  L 1841.24 693.79
  Q 1841.71 693.79 1842.10 693.54
  C 1843.85 692.40 1845.09 693.18 1846.75 692.67
  Q 1855.35 690.00 1861.32 683.37
  C 1862.45 682.12 1863.62 679.72 1865.45 678.21
  A 1.60 1.60 0.0 0 0 1865.98 677.45
  C 1867.13 674.09 1869.59 671.20 1870.85 668.53
  Q 1879.20 650.83 1886.35 632.59
  Q 1886.53 632.13 1886.35 631.66
  Q 1882.37 621.22 1878.23 610.79
  Q 1838.08 509.66 1797.99 408.50
  Q 1790.17 388.76 1787.21 380.00
  C 1786.76 378.68 1786.43 376.03 1785.44 374.23
  Q 1785.20 373.79 1785.24 373.29
  C 1785.41 371.01 1784.70 368.74 1784.75 366.81
  C 1785.37 341.58 1808.66 325.08 1832.81 331.33
  C 1853.22 336.62 1860.36 364.78 1866.24 381.96
  C 1873.77 403.95 1881.30 425.79 1888.86 447.92
  Q 1905.88 497.73 1923.19 547.43
  Q 1924.46 551.10 1925.07 554.40
  Z"
/>
<path fill="#000000" d="
  M 1278.11 373.86
  C 1282.30 369.46 1286.72 364.78 1291.38 361.12
  C 1328.16 332.18 1377.59 324.86 1422.83 332.89
  C 1454.78 338.57 1483.53 355.71 1503.50 381.30
  C 1522.18 405.22 1533.46 440.81 1528.88 470.68
  Q 1527.48 479.77 1523.17 486.69
  C 1511.77 504.99 1477.69 503.93 1457.89 503.95
  Q 1389.24 504.05 1319.29 503.98
  A 0.55 0.54 0.5 0 0 1318.74 504.51
  C 1318.46 530.03 1328.87 558.97 1349.87 574.71
  C 1375.61 594.00 1412.11 592.90 1438.92 575.66
  C 1453.50 566.28 1466.60 554.04 1479.00 541.99
  C 1486.62 534.59 1497.38 533.15 1507.49 535.81
  C 1524.55 540.30 1528.59 556.49 1523.06 571.56
  C 1517.90 585.64 1507.49 600.16 1494.96 608.89
  C 1493.45 609.95 1492.56 611.31 1490.95 612.23
  C 1488.67 613.52 1486.33 615.45 1484.41 616.62
  Q 1460.39 631.26 1432.71 636.68
  C 1431.91 636.83 1430.79 636.39 1430.03 637.33
  Q 1429.72 637.72 1429.22 637.72
  C 1425.75 637.71 1422.04 638.64 1419.17 638.87
  C 1390.33 641.08 1360.09 640.32 1332.45 630.80
  C 1280.14 612.78 1248.89 568.82 1241.73 514.81
  C 1235.37 466.78 1243.75 410.05 1278.11 373.86
  Z
  M 1432.56 401.69
  C 1416.08 385.60 1393.07 381.31 1371.06 385.85
  C 1336.95 392.88 1322.28 427.26 1318.83 458.40
  A 0.94 0.94 0.0 0 0 1319.76 459.44
  L 1453.64 459.66
  Q 1454.90 459.66 1454.84 458.41
  C 1454.00 438.13 1447.40 416.17 1432.56 401.69
  Z"
/>
<path fill="#000000" d="
  M 230.89 350.89
  A 0.19 0.18 33.2 0 0 230.82 350.56
  C 219.02 347.98 209.65 350.61 198.96 355.54
  C 194.90 357.42 190.89 358.46 188.66 353.81
  Q 185.93 348.10 191.53 344.80
  C 211.14 333.20 234.69 334.81 254.35 345.91
  Q 259.96 349.09 258.72 354.89
  C 258.32 356.78 257.05 357.62 255.71 358.90
  A 1.24 1.19 -65.6 0 1 254.84 359.25
  C 250.91 359.24 246.77 358.85 243.17 359.97
  Q 234.35 362.69 229.82 371.07
  Q 229.57 371.53 229.09 371.73
  Q 223.14 374.18 219.87 369.78
  C 215.11 363.39 226.51 354.18 230.89 350.89
  Z"
/>
<path fill="#000000" d="
  M 647.66 419.15
  C 643.51 420.00 639.01 417.75 642.61 413.11
  C 671.20 376.31 712.67 350.19 757.86 339.22
  C 764.03 337.72 766.11 345.18 761.42 346.37
  Q 692.81 363.86 648.43 418.68
  A 1.36 1.34 13.2 0 1 647.66 419.15
  Z"
/>
<path fill="#fff9f1" d="
  M 431.74 409.70
  C 429.59 410.06 422.82 411.46 423.26 407.22
  A 1.28 1.24 -18.2 0 1 423.69 406.40
  C 433.93 397.63 448.38 391.93 463.45 385.72
  C 492.25 373.85 523.49 362.31 554.19 356.68
  Q 559.98 355.62 564.86 356.30
  A 1.61 1.60 27.4 0 1 565.74 359.06
  C 560.02 364.43 555.15 366.62 546.50 370.83
  C 518.89 384.27 489.06 394.87 459.58 403.37
  Q 445.84 407.34 431.74 409.70
  Z"
/>
<path fill="#000000" d="
  M 671.66 406.41
  C 668.83 403.38 671.44 400.66 674.16 398.43
  C 698.59 378.43 731.25 364.75 763.25 365.02
  C 768.08 365.06 769.93 372.08 762.80 372.50
  Q 713.91 375.35 676.78 407.07
  C 675.41 408.24 672.94 407.80 671.66 406.41
  Z"
/>
<path fill="#000000" d="
  M 361.25 419.37
  C 346.29 426.62 334.53 436.41 323.61 448.86
  C 319.34 453.72 315.44 461.51 309.42 464.53
  C 304.68 466.90 293.49 469.57 289.33 464.77
  C 284.97 459.72 289.14 456.28 293.18 453.61
  Q 293.68 453.28 293.26 452.86
  C 261.50 421.09 288.92 369.19 330.77 367.95
  C 356.19 367.20 373.54 384.54 375.58 409.62
  A 4.17 4.15 -14.7 0 1 373.16 413.74
  Q 367.06 416.55 361.25 419.37
  Z
  M 347.96 390.88
  A 8.85 8.85 0.0 0 0 339.11 382.03
  A 8.85 8.85 0.0 0 0 330.26 390.88
  A 8.85 8.85 0.0 0 0 339.11 399.73
  A 8.85 8.85 0.0 0 0 347.96 390.88
  Z"
/>
<circle fill="#fff9f1" cx="339.11" cy="390.88" r="8.85"/>
<path fill="#000000" d="
  M 642.26 433.09
  Q 640.96 432.63 640.40 431.37
  Q 639.47 429.29 641.15 427.21
  Q 642.02 426.13 644.26 424.81
  Q 675.44 406.43 711.25 400.52
  C 729.25 397.55 746.05 397.71 764.24 399.29
  Q 766.23 399.46 767.68 400.15
  Q 768.11 400.36 768.26 400.81
  C 769.70 405.11 767.79 407.53 763.30 407.14
  C 756.91 406.59 750.24 405.77 744.13 405.77
  Q 693.13 405.84 649.09 431.38
  C 646.32 432.99 645.02 434.06 642.26 433.09
  Z"
/>
<path fill="#000000" d="
  M 461.35 568.66
  Q 457.46 567.33 453.43 567.07
  C 450.86 566.90 448.55 565.73 445.70 566.04
  A 1.60 1.58 57.6 0 1 444.73 565.82
  Q 440.69 563.40 438.51 568.71
  Q 431.55 578.80 428.93 581.92
  C 412.33 601.65 389.30 613.65 363.40 609.90
  C 351.75 608.22 340.10 605.01 331.78 597.24
  C 327.61 593.35 330.58 585.77 336.49 586.33
  Q 338.34 586.51 341.66 588.64
  Q 355.82 597.74 372.35 597.64
  C 400.12 597.47 417.18 577.91 430.70 556.13
  Q 434.01 550.80 436.97 547.34
  C 454.61 526.75 471.92 509.85 495.71 496.72
  Q 519.40 483.64 540.89 476.56
  Q 571.32 466.53 604.24 467.28
  C 621.21 467.66 637.55 469.41 653.42 474.68
  C 670.16 480.24 685.43 482.91 703.72 480.97
  C 736.85 477.47 748.43 449.17 750.07 419.57
  C 750.59 410.18 762.98 412.09 762.75 421.76
  C 762.22 444.54 754.36 466.76 737.31 481.34
  C 715.80 499.72 680.56 495.71 655.40 489.05
  A 0.76 0.75 -65.6 0 0 654.59 489.36
  C 637.03 515.54 609.25 532.51 580.82 544.58
  C 553.57 556.14 525.80 565.05 496.94 567.65
  Q 480.46 569.14 461.35 568.66
  Z
  M 466.12 536.81
  C 475.53 541.78 493.11 540.67 490.72 525.70
  C 489.61 518.73 490.58 516.19 498.27 515.84
  Q 539.83 513.93 574.84 491.51
  Q 580.82 487.68 586.73 483.71
  C 592.03 480.14 595.13 483.90 597.19 488.36
  C 599.70 493.78 605.54 496.35 611.20 494.07
  Q 619.31 490.80 621.68 481.83
  A 0.51 0.51 0.0 0 0 621.25 481.19
  Q 570.72 475.55 525.45 496.34
  C 505.05 505.70 480.81 518.43 465.91 535.68
  A 0.74 0.73 -55.7 0 0 466.12 536.81
  Z
  M 594.78 523.26
  C 611.65 514.44 630.89 501.21 641.31 484.96
  A 0.57 0.57 0.0 0 0 640.93 484.09
  L 634.94 483.07
  Q 634.19 482.95 634.10 483.70
  C 631.60 505.68 604.61 516.67 588.68 499.73
  A 1.08 1.08 0.0 0 0 587.29 499.57
  C 562.07 516.20 535.15 525.88 505.01 528.46
  Q 504.17 528.53 504.09 529.38
  Q 502.26 549.34 482.82 551.83
  Q 468.39 553.67 456.55 546.68
  Q 456.03 546.37 455.60 546.80
  L 450.80 551.58
  Q 449.15 553.23 451.46 553.57
  C 500.88 560.97 551.34 545.99 594.78 523.26
  Z"
/>
<path fill="#fff9f1" d="
  M 466.12 536.81
  A 0.74 0.73 -55.7 0 1 465.91 535.68
  C 480.81 518.43 505.05 505.70 525.45 496.34
  Q 570.72 475.55 621.25 481.19
  A 0.51 0.51 0.0 0 1 621.68 481.83
  Q 619.31 490.80 611.20 494.07
  C 605.54 496.35 599.70 493.78 597.19 488.36
  C 595.13 483.90 592.03 480.14 586.73 483.71
  Q 580.82 487.68 574.84 491.51
  Q 539.83 513.93 498.27 515.84
  C 490.58 516.19 489.61 518.73 490.72 525.70
  C 493.11 540.67 475.53 541.78 466.12 536.81
  Z"
/>
<path fill="#460400" d="
  M 641.31 484.96
  C 630.89 501.21 611.65 514.44 594.78 523.26
  C 551.34 545.99 500.88 560.97 451.46 553.57
  Q 449.15 553.23 450.80 551.58
  L 455.60 546.80
  Q 456.03 546.37 456.55 546.68
  Q 468.39 553.67 482.82 551.83
  Q 502.26 549.34 504.09 529.38
  Q 504.17 528.53 505.01 528.46
  C 535.15 525.88 562.07 516.20 587.29 499.57
  A 1.08 1.08 0.0 0 1 588.68 499.73
  C 604.61 516.67 631.60 505.68 634.10 483.70
  Q 634.19 482.95 634.94 483.07
  L 640.93 484.09
  A 0.57 0.57 0.0 0 1 641.31 484.96
  Z"
/>
<path fill="#000000" d="
  M 269.65 530.26
  C 261.65 526.20 270.99 521.29 275.20 519.38
  C 316.72 500.63 360.84 495.59 405.25 503.73
  Q 406.50 503.96 408.13 504.83
  A 0.84 0.83 -74.3 0 1 408.56 505.61
  L 408.32 509.83
  Q 408.29 510.40 407.79 510.68
  Q 405.75 511.83 403.99 511.51
  Q 334.98 498.75 272.20 530.22
  Q 270.87 530.89 269.65 530.26
  Z"
/>
<path fill="#000000" d="
  M 287.95 550.97
  C 284.76 553.44 281.29 552.07 280.56 547.94
  A 1.11 1.11 0.0 0 1 280.67 547.22
  Q 281.55 545.52 282.80 544.54
  Q 319.06 516.29 365.56 513.60
  Q 372.05 513.22 377.56 513.88
  Q 378.10 513.94 378.33 514.44
  C 379.15 516.18 379.36 520.16 376.99 520.77
  C 373.80 521.59 369.02 521.21 366.31 521.38
  Q 322.46 524.15 287.95 550.97
  Z"
/>
<path fill="#000000" d="
  M 308.92 578.44
  C 305.68 581.85 300.84 578.02 302.35 574.10
  Q 302.83 572.84 304.73 570.88
  C 333.24 541.46 373.19 518.93 414.31 513.55
  C 419.43 512.88 421.92 519.97 414.65 521.30
  Q 352.28 532.75 308.92 578.44
  Z"
/>
<path fill="#460400" d="
  M 461.35 568.66
  C 458.70 569.11 456.29 568.94 453.62 569.47
  C 448.44 570.48 443.58 568.64 438.51 568.71
  Q 440.69 563.40 444.73 565.82
  A 1.60 1.58 57.6 0 0 445.70 566.04
  C 448.55 565.73 450.86 566.90 453.43 567.07
  Q 457.46 567.33 461.35 568.66
  Z"
/>
</svg>
