<?xml version="1.0" encoding="utf-8"?>
<!-- Generator: Adobe Illustrator 25.2.3, SVG Export Plug-In . SVG Version: 6.00 Build 0)  -->
<svg version="1.1" id="Ottery-Logo" xmlns="http://www.w3.org/2000/svg" xmlns:xlink="http://www.w3.org/1999/xlink" x="0px"
	 y="0px" viewBox="0 0 849.9 326.6" style="enable-background:new 0 0 849.9 326.6;" xml:space="preserve">
<style type="text/css">
	.st0{fill:#0085B1;}
	.st1{fill:#00A8C8;}
	.st2{display:none;}
	.st3{display:inline;}
	.st4{fill:#005A8D;}
	.st5{fill:#E6DB9B;}
	.st6{fill:#513400;}
	.st7{fill:#FFF9F1;}
	.st8{fill:none;stroke:#000000;stroke-width:3;stroke-linecap:round;stroke-linejoin:round;stroke-miterlimit:10;}
	.st9{fill:#020000;}
	.st10{fill:none;stroke:#000000;stroke-width:2;stroke-linecap:round;stroke-linejoin:round;stroke-miterlimit:10;}
	.st11{fill:#E6F2FF;}
	.st12{fill:#5E0E00;}
	.st13{fill:none;stroke:#4B0B00;stroke-miterlimit:10;}
	.st14{fill:#460400;}
	.st15{fill:none;stroke:#460400;stroke-width:2;stroke-linecap:round;stroke-linejoin:round;stroke-miterlimit:10;}
	.st16{fill:none;stroke:#000000;stroke-width:3;stroke-miterlimit:10;}
	.st17{fill:#FFFFFF;}
	.st18{fill:none;stroke:#FFFFFF;stroke-width:2;stroke-linecap:round;stroke-linejoin:round;stroke-miterlimit:10;}
</style>
<g id="Text-2">
	<text transform="matrix(1 0 0 1 415.5 705.5)" class="st0" style="font-family:'MyriadPro-Regular'; font-size:12px;">0085B1</text>
	<g>
		<circle class="st0" cx="162" cy="151.4" r="89"/>
		<path class="st0" d="M719.5,145.2"/>
		<path class="st0" d="M728.1,238.1c-0.5,1.2-1.4,2.2-2.5,3c0,0,0,0,0,0c-2.4,1.6-5.1,2.5-8,2.7l-8.8,0.7c-2.6,0.2-5.7-0.7-8-1.7
			l-2.5-1.1c-2.3-1-4.2-2.7-5.4-4.8l-8.7-15.3c-0.3-0.3-0.6-0.5-1-0.7c-4-2.7-5.2-8.2-2.5-12.4l32-49.5c1.9-3,1.5-6.9-1-9.5
			l-32.3-32.9c-2.9-3-2.9-7.7-9.8-10.5l19.4-19.8c4.2-3.7,12.9-3.3,20.7-0.2l21.2,21.6c3.6,3.6,2.8,3.8,5.4-1.9l7.2-14.6
			c2.3-5.1,10.5-6.7,14.9-6.2c3.9,0.5,9.7,5.5,13.1,7.5l18.5,14.7c3.6,2.1,4.8,6.7,2.8,10.3"/>
		<path class="st0" d="M536.8,121.2v-33c0-3.4-2.7-6.1-6.1-6.1h-67.1c-4.1,0-7.5,3.3-7.5,7.5v0.2v36.4l-3.2,92
			c0,3.8,3.1,6.8,6.8,6.8h37.7h6.6h25.7c3.7,0,9.9-1.2,9.9-6.7l-1.1-32.5c0-3.7-3-6.7-6.7-6.7l-24.1,1.1c-2.1,0-3.8-1.7-3.8-3.8
			v-8.4c0-2.4-0.5-4.7,1-3.5l13.1,1.2c1.5,0.1,3.1-0.1,4.4-0.8c2.7-1.4,4.4-3.6,4.4-6.2V142c0-2.8-2.3-5-5-5.3l-17.9,1.1l-1-10.9
			l25.1,1c1.3,0.1,2.5-0.1,3.7-0.5C535,126.2,536.8,123.9,536.8,121.2z"/>
		<path class="st0" d="M643.1,167.2c10.6-8.9,17.4-22.5,17.4-37.6c0-26.9-21.4-48.8-47.9-48.8l-55.4,2.9v141.9h49.8v-28.8l23.9,24.4
			h-3.7v10.1h13.6l32.6-33.2L643.1,167.2z M597.9,152.9c-5.2,0-5.8-5.6-5.8-12.5S591.8,128,597,128c5.2,0,14.4,5.6,14.4,12.5
			S603.1,152.9,597.9,152.9z"/>
		<path class="st0" d="M339.2,84.1h-75.9v45.8H287v97H324c3.4,0,6.1-2.9,5.8-6.3l-9.2-89.1l14.7,3.7c1.6,0.4,3.4,0.3,4.9-0.4
			c3.7-1.7,5.7-4.3,5.7-7.4l0.9-35.6C346.9,87.6,343.5,84.1,339.2,84.1z"/>
		<path class="st1" d="M783.3,116.5c2.1-3.6,0.8-8.2-2.8-10.3l-25.9-19.3c-3.7-2.2-8.4-0.9-10.5,2.8l-10.7,21.8
			c-2.5,4.4-8.5,2-12.1-1.6l-21.2-23.7c-3-3-7.9-3-10.9,0l-19.4,19.8c-2.9,3-2.9,7.7,0,10.7l32.3,32.9c2.5,2.5,6.1,6.5,4.2,9.5
			l-35.2,49.5c-2.7,4.1-1.5,9.6,2.5,12.4c0.3,0.2,0.7,0.5,1,0.7l21.9,19.7c0.5,0.4,0.9,0.8,1.5,1c4,2.1,12,3.8,17.4,0.1
			c1.1-0.8,2-1.9,2.5-3.1"/>
		<path class="st1" d="M328,84.1h-72.2c-3.2,0-5.9,2.6-5.9,5.9v36.7c0,3,2.4,5.4,5.4,5.4l16.6-2.2c1,0,1.7,0.8,1.7,1.8l-5.2,88.2
			c-0.2,3.8,2.8,7.1,6.7,7.1h32.2c4.3,0,7.7-3.6,7.4-7.9l-5.7-86.6c-0.1-1.3,1-2.5,2.3-2.5l16,3.2c3.5,0,6.4-2.8,6.4-6.4v-37
			C333.7,86.6,331.2,84.1,328,84.1z"/>
		<path class="st0" d="M437.5,84.1h-75.9v45.8h23.8v97h36.9c3.4,0,6.1-2.9,5.8-6.3l-9.2-89.1l14.7,3.7c1.6,0.4,3.4,0.3,4.9-0.4
			c3.7-1.7,5.7-4.3,5.7-7.4l0.9-35.6C445.2,87.6,441.8,84.1,437.5,84.1z"/>
		<path class="st1" d="M426.3,84.1h-72.2c-3.2,0-5.9,2.6-5.9,5.9v36.7c0,3,2.4,5.4,5.4,5.4l16.6-2.2c1,0,1.7,0.8,1.7,1.8l-5.2,88.2
			c-0.2,3.8,2.8,7.1,6.7,7.1h32.2c4.3,0,7.7-3.6,7.4-7.9l-5.7-86.6c-0.1-1.3,1-2.5,2.3-2.5l16,3.2c3.5,0,6.4-2.8,6.4-6.4v-37
			C432,86.6,429.5,84.1,426.3,84.1z"/>
		<path class="st1" d="M629.6,167.2c10.6-8.9,17.4-22.5,17.4-37.6c0-26.9-21.4-48.8-47.9-48.8l-55.4,2.9v141.9h49.8v-28.8l33.8,34.5
			l32.6-33.2L629.6,167.2z M584.4,152.9c-5.2,0-5.8-5.6-5.8-12.5c0-6.9-0.3-12.5,4.9-12.5c5.2,0,14.4,5.6,14.4,12.5
			C598,147.4,589.6,152.9,584.4,152.9z"/>
		<path class="st1" d="M527.2,121.5v-33c0-3.4-2.7-6.1-6.1-6.1H454c-4.1,0-7.5,3.3-7.5,7.5v0.2v36.4l-3.2,92c0,3.8,3.1,6.8,6.8,6.8
			h37.7h6.6h25.7c3.7,0,9.9-1.2,9.9-6.7l-1.1-32.5c0-3.7-3-6.7-6.7-6.7l-24.1,1.1c-2.1,0-3.8-1.7-3.8-3.8v-8.4
			c0-2.4,1.9-4.3,4.3-4.3l12.7,1.1c3.3,0,6-2.7,6-6v-16.9c0-2.8-2.3-5-5-5l-15.1,0.9c-1.5,0.1-2.9-1.1-2.9-2.7v-6.4
			c0-1.4,1.2-2.6,2.6-2.5l24,1C524.5,127.6,527.2,124.9,527.2,121.5z"/>
		<circle class="st1" cx="152.3" cy="151.4" r="89"/>
	</g>
</g>
<g id="Text-1" class="st2">
	<g class="st3">
		<path class="st4" d="M643.2,211.4c-1.3,19.7-1.9,20.3-17,22.4c-8.3,1.2-16.5,4.1-24.9,4.3c-5.9,0.1-11.9-5.3-10.4-12.1
			c-0.8-39.9-2.2-79.8-3-119.7c-0.4-23.2-0.1-24.6,17.6-25.6c21.8-1.2,43.7-1.7,65.4,1c30.9,3.9,43.5,41,27.3,75.8
			c-2.6,5.6-5.3,11.1-8.3,17.4c3.3,4.8,6.5,9.5,10.1,14.7c2.3,3.3,6.6,9,5.3,12.8c-0.8,2.4-2.5,5.1-4.4,7.4
			c-11,13.2-18.5,16-28.7,19.5c-7.8,2.7-9.3,2.6-14.3-3.1C653.6,221.2,648.7,216.9,643.2,211.4 M644.6,133
			c0.8,8.5,1.5,15.3,2.2,22.9C655.5,147.7,655.1,142.8,644.6,133"/>
		<path class="st4" d="M541.5,135.3c0.5,1.9,2.3,3,4.2,2.7c5.7-0.9,11.4-1.7,17-3.4c5.7-1.7,7.5,0.5,8,7.7
			c1.8,22.3,1.9,22.1-15.5,27.3c-4.1,1.2-10.4-0.2-11.4,8.8c-0.2,1.8,1.3,3.3,3.1,3.1c7.4-0.7,14.4-1.6,21.4-1.9
			c10.8-0.5,12.1,1.1,13.2,15c0.8,10,1.6,20,2.5,30.6c0.4,4.4-2.8,8.4-7.1,9.1c-5.2,0.9-10.2,1.7-15.1,1.5
			c-22.9-0.8-45.8-2.6-68.7-3.8c-4.4-0.2-6.7-2.2-6.7-8.3c-0.1-41.8-0.4-83.5-0.7-125.3c-0.1-8.1,1.8-12.7,8.9-13.1
			c12.3-0.8,24.5-3.2,36.7-4.1c15-1.1,30.1-1.3,45.2-2.2c5.7-0.3,8.2,2.1,7.8,10c-0.5,8.7-0.5,17.5,0.1,26.1
			c0.6,8.2-2.3,11.1-7.9,11.7c-8.9,0.9-17.7,2.4-26.7,2.7c-6.8,0.2-8.9,3-8.7,4.5L541.5,135.3z"/>
		<path class="st4" d="M344.9,149.5c-1.2,0.2-2.1,1.3-2,2.5c1.6,25.7,2.9,50.6,4.7,75.4c0.7,10.4-1.2,12.2-8.9,10.4
			c-11.8-2.7-24.8,0.4-36.8-1.4c-6.1-0.9-5.4-10.4-5.3-18.2c0.4-23.9,0.2-47.9,0.2-73.7c0-1.9-1.5-3.4-3.4-3.4h-22.1
			c-1.6,0-2.9-1.1-3.2-2.7c-3.1-19.3-3.1-36.7,5.3-54.2c0.9-1.8,4.9-4.9,7.5-4.8c22.2,0.5,44.3,1.6,66.5,2.6c0.9,0,2.4,0,3.4,0
			c21.2-0.8,21.2-0.9,21.8,27c0.1,7.6-0.4,15.3,0.2,22.9c0.8,9.6-3,13.1-9.3,14.3C357.9,147.2,352.3,148.1,344.9,149.5"/>
		<path class="st4" d="M454.3,150.7c-1.2,0.2-2.1,1.3-2,2.5c1.6,25.7,2.9,50.6,4.7,75.4c0.7,10.4-1.2,12.2-8.9,10.4
			c-11.8-2.7-24.8,0.4-36.8-1.4c-6.1-0.9-5.4-10.4-5.3-18.2c0.4-23.9,0.2-47.9,0.2-73.7c0-1.9-1.5-3.4-3.4-3.4h-22.1
			c-1.6,0-2.9-1.1-3.2-2.7c-3.1-19.3-3.1-36.7,5.3-54.2c0.9-1.8,4.9-4.9,7.5-4.8c22.2,0.5,44.3,1.6,66.5,2.6c0.9,0,2.4,0,3.4,0
			c21.2-0.8,21.2-0.9,21.8,27c0.2,7.6-0.4,15.3,0.2,22.9c0.8,9.6-3,13.1-9.3,14.3C467.3,148.4,461.7,149.4,454.3,150.7"/>
		<path class="st4" d="M701,95.6c12.2-5.9,22.7-11.4,33.6-15.9c1.8-0.8,5.3,1.8,6.9,4.1c7.4,10.3,14.4,21.1,22.7,33.4
			c2-8.6,3.7-16,5.3-23.3c2.9-13.1,4.1-14.5,14.1-10.9c7.7,2.8,15.2,6.7,22.3,11.5c2,1.4,3.8,8.3,2.9,11.2
			C797,144,785.1,182.3,772.1,220c-7.5,22-9.7,21.9-23.4,6.1c-5-5.8-9.7-12.1-14.9-17.7c-6.9-7.5-7.4-15.7-1.8-24.2
			c5.6-8.4,4.4-15.9-0.1-24.3c-7.7-14.3-15.1-28.9-22.3-43.6C706.7,110.4,704.4,103.8,701,95.6"/>
		<path class="st4" d="M261,156.7c0,58.6-47.5,106.2-106.2,106.2c-58.6,0-106.2-47.5-106.2-106.2c0-58.6,47.5-106.2,106.2-106.2
			C213.5,50.5,261,98.1,261,156.7"/>
	</g>
</g>
<g id="Fur">
	<path class="st5" d="M187.6,175.3c-3,0-3.7-0.8-6.4-0.9c-7.5-0.1-16-0.7-25,3.3c-7.1,3.1-12.1,8.5-16.4,12.5c-2.2,2-3.4,2.3-5.3,4
		c5,1.1,16.3,2.6,29.8-2.1c14.6-5,22.2-12.4,23.4-17.1L187.6,175.3z M221.3,130.7c2.6,1.1,4.5,2.7,5.6,3.7
		c10,29.1-12.6,64.2-51.1,78.9c-38.6,14.7-78.8,3.5-90.6-25c-0.1-1.5,0-4,1-6.6c4.1-9.8,18-10.1,35.8-11c0,0.4,0.2,0.8,0.3,1.2
		c2.5,6.7,18.2,7,34.9,0.6s28.2-17,25.7-23.7c-0.2-0.4-0.4-0.8-0.7-1.2C198,135.3,208.9,125.2,221.3,130.7"/>
	<path class="st6" d="M202.7,87c0.4,0.1,7.9,3.1,9.7,11.3c1.7,8.1-3.7,13.6-4.1,13.9c9.3,5.6,13.5,11.6,17.3,21.5
		c0.2,0.4,0.3,0.9,0.5,1.3c-1.1-1-3-2.6-5.6-3.7c-12.4-5.5-22.4,8.7-38.1,21.1c-3.9-5.5-19.4-7.5-35.1-1.6
		c-15.7,6-26,17.9-25.2,24.6c-17.8,0.9-32.6-2.9-36.7,7c-1.1,2.6-1.1,5-1,6.6c-0.2-0.4-0.3-0.8-0.5-1.2c-3.3-8.8-3.6-18.2-1.4-27.5
		c-0.6-0.2-9-2.5-11.6-10.3c-1.2-3.6-0.6-6.9-0.2-8.5c1.6-6.6,6.8-11.3,12.8-11.8c6.8-0.5,11.4,4.7,12,5.3c1.8-2.5,3.7-4.8,5.6-6.9
		c24-26.2,61.6-26.8,80-25.6c0.1-1.2,1.1-8.3,7.5-12.8C194.9,85.2,201.6,86.7,202.7,87"/>
</g>
<g id="Outline">
	<path class="st7" d="M173.7,178.8l3.6,0.9"/>
	<path class="st8" d="M84.3,189c-0.2-0.4-0.3-0.8-0.5-1.2c-3.3-8.8-3.6-18.2-1.4-27.5c-0.6-0.2-9-2.5-11.6-10.3
		c-1.2-3.6-0.6-6.9-0.2-8.5c1.6-6.6,6.8-11.3,12.8-11.8c6.8-0.5,11.5,4.7,12,5.3c1.8-2.5,3.7-4.8,5.6-6.9c24-26.2,61.6-26.8,80-25.6
		c0.1-1.2,1.1-8.3,7.5-12.8c6.3-4.4,13-2.9,14.1-2.7c0.4,0.1,7.9,3.1,9.7,11.3c1.7,8.1-3.7,13.6-4.1,13.9
		c9.3,5.6,13.5,11.6,17.3,21.5c0.2,0.4,0.3,0.9,0.5,1.3c10,29.1-12.6,64.2-51.1,78.9C136.3,228.7,96.2,217.5,84.3,189z"/>
	<path class="st8" d="M178.9,155.7c15.8-12.4,29.1-29.9,41.6-24.4c2.6,1.1,4.5,2.7,5.6,3.7"/>
	<path class="st8" d="M84.4,189C84.4,189,84.3,189,84.4,189c-0.1-1.6,0-4.1,1-6.6c4.1-9.8,20.1-6.5,37.9-7.4"/>
	<path class="st6" d="M121.2,113.5c-1.1-4.3,1.6-9.7,6.4-11.4c5-1.8,10.4,0.4,12,4.9c0.7,2,0.6,4.2-0.3,6.2"/>
	<path class="st8" d="M121.2,113.5c-1.1-4.3,1.6-9.7,6.4-11.4c5-1.8,10.4,0.4,12,4.9c0.7,2,0.6,4.2-0.3,6.2"/>
	<path class="st6" d="M130.8,112.9c0.1-4,1.5-7.7,6.6-9.5c5-1.8,10.4,0.4,12,4.9c0.7,1.9,0.6,6.7-3,9.7"/>
</g>
<g id="Nose">
	<path class="st9" d="M184,148.9c-4.2-6.4-20-6.9-37-1c-17,6-29.1,16.3-28.3,23.9c0,0.5,0.2,1,0.3,1.4c2.7,7.7,19.6,8.8,37.7,2.4
		c18.1-6.3,30.6-17.7,28-25.4C184.5,149.8,184.3,149.3,184,148.9"/>
	<path class="st10" d="M180.7,148c0.3,0.4,0.5,0.8,0.7,1.2c2.5,6.7-9,17.3-25.7,23.7c-16.7,6.4-32.4,6.1-34.9-0.6
		c-0.2-0.4-0.3-0.8-0.3-1.2c-0.8-6.7,10.3-16.4,26-22.4C162.1,142.6,176.8,142.5,180.7,148z"/>
	<path class="st11" d="M166.5,145.7c0.4,1-7.1,4.6-16.6,8.1s-17.6,5.4-18,4.4c-0.4-1,7.1-4.6,16.6-8.1
		C158.1,146.6,166.1,144.7,166.5,145.7"/>
</g>
<g id="Mouth">
	<path class="st12" d="M179,174.9l-4.3,2.9c-0.6-0.4-0.5-0.5-0.7-0.4l-27.9,9.9c-0.2,0.1-2.8-0.4-2.9-0.1l-10.5,9.3
		c5,1.1,17,0.4,30.7-3.7c14.9-4.4,25.7-16.4,24.8-17.5L179,174.9z"/>
	<path class="st13" d="M179,174.9l-4.3,2.9c-0.6-0.4-0.5-0.5-0.7-0.4l-27.9,9.9c-0.2,0.1-2.8-0.4-2.9-0.1l-10.5,9.3
		c5,1.1,17,0.4,30.7-3.7c14.9-4.4,25.7-16.4,24.8-17.5L179,174.9z"/>
	<path class="st14" d="M173.6,181c1.6,4.3-2.4,9.7-8.9,12.1c-6.5,2.4-13.2,1-14.8-3.3c-1.6-4.3,2.4-9.7,8.9-12.1
		S172,176.7,173.6,181"/>
	<path class="st15" d="M174.1,182.8c1.6,4.3-3,7.2-9.5,9.6c-6.5,2.4-12.6,3.4-14.2-0.8c-1.6-4.3,2.4-9.7,8.9-12.1
		S172.5,178.5,174.1,182.8z"/>
	<path class="st7" d="M149.3,187.2l-3,4.9l-5.3-3.2l1.3-2.2l13.7-7.3c9.3-4.1,15.9-5,25-3.6l-2.5,5.3l-7.4-3.1L149.3,187.2z"/>
</g>
<g id="Eyes">
	<path class="st16" d="M194.9,131c0.1,1.8-0.2,3.5-1.1,4.9c-2.2-0.6-5.5-1.1-9.3-0.8c-3.6,0.3-6.5,1.1-8.5,1.9l-0.4,0
		c-1.1-1.4-1.8-3-1.9-4.8c-0.4-5.3,4-9.8,9.8-10.2C189.4,121.7,194.5,125.7,194.9,131z"/>
	<path class="st9" d="M102.6,152.3c4.6-3.7,10.9-3.3,14.1,0.9c1.1,1.4,1.7,3.1,1.8,4.8l-0.3,0.3c-2,0.8-4.8,2.1-7.6,4.3
		c-3.1,2.4-5.1,5-6.4,6.9c-1.6-0.5-3-1.5-4.1-2.9C96.9,162.4,98.1,156,102.6,152.3"/>
	<path class="st17" d="M112.1,153c0.5,0.5,0.5,1.2,0,1.7c-0.4,0.5-1.2,0.4-1.6,0c-0.5-0.5-0.5-1.2,0-1.7
		C110.9,152.5,111.6,152.6,112.1,153"/>
	<path class="st9" d="M194.9,131c0.1,1.8-0.2,3.5-1.1,4.9c-2.2-0.6-5.5-1.1-9.3-0.8c-3.6,0.3-6.5,1.1-8.5,1.9l-0.4,0
		c-1.1-1.4-1.8-3-1.9-4.8c-0.4-5.3,4-9.8,9.8-10.2C189.4,121.7,194.5,125.7,194.9,131"/>
	<path class="st18" d="M188,125.5c0,0.7-0.5,1.2-1.2,1.1c-0.6,0-1.1-0.6-1.1-1.3c0-0.7,0.5-1.2,1.2-1.1
		C187.6,124.3,188.1,124.9,188,125.5z"/>
	<path class="st16" d="M102.6,152.3c4.6-3.7,10.9-3.3,14.1,0.9c1.1,1.4,1.7,3.1,1.8,4.8l-0.3,0.3c-2,0.8-4.8,2.1-7.6,4.3
		c-3.1,2.4-5.1,5-6.4,6.9c-1.6-0.5-3-1.5-4.1-2.9C96.9,162.4,98.1,156,102.6,152.3z"/>
	<path class="st18" d="M112.1,153c0.5,0.5,0.5,1.2,0,1.7c-0.4,0.5-1.2,0.4-1.6,0c-0.5-0.5-0.5-1.2,0-1.7
		C110.9,152.5,111.6,152.6,112.1,153z"/>
	<path class="st8" d="M100.3,170.8c2.5,0.6,3.9-1.2,3.9-1.2"/>
	<path class="st8" d="M197.1,135.2c-2,1.5-4.1,0.5-4.1,0.5"/>
	<path class="st17" d="M188,125.5c0,0.7-0.5,1.2-1.2,1.1c-0.6,0-1.1-0.6-1.1-1.3c0-0.7,0.5-1.2,1.2-1.1
		C187.6,124.3,188.1,124.9,188,125.5"/>
</g>
<g id="Stroke">
	<path class="st8" d="M141.1,190.6c0.6,0.3,1.7,0.9,3.3,1c1.7,0.1,3-0.4,3.6-0.7c0.3-0.2,1.2-0.8,1.7-2.1c0.5-1.4,0.1-2.7,0-3
		c2.8-0.1,6.8-0.5,11.2-1.9c5.3-1.7,9.2-4.3,11.7-6.2c0.1,0.4,0.5,1.7,1.8,2.4c1.5,0.8,2.3,0.8,3.2,0.7c0.6-0.2,1.6-0.6,2.9-1.8
		c0.9-0.9,1.2-2,1.3-2.6"/>
	<path class="st8" d="M135.4,194.5c5,1.1,14.6,2.5,28.1-2.3c14.4-5,21.1-11.1,23.8-16.1"/>
	<path class="st10" d="M186,159.9c2.5-3.1,6.4-7.3,12-11c6.1-4,11.8-5.9,15.8-6.8"/>
	<path class="st10" d="M185.6,163.3c3.1-1.9,7.7-4.2,13.7-5.6c6.5-1.5,12-1.3,15.8-0.8"/>
	<path class="st10" d="M193,156.9c2.1-1.8,5.3-4.2,9.7-6c4.8-2,9.1-2.5,12-2.6"/>
	<path class="st10" d="M127.3,182.3c-3.9-0.8-9.6-1.4-16.3-0.5c-7.2,0.9-12.8,3.2-16.4,5.1"/>
	<path class="st10" d="M129.8,184.7c-3.5,0.6-8.6,1.8-14,4.6c-5.9,3.1-10,6.8-12.5,9.6"/>
	<path class="st10" d="M120,184.7c-2.8,0-6.7,0.3-11.2,1.8c-4.9,1.6-8.5,4-10.8,5.8"/>
	<path class="st8" d="M110.6,203c0.6,0.5,1.5,1.2,2.8,1.7c1.2,0.5,2.3,0.7,3.1,0.8c2.8,0.4,4.9,0.5,7.5-0.4c7-2.5,10.2-9,11.7-11.4
		c-0.2,0.3-0.1-0.2,5.8-6.2c3.6-3.6,8.5-6.7,14.5-9.4c7.6-3.4,15.3-4.5,21.8-4c2.4,0.2,5.3,0.7,7.5,1c5.7,2.4,12.6,3.5,18.4,1.6
		c3.2-1,5-3.5,5.7-4.4c2.1-2.6,3.4-6.3,3.5-11.3"/>
	<path class="st8" d="M75.9,144c1.1-0.6,4.1-2.2,8.2-1.7c2.9,0.3,5,1.5,6.1,2.3c-0.7-0.1-2.7-0.2-4.7,1.1c-1.1,0.7-1.7,1.6-2.1,2.2"
		/>
	<path class="st8" d="M200.6,96.7c-1.2,0.2-3.7,0.9-6,2.8c-3,2.6-4,5.8-4.3,7.1c0.7-0.6,2-1.4,3.7-1.8c1.4-0.3,2.6-0.3,3.5-0.2"/>
	<path class="st8" d="M130.8,112.9c0.1-4,1.5-7.7,6.6-9.5c5-1.8,10.4,0.4,12,4.9c0.7,1.9,0.6,6.7-3,9.7"/>
</g>
</svg>
